<svg xmlns="http://www.w3.org/2000/svg" viewBox="0 0 41.75 40"><defs><style>.cls-1{fill:#174897;}</style></defs><g id="Calque_2" data-name="Calque 2"><g id="Layer_1" data-name="Layer 1"><path class="cls-1" d="M20.87,0C9.06,0,0,8.66,0,20.07S9,40,20.85,40s20.9-8.61,20.9-19.93S32.69,0,20.87,0ZM28.7,30.21H13.05a2.93,2.93,0,0,1-2.93-2.93,2,2,0,0,1,2-2h17.6a2,2,0,0,1,2,2A2.93,2.93,0,0,1,28.7,30.21ZM10.15,22.52V20.31a.86.86,0,0,1,.85-.85h3l2,1.95,5.87-1.95h8.9a.85.85,0,0,1,.85.85v2.21a.85.85,0,0,1-.85.85H11A.86.86,0,0,1,10.15,22.52Zm19.52-5H12.07a2,2,0,0,1-2-1.95c0-3.78,4.81-6.85,10.75-6.85s10.76,3.07,10.76,6.85A2,2,0,0,1,29.67,17.5Z"/></g></g></svg>