<svg xmlns="http://www.w3.org/2000/svg" viewBox="0 0 86.81 86.81"><defs><style>.cls-1{fill:#174897;}.cls-2{fill:#fff;}</style></defs><g id="Calque_2" data-name="Calque 2"><g id="Layer_1" data-name="Layer 1"><rect class="cls-1" width="86.81" height="86.81"/><path class="cls-2" d="M23.31,38.72A3.4,3.4,0,0,1,19.73,42H15.15V31.26h3.53a3.11,3.11,0,0,1,3.37,2.79c0,1.11-.74,1.9-1.18,1.9A2.7,2.7,0,0,1,23.31,38.72Zm-4.72-5h-.7v1.68h.68c.62,0,1.09-.3,1.09-.86S19.2,33.74,18.59,33.74Zm2,4.64c0-.62-.46-1-1.26-1H17.89v2H19.3C20,39.41,20.58,39.09,20.58,38.38Z"/><path class="cls-2" d="M24.48,38.09V31.26h2.87v6.83a1.52,1.52,0,0,0,1.58,1.48,1.55,1.55,0,0,0,1.59-1.48V31.26h2.87v6.83a4.25,4.25,0,0,1-4.46,4.21A4.24,4.24,0,0,1,24.48,38.09Z"/><path class="cls-2" d="M40.71,42l-2.87-4.66V42H35V31.26h4.08a3.69,3.69,0,0,1,4,3.49,3.24,3.24,0,0,1-1.86,2.94L44.05,42Zm-2.88-6H39a1.09,1.09,0,0,0,1.16-1.08A1.11,1.11,0,0,0,39,33.82H37.83Z"/><path class="cls-2" d="M55.66,36.88a5.27,5.27,0,0,1-5.52,5.38A5.64,5.64,0,1,1,50.07,31a6.25,6.25,0,0,1,3.83,1.42l-1.58,2.17a3.45,3.45,0,0,0-2.25-.92,3,3,0,1,0,.18,5.94c1.3,0,2.23-.63,2.27-1.65H50.06V35.83h5.51A7.7,7.7,0,0,1,55.66,36.88Z"/><path class="cls-2" d="M59.61,33.91v1.5H63v2.38H59.61v1.54h4.14V42h-7V31.26h7v2.65Z"/><path class="cls-2" d="M71.07,42,68.2,37.34V42H65.35V31.26h4.06a3.69,3.69,0,0,1,4,3.49,3.24,3.24,0,0,1-1.86,2.94L74.41,42Zm-2.88-6h1.16a1.09,1.09,0,0,0,1.16-1.08,1.11,1.11,0,0,0-1.16-1.08H68.19Z"/><path class="cls-2" d="M20.56,52.25A3.4,3.4,0,0,1,17,55.53H12.4V44.79h3.53a3.11,3.11,0,0,1,3.37,2.79c0,1.11-.73,1.9-1.17,1.9A2.69,2.69,0,0,1,20.56,52.25Zm-4.71-5h-.7V49h.68c.62,0,1.08-.3,1.08-.86S16.46,47.27,15.85,47.27Zm2,4.64c0-.63-.45-1-1.26-1H15.15v2h1.4C17.2,52.94,17.83,52.62,17.83,51.91Z"/><path class="cls-2" d="M34.66,47.44v1.5h3.41v2.38H34.66v1.54h4.15v2.67h-7V44.79h7v2.65Z"/><path class="cls-2" d="M48.4,47.45H45.83v8.08H43V47.45H40.39V44.79h8Z"/><path class="cls-2" d="M71.08,44.77V55.63h-.9l-5.53-5.35v5.25H61.8V44.68h.92L68.22,50V44.77Z"/><path class="cls-2" d="M54.77,44.51a5.66,5.66,0,1,0,5.9,5.67A5.67,5.67,0,0,0,54.77,44.51ZM57,53H52.56a.83.83,0,0,1-.82-.83.55.55,0,0,1,.55-.55h5a.55.55,0,0,1,.55.55A.83.83,0,0,1,57,53Zm-5.23-2.17v-.63A.24.24,0,0,1,52,50h.85l.55.56L55.05,50h2.51a.24.24,0,0,1,.24.24v.63a.24.24,0,0,1-.24.24H52A.24.24,0,0,1,51.75,50.87Zm5.51-1.42h-5a.55.55,0,0,1-.55-.55c0-1.07,1.36-1.93,3-1.93s3,.86,3,1.93A.55.55,0,0,1,57.26,49.45Z"/><path class="cls-2" d="M27.51,55.53l-2.87-4.67v4.67H21.77V44.79h4.08a3.68,3.68,0,0,1,4,3.49A3.24,3.24,0,0,1,28,51.22l2.88,4.31Zm-2.88-6h1.16A1.09,1.09,0,0,0,27,48.43a1.11,1.11,0,0,0-1.16-1.08H24.63Z"/></g></g></svg>