<svg xmlns="http://www.w3.org/2000/svg" viewBox="0 0 40 40"><defs><style>.cls-1{fill:#174897;}</style></defs><g id="Calque_2" data-name="Calque 2"><g id="Layer_1" data-name="Layer 1"><path class="cls-1" d="M34.55,40H5.45A5.45,5.45,0,0,1,0,34.55a3.64,3.64,0,0,1,3.64-3.64H36.36A3.64,3.64,0,0,1,40,34.55,5.45,5.45,0,0,1,34.55,40ZM.07,25.69V21.58A1.58,1.58,0,0,1,1.65,20H7.27l3.64,3.64L21.82,20H38.36A1.59,1.59,0,0,1,40,21.58v4.11a1.59,1.59,0,0,1-1.59,1.58H1.65A1.58,1.58,0,0,1,.07,25.69Zm36.29-9.33H3.64A3.64,3.64,0,0,1,0,12.73C0,5.7,9,0,20,0S40,5.7,40,12.73A3.64,3.64,0,0,1,36.36,16.36Z"/></g></g></svg>