<svg xmlns="http://www.w3.org/2000/svg" viewBox="0 0 43.4 43.41"><defs><style>.cls-1{fill:#fff;}.cls-2{fill:#154997;}</style></defs><g id="Calque_2" data-name="Calque 2"><g id="Layer_1" data-name="Layer 1"><circle class="cls-1" cx="21.7" cy="21.7" r="21.7"/><path class="cls-2" d="M11.65,18.21a1.7,1.7,0,0,1-1.79,1.64H7.57V14.48H9.34A1.55,1.55,0,0,1,11,15.88c0,.55-.36.95-.58.95A1.34,1.34,0,0,1,11.65,18.21ZM9.3,15.72H9v.84h.34c.3,0,.54-.15.54-.43S9.6,15.72,9.3,15.72Zm1,2.32c0-.31-.23-.5-.63-.5H9v1h.7C10,18.56,10.29,18.4,10.29,18Z"/><path class="cls-2" d="M12.24,17.9V14.48h1.43V17.9a.8.8,0,0,0,1.59,0V14.48h1.43V17.9A2.12,2.12,0,0,1,14.47,20,2.12,2.12,0,0,1,12.24,17.9Z"/><path class="cls-2" d="M20.35,19.85l-1.43-2.33v2.33H17.49V14.48h2a1.84,1.84,0,0,1,2,1.75,1.61,1.61,0,0,1-.93,1.47L22,19.85Zm-1.44-3h.59a.55.55,0,0,0,.58-.54.55.55,0,0,0-.58-.54h-.59Z"/><path class="cls-2" d="M27.83,17.29A2.63,2.63,0,0,1,25.07,20a2.82,2.82,0,1,1,0-5.63,3.11,3.11,0,0,1,1.92.71l-.79,1.09A1.73,1.73,0,0,0,25,15.69a1.5,1.5,0,0,0-1.5,1.48,1.52,1.52,0,0,0,1.6,1.49c.65,0,1.11-.32,1.13-.83H25V16.77h2.75A3.15,3.15,0,0,1,27.83,17.29Z"/><path class="cls-2" d="M29.8,15.81v.75h1.71v1.19H29.8v.77h2.07v1.33H28.39V14.48h3.48v1.33Z"/><path class="cls-2" d="M35.54,19.85,34.1,17.52v2.33H32.67V14.48h2a1.83,1.83,0,0,1,2,1.75,1.62,1.62,0,0,1-.92,1.47l1.43,2.15Zm-1.45-3h.59a.55.55,0,0,0,.58-.54.55.55,0,0,0-.58-.54h-.59Z"/><path class="cls-2" d="M10.28,25a1.69,1.69,0,0,1-1.79,1.63H6.2V21.25H8a1.55,1.55,0,0,1,1.68,1.39c0,.55-.36.95-.58.95A1.35,1.35,0,0,1,10.28,25Zm-2.36-2.5H7.57v.85h.34c.31,0,.55-.16.55-.43S8.23,22.48,7.92,22.48Zm1,2.33c0-.32-.23-.51-.63-.51H7.57v1h.71C8.6,25.32,8.92,25.16,8.92,24.81Z"/><path class="cls-2" d="M17.33,22.57v.75H19v1.19H17.33v.77H19.4v1.33H15.92V21.25H19.4v1.32Z"/><path class="cls-2" d="M24.2,22.58H22.91v4H21.49v-4H20.2V21.25h4Z"/><path class="cls-2" d="M35.54,21.24v5.43h-.45L32.33,24v2.63H30.9V21.19h.46l2.75,2.67V21.24Z"/><path class="cls-2" d="M27.39,21.11a2.82,2.82,0,1,0,2.95,2.83A2.84,2.84,0,0,0,27.39,21.11Zm1.1,4.26H26.28a.41.41,0,0,1-.41-.41.28.28,0,0,1,.27-.28h2.49a.29.29,0,0,1,.28.28A.41.41,0,0,1,28.49,25.37Zm-2.62-1.08V24a.13.13,0,0,1,.12-.12h.43l.28.28.83-.28h1.25a.12.12,0,0,1,.12.12v.32a.12.12,0,0,1-.12.12H26A.13.13,0,0,1,25.87,24.29Zm2.76-.71H26.14a.28.28,0,0,1-.27-.28c0-.53.68-1,1.52-1s1.52.44,1.52,1A.29.29,0,0,1,28.63,23.58Z"/><path class="cls-2" d="M13.75,26.61l-1.43-2.33v2.33H10.89V21.25h2a1.84,1.84,0,0,1,2,1.74A1.61,1.61,0,0,1,14,24.46l1.44,2.15Zm-1.44-3h.59a.55.55,0,0,0,.58-.54.55.55,0,0,0-.58-.54h-.59Z"/><path class="cls-2" d="M12,29.69h-.66V28.1H12a.44.44,0,0,1,.49.45.37.37,0,0,1-.2.33.36.36,0,0,1,.22.36A.44.44,0,0,1,12,29.69Zm-.05-1.31h-.3v.37h.3a.19.19,0,0,0,.21-.19C12.15,28.45,12.07,28.38,11.94,28.38ZM12,29h-.32v.39H12a.19.19,0,0,0,.21-.2A.18.18,0,0,0,12,29Z"/><path class="cls-2" d="M13.36,29.71a.55.55,0,0,1-.59-.56v-1h.31v1a.28.28,0,1,0,.56,0v-1h.3v1A.55.55,0,0,1,13.36,29.71Z"/><path class="cls-2" d="M15.13,29.69l-.31-.63H14.6v.63h-.31V28.1h.62a.48.48,0,0,1,.52.49.44.44,0,0,1-.29.42l.35.68Zm-.24-1.31H14.6v.42h.29a.21.21,0,1,0,0-.42Z"/><path class="cls-2" d="M16.73,29.53a.6.6,0,0,1-.45.18.57.57,0,0,1-.43-.18c-.16-.16-.15-.36-.15-.63s0-.48.15-.64a.58.58,0,0,1,.43-.17.57.57,0,0,1,.6.51h-.31a.27.27,0,0,0-.29-.23.28.28,0,0,0-.2.08c-.06.07-.07.14-.07.45s0,.38.07.45a.28.28,0,0,0,.2.08.27.27,0,0,0,.22-.09.32.32,0,0,0,.08-.21v-.06h-.3v-.26h.6V29A.66.66,0,0,1,16.73,29.53Z"/><path class="cls-2" d="M17.2,29.69V28.1h1.05v.28h-.74v.37h.63V29h-.63v.39h.74v.27Z"/><path class="cls-2" d="M19.39,29.69l-.31-.63h-.22v.63h-.31V28.1h.62a.48.48,0,0,1,.52.49.44.44,0,0,1-.29.42l.35.68Zm-.24-1.31h-.29v.42h.29a.21.21,0,1,0,0-.42Z"/><path class="cls-2" d="M20.68,29.69H20V28.1h.64a.44.44,0,0,1,.49.45.37.37,0,0,1-.2.33.36.36,0,0,1,.22.36A.43.43,0,0,1,20.68,29.69Zm-.06-1.31h-.3v.37h.3a.18.18,0,0,0,.21-.19C20.83,28.45,20.76,28.38,20.62,28.38Zm0,.65h-.32v.39h.32a.19.19,0,0,0,.21-.2A.18.18,0,0,0,20.64,29Z"/><path class="cls-2" d="M22.32,29.69,22,29.06h-.22v.63h-.31V28.1h.62a.48.48,0,0,1,.52.49.44.44,0,0,1-.29.42l.35.68Zm-.24-1.31h-.29v.42h.29a.21.21,0,1,0,0-.42Z"/><path class="cls-2" d="M22.94,29.69V28.1h1v.28h-.74v.37h.63V29h-.63v.39H24v.27Z"/><path class="cls-2" d="M24.9,28.38v1.31h-.31V28.38h-.42V28.1h1.14v.28Z"/><path class="cls-2" d="M26.48,29.53a.53.53,0,0,1-.42.18.57.57,0,0,1-.44-.18c-.16-.16-.15-.36-.15-.63s0-.48.15-.64a.6.6,0,0,1,.44-.17.56.56,0,0,1,.42.17c.17.16.16.36.16.64S26.65,29.37,26.48,29.53Zm-.23-1.08a.24.24,0,0,0-.19-.08.29.29,0,0,0-.21.08c-.06.07-.07.14-.07.45s0,.38.07.45a.29.29,0,0,0,.21.08.24.24,0,0,0,.19-.08c.06-.07.08-.15.08-.45S26.31,28.52,26.25,28.45Z"/><path class="cls-2" d="M27.9,29.69l-.63-1v1H27V28.1h.28l.63,1v-1h.31v1.59Z"/><path class="cls-2" d="M28.51,29.69v-.33h.34v.33Z"/><path class="cls-2" d="M29.72,29.71a.55.55,0,0,1-.43-.18.8.8,0,0,1-.16-.63c0-.28,0-.48.16-.64a.58.58,0,0,1,.43-.17.56.56,0,0,1,.58.5H30a.27.27,0,0,0-.27-.22.25.25,0,0,0-.2.08c-.06.07-.08.14-.08.45s0,.38.08.45a.25.25,0,0,0,.2.08A.27.27,0,0,0,30,29.2h.31A.56.56,0,0,1,29.72,29.71Z"/><path class="cls-2" d="M31.53,29.53a.6.6,0,0,1-.86,0c-.16-.16-.15-.36-.15-.63s0-.48.15-.64a.63.63,0,0,1,.86,0c.16.16.16.36.16.64A.8.8,0,0,1,31.53,29.53Zm-.23-1.08a.25.25,0,0,0-.2-.08.28.28,0,0,0-.2.08c-.06.07-.07.14-.07.45s0,.38.07.45a.28.28,0,0,0,.2.08.25.25,0,0,0,.2-.08c.06-.07.08-.15.08-.45S31.36,28.52,31.3,28.45Z"/><path class="cls-2" d="M33.14,29.69v-.92l-.31.6h-.21l-.3-.6v.92H32V28.1h.3l.42.86.41-.86h.31v1.59Z"/><rect class="cls-2" x="7.57" y="28.5" width="2.55" height="0.8"/><rect class="cls-2" x="34.65" y="28.5" width="2.55" height="0.8"/></g></g></svg>