<?xml version="1.0" encoding="utf-8"?>
<!-- Generator: Adobe Illustrator 16.0.0, SVG Export Plug-In . SVG Version: 6.00 Build 0)  -->
<!DOCTYPE svg PUBLIC "-//W3C//DTD SVG 1.1//EN" "http://www.w3.org/Graphics/SVG/1.1/DTD/svg11.dtd">
<svg version="1.1" id="Layer_1" xmlns="http://www.w3.org/2000/svg" xmlns:xlink="http://www.w3.org/1999/xlink" x="0px" y="0px"
	 width="180px" height="180px" viewBox="0 0 180 180" enable-background="new 0 0 180 180" xml:space="preserve">
<g>
	<defs>
		<polygon id="SVGID_1_" points="175.516,136.784 4.843,137.444 4.484,43.213 175.156,42.556 		"/>
	</defs>
	<clipPath id="SVGID_2_">
		<use xlink:href="#SVGID_1_"  overflow="visible"/>
	</clipPath>
	<path clip-path="url(#SVGID_2_)" fill="#FFFFFF" d="M69.25,118.876c-3.976-10.141-12.595-15.957-23.648-15.957
		c-2.613,0-5.294,0.338-7.979,1.006c-0.815-3.347-1.314-7.333-1.55-9.529l-0.055-0.237c-0.434-1.183-1.448-1.889-2.714-1.889
		c-0.867,0-1.771,0.344-2.418,0.92l-0.41,0.366l0.089,0.544c0.228,1.373,0.721,3.267,1.472,5.648
		c-2.175-1.229-5.254-2.16-9.56-1.844c-7.418,0.549-12.742,8.003-12.966,8.32l-0.473,0.672l0.567,0.594
		c0.22,0.23,4.914,5.08,10.92,6.13c-6.913,7.333-8.757,16.814-5.028,26.326c4.094,10.448,13.683,16.939,25.023,16.939
		c0.001,0,0,0,0.001,0c3.931,0,7.876-0.764,11.724-2.271C67.566,148.606,74.877,133.242,69.25,118.876z M51.88,153.685
		c-14.329,5.609-29.788,0.352-35.451-14.104c-4.058-10.351-0.99-20.034,6.331-26.762c-6.69-0.007-12.431-6.02-12.431-6.02
		s5.189-7.378,12.221-7.899c6.079-0.441,9.576,1.711,11.438,3.563c-1.069-3.102-2.079-6.364-2.437-8.527
		c0.991-0.883,2.928-1.067,3.526,0.566c0.252,2.352,0.838,7.04,1.827,10.646c13.178-3.67,26.217,0.838,31.414,14.094
		C73.982,133.702,66.212,148.063,51.88,153.685z"/>
	<g clip-path="url(#SVGID_2_)">
		<path fill="#3CA149" d="M35.078,94.502c0.377,3.527,1.504,12.329,3.619,14.815c0,0,0.426,1.637-1.504,1.75
			c0,0-4.77-11.851-5.642-17.132C32.543,93.053,34.479,92.868,35.078,94.502z"/>
		<path fill="#EE3D2D" d="M16.429,139.581c-5.671-14.467,2.572-27.633,16.9-33.242c14.329-5.614,29.323-1.553,34.99,12.902
			c5.663,14.461-2.107,28.822-16.439,34.443C37.551,159.294,22.092,154.036,16.429,139.581z"/>
		<path fill="#3CA149" d="M23.577,112.808c10.207-0.75,12.226-7.893,12.226-7.893S32.894,98.148,22.55,98.9
			c-7.031,0.521-12.221,7.899-12.221,7.899S16.543,113.331,23.577,112.808z"/>
	</g>
	<g clip-path="url(#SVGID_2_)">
		<g>
			<path fill="#FFFFFF" d="M88.775,53.958c0.353,0,0.711,0.014,1.073,0.043c11.295,0.904,15.836,15.558,15.836,15.558
				s10.479,4.669,11.254,12.76c0.762,8.088-1.701,11.535-1.701,11.535s8.068,4.363,5.354,15.624
				c-1.889,7.828-10.262,9.873-10.262,9.873s1.736,7.346-2.244,12.857c-2.561,3.545-6.071,4.175-8.246,4.175
				c-1.2,0-1.994-0.192-1.994-0.192s2.529,2.967-0.725,10.449c-3.257,7.473-14.417,9.795-14.417,9.795s-10.713-4.156-12.894-12.072
				c-2.182-7.932,0.728-10.434,0.728-10.434s-0.11,0.008-0.311,0.008c-1.318,0-6.513-0.348-9.264-5.635
				c-3.176-6.096-0.439-13.057-0.439-13.057s-5.904-2.631-7.941-10.008c-3.189-11.587,6.625-15.961,6.625-15.961
				s-1.963-3.794-0.078-11.657c1.889-7.861,12.901-10.783,12.901-10.783S78.149,53.958,88.775,53.958 M88.775,52.958
				c-10.158,0-16.257,10.746-17.443,13.04c-2.167,0.659-11.371,3.878-13.175,11.389c-1.444,6.021-0.709,9.804-0.194,11.431
				c-2.433,1.454-9.147,6.506-6.345,16.687c1.699,6.155,5.903,9.185,7.686,10.227c-0.648,2.123-1.944,7.819,0.772,13.034
				c2.359,4.534,6.324,5.758,8.682,6.071c-0.735,1.662-1.312,4.704,0.087,9.793c2.288,8.306,13.04,12.562,13.497,12.739
				c0.116,0.045,0.238,0.067,0.361,0.067c0.068,0,0.137-0.007,0.204-0.021c0.477-0.1,11.705-2.519,15.13-10.375
				c2.069-4.76,1.911-7.887,1.424-9.662c0.121,0.004,0.248,0.006,0.378,0.006c2.145,0,6.172-0.597,9.057-4.589
				c3.39-4.693,2.925-10.51,2.579-12.747c2.339-0.8,8.44-3.504,10.088-10.335c2.318-9.612-2.896-14.602-5.011-16.177
				c0.737-1.557,1.96-5.179,1.382-11.311c-0.74-7.731-9.408-12.398-11.435-13.388c-0.874-2.527-5.713-14.964-16.57-15.833
				C89.545,52.973,89.157,52.958,88.775,52.958L88.775,52.958z"/>
		</g>
		<path fill="#3CA149" d="M115.237,93.854c0,0,2.463-3.447,1.701-11.536c-0.774-8.091-11.254-12.759-11.254-12.759
			S101.144,54.904,89.849,54c-11.285-0.914-17.819,12.835-17.819,12.835s-11.012,2.922-12.9,10.783
			c-1.885,7.862,0.078,11.656,0.078,11.656s-9.815,4.375-6.625,15.962c2.037,7.377,7.942,10.008,7.942,10.008
			s-2.737,6.961,0.439,13.057c3.168,6.089,9.574,5.628,9.574,5.628s-2.909,2.501-0.729,10.434
			c2.182,7.915,12.895,12.072,12.895,12.072s11.16-2.322,14.417-9.795c3.254-7.483,0.725-10.45,0.725-10.45
			s6.266,1.521,10.241-3.981c3.979-5.513,2.243-12.858,2.243-12.858s8.374-2.045,10.263-9.873
			C123.307,98.217,115.237,93.854,115.237,93.854z"/>
		<path fill="#FFFFFF" d="M96.362,111.563c7.779-3.319-5.404,0.656-9.4,0.969c0.347-6.768,1.408-22.262,1.525-24.493
			c0.012-0.228,0.016-0.445,0.034-0.675c1.201-0.373,3.335-1.254,6.263-3.221c5.271-3.559-3.402,0.989-6.127,1.446
			c0.654-15.003-0.072-16.626-0.072-16.626s-0.758,1.504-2.188,16.349c-2.718-1.064-10.402-6.678-5.678-2.315
			c2.372,2.211,4.217,3.394,5.389,4.008c-0.025,0.277-0.044,0.557-0.077,0.846c-0.193,2.213-1.445,17.67-2.04,24.369
			c-4.019-1.09-16.218-6.959-8.979-2.406c3.948,2.48,6.945,3.832,8.68,4.48c-0.138,1.578-4.105,51.652-4.089,53.167
			c0.056,6.674,1.601,7.262,1.601,7.262s1.611-0.332,2.599-6.922c0.22-1.476,2.903-51.568,2.987-53.153
			C88.511,114.34,91.794,113.506,96.362,111.563z"/>
	</g>
	<path clip-path="url(#SVGID_2_)" fill="#FFFFFF" d="M147.526,50.372c3.012,0.777,9.691,2.63,12.057,3.405
		c-2.783,7.428-2.797,11.813-7.488,19.13c5.15-7.118,5.608-11.396,8.858-18.706c1.711,0.562,10.339,3.354,12.046,3.93
		c-3.744,6.611-10.795,16.497-15.674,22.2c1.578,1.723,2.744,3.879,3.471,6.337c1.436,4.833-0.727,9.149-3.41,13.87
		c-3.283,5.774-5.225,11.839-8.836,17.481c-3.166,4.943-7.404,8.938-10.588,13.861c-3.781,5.828-8.658,10.725-13.33,15.535
		c-0.646,0.662-1.279,1.322-1.92,1.994c-0.813,0.854-1.637,1.689-2.443,2.531c-2.77,2.865-5.57,5.627-8.693,7.9
		c-4.541,3.307-9.172,6.221-13.885,8.773c-0.555,0.305-1.104,0.59-1.661,0.885c-3.679,1.908-7.407,3.611-11.193,5.057
		c-1.503,0.575-5.976,1.789-9.479,1.789c-3.261,0-5.681-1.053-4.077-4.652c1.235-2.773,4.426-4.957,6.588-6.871
		c3.63-3.213,7.334-6.406,10.583-10.09c0.828-0.939,1.616-1.906,2.388-2.902c0.189-0.238,0.363-0.486,0.555-0.738
		c1.996-2.625,3.867-5.365,5.771-8.051c3.002-4.246,6.477-7.963,9.363-12.273c2.496-3.717,4.877-7.5,7.094-11.35
		c0.482-0.844,0.932-1.689,1.398-2.529c1.963-3.57,3.781-7.195,5.322-10.9c1.789-4.287,4.719-7.646,6.545-11.804
		c1.623-3.672,1.885-7.971,4.129-11.354c2.838-4.269,8.158-6.607,13.467-6.977C145.474,71.115,147.741,60.832,147.526,50.372
		 M147.526,49.372c-0.223,0-0.442,0.075-0.62,0.216c-0.246,0.194-0.386,0.492-0.38,0.805c0.202,9.838-1.86,19.724-2.869,24.531
		c-5.785,0.592-10.783,3.309-13.474,7.354c-1.42,2.143-2.086,4.588-2.73,6.954c-0.437,1.606-0.85,3.124-1.48,4.55
		c-0.853,1.941-1.941,3.684-3.094,5.527c-1.229,1.967-2.501,4.001-3.459,6.296c-1.389,3.338-3.114,6.871-5.275,10.804
		c-0.176,0.314-0.351,0.635-0.525,0.955c-0.284,0.52-0.568,1.04-0.865,1.56c-2.096,3.64-4.471,7.438-7.056,11.288
		c-1.543,2.304-3.299,4.489-4.998,6.603c-1.455,1.811-2.961,3.684-4.352,5.651c-0.491,0.692-0.981,1.391-1.472,2.089
		c-1.381,1.967-2.81,4.001-4.279,5.934c-0.078,0.104-0.153,0.205-0.228,0.307c-0.104,0.141-0.206,0.279-0.314,0.415
		c-0.826,1.066-1.594,2-2.354,2.863c-2.924,3.314-6.288,6.286-9.542,9.159l-0.954,0.843c-0.443,0.393-0.931,0.797-1.436,1.216
		c-2.03,1.682-4.33,3.589-5.402,5.997c-0.76,1.706-0.792,3.114-0.096,4.188c0.807,1.242,2.518,1.872,5.086,1.872
		c3.734,0,8.318-1.273,9.836-1.855c3.665-1.398,7.466-3.116,11.296-5.103l0.403-0.213c0.428-0.225,0.852-0.448,1.279-0.683
		c4.79-2.595,9.5-5.57,13.992-8.842c3.018-2.197,5.71-4.793,8.823-8.014c0.362-0.378,0.725-0.751,1.088-1.126
		c0.454-0.468,0.909-0.937,1.361-1.411c0.637-0.668,1.268-1.326,1.911-1.985l0.805-0.828c4.439-4.564,9.03-9.284,12.648-14.861
		c1.546-2.391,3.394-4.615,5.18-6.767c1.858-2.238,3.78-4.553,5.411-7.1c2.055-3.21,3.592-6.582,5.079-9.845
		c1.158-2.541,2.356-5.17,3.784-7.682c2.821-4.963,5.032-9.49,3.5-14.648c-0.688-2.328-1.734-4.361-3.114-6.059
		c5.043-6.016,11.75-15.559,15.229-21.701c0.147-0.26,0.171-0.571,0.064-0.85c-0.106-0.278-0.332-0.495-0.614-0.59
		c-1.123-0.379-5.145-1.686-8.376-2.736c-1.671-0.543-3.087-1.003-3.678-1.197c-0.104-0.034-0.209-0.05-0.313-0.05
		c-0.169,0-0.333,0.043-0.479,0.122c-0.12-0.236-0.328-0.415-0.58-0.497c-2.353-0.771-9.016-2.623-12.118-3.423
		C147.693,49.382,147.609,49.372,147.526,49.372L147.526,49.372z"/>
	<g clip-path="url(#SVGID_2_)">
		<g>
			<path fill="#84C244" d="M160.953,54.202c-3.25,7.31-4.341,12.605-9.491,19.723c4.691-7.317,5.338-12.72,8.121-20.148
				c-2.365-0.775-9.045-2.628-12.057-3.405c0.295,13.835-3.787,27.384-3.477,28.188c0.662,1.68,4.08,3.715,6.027,2.832
				c0.383,1.51,1.164,2.834,2.184,3.393c1.764,0.957,15.061-16.635,20.738-26.653C171.292,57.555,162.664,54.764,160.953,54.202z"/>
		</g>
		<g>
			<defs>
				<path id="SVGID_3_" d="M137.962,131.882c-3.781,5.828-8.658,10.725-13.33,15.535c-4.285,4.4-8.303,8.975-13.057,12.426
					c-8.604,6.258-17.513,11.184-26.739,14.715c-2.901,1.111-16.883,4.604-13.556-2.863c1.235-2.773,4.426-4.957,6.588-6.871
					c3.63-3.213,7.334-6.406,10.583-10.09c3.202-3.645,5.907-7.736,8.714-11.691c3.002-4.246,6.48-7.961,9.363-12.273
					c5.338-7.969,10.229-16.166,13.814-24.779c1.789-4.287,4.719-7.646,6.545-11.804c1.623-3.672,1.885-7.971,4.129-11.354
					c4.059-6.089,13.207-8.37,20.133-6.35c4.879,1.424,8.166,5.168,9.646,10.187c1.436,4.833-0.727,9.149-3.41,13.87
					c-3.283,5.774-5.225,11.839-8.836,17.481C145.384,122.964,141.146,126.958,137.962,131.882z"/>
			</defs>
			<clipPath id="SVGID_4_">
				<use xlink:href="#SVGID_3_"  overflow="visible"/>
			</clipPath>
			<path clip-path="url(#SVGID_4_)" fill="#F26C23" d="M137.962,131.882c-3.781,5.828-8.658,10.725-13.33,15.535
				c-4.285,4.4-8.303,8.975-13.057,12.426c-8.604,6.258-17.513,11.184-26.739,14.715c-2.901,1.111-16.883,4.604-13.556-2.863
				c1.235-2.773,4.426-4.957,6.588-6.871c3.63-3.213,7.334-6.406,10.583-10.09c3.202-3.645,5.907-7.736,8.714-11.691
				c3.002-4.246,6.48-7.961,9.363-12.273c5.338-7.969,10.229-16.166,13.814-24.779c1.789-4.287,4.719-7.646,6.545-11.804
				c1.623-3.672,1.885-7.971,4.129-11.354c4.059-6.089,13.207-8.37,20.133-6.35c4.879,1.424,8.166,5.168,9.646,10.187
				c1.436,4.833-0.727,9.149-3.41,13.87c-3.283,5.774-5.225,11.839-8.836,17.481C145.384,122.964,141.146,126.958,137.962,131.882z"
				/>
			<path clip-path="url(#SVGID_4_)" fill="#FFFFFF" d="M118.648,120.999c3.548,1.884,5.467,2.828,9.563,5.271
				c6.866,4.095,9.574,6.294,9.574,6.294s-4.7-2.01-10.304-5.484C121.881,123.608,118.648,120.999,118.648,120.999z"/>
			<path clip-path="url(#SVGID_4_)" fill="#FFFFFF" d="M140.615,104.636c0,0-6.897-3.302-9.642-4.377
				c-1.744-0.685-6.15-2.153-6.15-2.153s3.156,1.64,5.694,2.738C136.122,103.272,140.615,104.636,140.615,104.636z"/>
		</g>
	</g>
</g>
<g>
	<defs>
		
			<rect id="SVGID_5_" x="191.942" y="11.821" transform="matrix(1 -0.0039 0.0039 1 -0.0914 0.8292)" width="44.117" height="24.358"/>
	</defs>
	<clipPath id="SVGID_6_">
		<use xlink:href="#SVGID_5_"  overflow="visible"/>
	</clipPath>
	<path clip-path="url(#SVGID_6_)" fill="#FFFFFF" d="M208.637,31.464c-1.027-2.621-3.256-4.125-6.113-4.125
		c-0.675,0-1.368,0.088-2.063,0.261c-0.21-0.865-0.34-1.896-0.4-2.464l-0.014-0.061c-0.112-0.307-0.375-0.489-0.702-0.489
		c-0.224,0-0.457,0.089-0.625,0.238l-0.105,0.095l0.022,0.141c0.06,0.355,0.187,0.845,0.381,1.46
		c-0.563-0.317-1.358-0.559-2.471-0.477c-1.918,0.142-3.294,2.068-3.352,2.15l-0.122,0.174l0.146,0.153
		c0.057,0.06,1.271,1.313,2.822,1.585c-1.787,1.896-2.264,4.346-1.3,6.805c1.059,2.7,3.537,4.379,6.469,4.379l0,0
		c1.016,0,2.035-0.198,3.03-0.587C208.201,39.148,210.091,35.177,208.637,31.464z M204.146,40.461
		c-3.703,1.45-7.699,0.091-9.163-3.646c-1.049-2.675-0.256-5.178,1.637-6.917c-1.729-0.002-3.214-1.556-3.214-1.556
		s1.342-1.907,3.159-2.042c1.571-0.114,2.476,0.442,2.957,0.921c-0.276-0.802-0.538-1.646-0.63-2.204
		c0.256-0.229,0.757-0.276,0.911,0.146c0.065,0.607,0.217,1.819,0.473,2.751c3.406-0.948,6.776,0.217,8.12,3.644
		C209.859,35.296,207.852,39.008,204.146,40.461z"/>
	<g clip-path="url(#SVGID_6_)">
		<path fill="#3CA149" d="M199.804,25.164c0.098,0.911,0.389,3.187,0.936,3.829c0,0,0.11,0.423-0.389,0.452
			c0,0-1.232-3.063-1.458-4.428C199.148,24.789,199.649,24.741,199.804,25.164z"/>
		<path fill="#EE3D2D" d="M194.983,36.815c-1.466-3.739,0.665-7.143,4.368-8.592c3.704-1.451,7.58-0.401,9.045,3.335
			c1.463,3.737-0.545,7.449-4.25,8.902C200.443,41.911,196.447,40.552,194.983,36.815z"/>
		<path fill="#3CA149" d="M196.831,29.896c2.639-0.194,3.16-2.04,3.16-2.04s-0.752-1.749-3.426-1.555
			c-1.817,0.135-3.159,2.042-3.159,2.042S195.013,30.03,196.831,29.896z"/>
	</g>
	<g clip-path="url(#SVGID_6_)">
		<g>
			<path fill="#FFFFFF" d="M213.684,14.684c0.091,0,0.184,0.004,0.277,0.011c2.92,0.234,4.093,4.021,4.093,4.021
				s2.709,1.207,2.909,3.298c0.197,2.091-0.439,2.982-0.439,2.982s2.085,1.128,1.384,4.038c-0.488,2.023-2.652,2.553-2.652,2.553
				s0.448,1.898-0.58,3.323c-0.662,0.916-1.569,1.079-2.132,1.079c-0.311,0-0.516-0.05-0.516-0.05s0.654,0.767-0.187,2.701
				c-0.842,1.931-3.727,2.531-3.727,2.531s-2.77-1.074-3.333-3.12c-0.564-2.051,0.188-2.697,0.188-2.697s-0.028,0.002-0.08,0.002
				c-0.341,0-1.684-0.09-2.395-1.456c-0.82-1.576-0.113-3.375-0.113-3.375s-1.526-0.68-2.053-2.587
				c-0.824-2.995,1.713-4.126,1.713-4.126s-0.508-0.98-0.021-3.013c0.488-2.032,3.335-2.787,3.335-2.787
				S210.937,14.684,213.684,14.684 M213.684,14.425c-2.626,0-4.202,2.777-4.509,3.371c-0.561,0.17-2.939,1.002-3.405,2.943
				c-0.374,1.556-0.184,2.534-0.051,2.955c-0.629,0.375-2.364,1.682-1.64,4.313c0.439,1.592,1.525,2.374,1.986,2.644
				c-0.167,0.549-0.502,2.021,0.2,3.369c0.609,1.172,1.635,1.488,2.244,1.569c-0.19,0.43-0.34,1.216,0.022,2.531
				c0.591,2.146,3.37,3.247,3.488,3.293c0.03,0.012,0.062,0.018,0.094,0.018c0.018,0,0.035-0.002,0.053-0.006
				c0.123-0.025,3.025-0.65,3.91-2.682c0.535-1.23,0.494-2.038,0.368-2.497c0.031,0.001,0.064,0.001,0.098,0.001
				c0.555,0,1.596-0.153,2.341-1.186c0.876-1.213,0.756-2.717,0.667-3.295c0.604-0.207,2.182-0.906,2.607-2.672
				c0.6-2.484-0.749-3.773-1.295-4.182c0.19-0.402,0.507-1.338,0.357-2.923c-0.191-1.999-2.433-3.205-2.956-3.461
				c-0.226-0.653-1.477-3.867-4.283-4.092C213.883,14.429,213.782,14.425,213.684,14.425L213.684,14.425z"/>
		</g>
		<path fill="#3CA149" d="M220.523,24.996c0,0,0.637-0.892,0.439-2.982c-0.2-2.091-2.909-3.298-2.909-3.298
			s-1.173-3.788-4.093-4.021c-2.917-0.236-4.606,3.317-4.606,3.317s-2.846,0.756-3.334,2.788c-0.487,2.032,0.021,3.013,0.021,3.013
			s-2.537,1.131-1.713,4.126c0.526,1.907,2.053,2.587,2.053,2.587s-0.707,1.799,0.113,3.375c0.819,1.573,2.475,1.454,2.475,1.454
			s-0.752,0.646-0.188,2.697c0.563,2.046,3.333,3.12,3.333,3.12s2.885-0.6,3.727-2.531c0.841-1.935,0.187-2.701,0.187-2.701
			s1.62,0.393,2.647-1.029c1.028-1.425,0.58-3.323,0.58-3.323s2.164-0.529,2.652-2.553
			C222.609,26.124,220.523,24.996,220.523,24.996z"/>
		<path fill="#FFFFFF" d="M215.645,29.573c2.011-0.857-1.396,0.17-2.43,0.251c0.09-1.75,0.364-5.755,0.395-6.332
			c0.003-0.059,0.004-0.114,0.009-0.174c0.311-0.097,0.861-0.324,1.618-0.833c1.363-0.92-0.879,0.256-1.583,0.374
			c0.169-3.878-0.02-4.297-0.02-4.297s-0.195,0.389-0.565,4.226c-0.702-0.275-2.688-1.727-1.468-0.599
			c0.613,0.571,1.091,0.877,1.394,1.036c-0.007,0.071-0.012,0.144-0.021,0.219c-0.05,0.571-0.373,4.567-0.527,6.299
			c-1.038-0.282-4.191-1.799-2.32-0.622c1.021,0.642,1.795,0.99,2.243,1.158c-0.035,0.408-1.062,13.351-1.057,13.742
			c0.014,1.726,0.413,1.877,0.413,1.877s0.417-0.085,0.672-1.789c0.057-0.381,0.751-13.329,0.772-13.738
			C213.615,30.291,214.464,30.076,215.645,29.573z"/>
	</g>
	<path clip-path="url(#SVGID_6_)" fill="#FFFFFF" d="M228.869,13.757c0.778,0.201,2.505,0.68,3.116,0.88
		c-0.719,1.92-0.723,3.054-1.936,4.945c1.332-1.84,1.45-2.945,2.29-4.835c0.442,0.145,2.673,0.866,3.113,1.016
		c-0.968,1.709-2.79,4.264-4.051,5.738c0.408,0.445,0.709,1.002,0.896,1.638c0.371,1.249-0.188,2.365-0.881,3.586
		c-0.849,1.492-1.351,3.06-2.284,4.519c-0.818,1.277-1.914,2.31-2.736,3.582c-0.978,1.507-2.238,2.772-3.446,4.016
		c-0.167,0.172-0.33,0.342-0.496,0.516c-0.21,0.221-0.423,0.437-0.631,0.654c-0.716,0.74-1.44,1.454-2.247,2.042
		c-1.174,0.854-2.371,1.608-3.589,2.268c-0.144,0.079-0.286,0.153-0.43,0.229c-0.951,0.493-1.915,0.933-2.894,1.307
		c-0.389,0.148-1.544,0.463-2.45,0.463c-0.843,0-1.468-0.272-1.054-1.203c0.319-0.717,1.145-1.281,1.703-1.776
		c0.938-0.83,1.896-1.655,2.735-2.607c0.214-0.243,0.418-0.493,0.617-0.75c0.049-0.062,0.094-0.126,0.144-0.191
		c0.516-0.679,0.999-1.387,1.491-2.081c0.776-1.098,1.675-2.058,2.421-3.172c0.645-0.961,1.261-1.938,1.833-2.934
		c0.125-0.219,0.241-0.437,0.361-0.654c0.508-0.923,0.978-1.859,1.376-2.817c0.463-1.108,1.22-1.977,1.692-3.051
		c0.419-0.949,0.486-2.061,1.066-2.936c0.734-1.103,2.109-1.707,3.481-1.803C228.339,19.118,228.925,16.461,228.869,13.757
		 M228.869,13.498c-0.058,0-0.114,0.02-0.16,0.056c-0.063,0.051-0.1,0.127-0.098,0.208c0.052,2.543-0.481,5.099-0.742,6.341
		c-1.495,0.153-2.787,0.855-3.482,1.901c-0.367,0.554-0.539,1.186-0.706,1.797c-0.112,0.416-0.22,0.808-0.383,1.177
		c-0.22,0.502-0.501,0.952-0.8,1.429c-0.317,0.508-0.646,1.034-0.894,1.627c-0.359,0.863-0.805,1.776-1.363,2.793
		c-0.046,0.081-0.091,0.164-0.136,0.247c-0.074,0.134-0.147,0.269-0.224,0.402c-0.542,0.941-1.156,1.923-1.824,2.918
		c-0.398,0.596-0.853,1.16-1.292,1.707c-0.376,0.468-0.766,0.952-1.125,1.461c-0.127,0.179-0.253,0.359-0.38,0.539
		c-0.357,0.509-0.727,1.034-1.106,1.534c-0.02,0.026-0.039,0.053-0.059,0.079c-0.027,0.036-0.054,0.072-0.081,0.107
		c-0.214,0.275-0.412,0.517-0.608,0.74c-0.756,0.856-1.626,1.625-2.467,2.367l-0.247,0.218c-0.114,0.102-0.24,0.206-0.371,0.314
		c-0.524,0.435-1.119,0.928-1.396,1.55c-0.197,0.441-0.205,0.806-0.025,1.083c0.209,0.32,0.651,0.483,1.314,0.483
		c0.966,0,2.15-0.329,2.543-0.479c0.947-0.361,1.93-0.806,2.92-1.318l0.104-0.056c0.111-0.058,0.221-0.115,0.331-0.176
		c1.238-0.671,2.455-1.44,3.616-2.286c0.78-0.567,1.477-1.238,2.281-2.071c0.094-0.098,0.188-0.194,0.281-0.291
		c0.117-0.121,0.234-0.242,0.352-0.364c0.165-0.173,0.328-0.343,0.494-0.514l0.208-0.214c1.147-1.18,2.334-2.399,3.27-3.842
		c0.399-0.617,0.877-1.192,1.339-1.749c0.48-0.578,0.977-1.177,1.398-1.835c0.531-0.829,0.929-1.701,1.313-2.544
		c0.3-0.657,0.609-1.337,0.979-1.986c0.729-1.282,1.301-2.453,0.904-3.786c-0.178-0.602-0.448-1.128-0.805-1.566
		c1.304-1.555,3.037-4.021,3.937-5.609c0.038-0.066,0.044-0.147,0.017-0.22c-0.027-0.071-0.086-0.128-0.159-0.152
		c-0.29-0.098-1.329-0.436-2.165-0.707c-0.432-0.141-0.798-0.26-0.95-0.31c-0.027-0.009-0.054-0.013-0.081-0.013
		c-0.044,0-0.086,0.011-0.124,0.031c-0.03-0.061-0.084-0.107-0.149-0.128c-0.608-0.199-2.33-0.679-3.133-0.885
		C228.912,13.501,228.891,13.498,228.869,13.498L228.869,13.498z"/>
	<g clip-path="url(#SVGID_6_)">
		<g>
			<path fill="#84C244" d="M232.34,14.747c-0.84,1.89-1.122,3.258-2.453,5.098c1.213-1.892,1.38-3.288,2.099-5.208
				c-0.611-0.2-2.338-0.679-3.116-0.88c0.076,3.576-0.979,7.078-0.898,7.286c0.171,0.435,1.055,0.96,1.558,0.732
				c0.1,0.39,0.302,0.732,0.564,0.876c0.456,0.248,3.894-4.299,5.36-6.889C235.013,15.613,232.782,14.892,232.34,14.747z"/>
		</g>
		<g>
			<defs>
				<path id="SVGID_7_" d="M226.397,34.825c-0.978,1.507-2.238,2.772-3.446,4.016c-1.107,1.138-2.146,2.32-3.374,3.212
					c-2.225,1.618-4.527,2.891-6.912,3.804c-0.75,0.287-4.363,1.189-3.504-0.74c0.319-0.717,1.145-1.281,1.703-1.776
					c0.938-0.83,1.896-1.655,2.735-2.607c0.828-0.942,1.527-2,2.252-3.022c0.776-1.098,1.676-2.058,2.421-3.172
					c1.38-2.06,2.644-4.179,3.57-6.405c0.463-1.108,1.22-1.977,1.692-3.051c0.419-0.949,0.486-2.061,1.066-2.936
					c1.05-1.573,3.414-2.163,5.204-1.641c1.262,0.368,2.111,1.336,2.493,2.633c0.371,1.249-0.188,2.365-0.881,3.586
					c-0.849,1.492-1.351,3.06-2.284,4.519C228.315,32.521,227.22,33.553,226.397,34.825z"/>
			</defs>
			<clipPath id="SVGID_8_">
				<use xlink:href="#SVGID_7_"  overflow="visible"/>
			</clipPath>
			<path clip-path="url(#SVGID_8_)" fill="#F26C23" d="M226.397,34.825c-0.978,1.507-2.238,2.772-3.446,4.016
				c-1.107,1.138-2.146,2.32-3.374,3.212c-2.225,1.618-4.527,2.891-6.912,3.804c-0.75,0.287-4.363,1.189-3.504-0.74
				c0.319-0.717,1.145-1.281,1.703-1.776c0.938-0.83,1.896-1.655,2.735-2.607c0.828-0.942,1.527-2,2.252-3.022
				c0.776-1.098,1.676-2.058,2.421-3.172c1.38-2.06,2.644-4.179,3.57-6.405c0.463-1.108,1.22-1.977,1.692-3.051
				c0.419-0.949,0.486-2.061,1.066-2.936c1.05-1.573,3.414-2.163,5.204-1.641c1.262,0.368,2.111,1.336,2.493,2.633
				c0.371,1.249-0.188,2.365-0.881,3.586c-0.849,1.492-1.351,3.06-2.284,4.519C228.315,32.521,227.22,33.553,226.397,34.825z"/>
			<path clip-path="url(#SVGID_8_)" fill="#FFFFFF" d="M221.405,32.013c0.917,0.487,1.413,0.73,2.472,1.362
				c1.774,1.059,2.475,1.627,2.475,1.627s-1.215-0.52-2.663-1.418C222.24,32.688,221.405,32.013,221.405,32.013z"/>
			<path clip-path="url(#SVGID_8_)" fill="#FFFFFF" d="M227.083,27.783c0,0-1.783-0.854-2.492-1.132
				c-0.451-0.177-1.59-0.557-1.59-0.557s0.816,0.424,1.472,0.708C225.922,27.431,227.083,27.783,227.083,27.783z"/>
		</g>
	</g>
</g>
</svg>
