<svg xmlns="http://www.w3.org/2000/svg" viewBox="0 0 43.4 27.76"><defs><style>.cls-1{fill:#fff;}.cls-2{fill:#154997;}</style></defs><g id="Calque_2" data-name="Calque 2"><g id="Layer_1" data-name="Layer 1"><rect class="cls-1" width="43.4" height="27.76"/><path class="cls-2" d="M11.65,10.39A1.7,1.7,0,0,1,9.86,12H7.57V6.66H9.34A1.55,1.55,0,0,1,11,8.05c0,.56-.36.95-.58.95A1.35,1.35,0,0,1,11.65,10.39ZM9.3,7.9H9v.84h.34c.3,0,.54-.15.54-.43S9.6,7.9,9.3,7.9Zm1,2.32c0-.32-.23-.51-.63-.51H9v1h.7C10,10.73,10.29,10.57,10.29,10.22Z"/><path class="cls-2" d="M12.24,10.07V6.66h1.43v3.41a.76.76,0,0,0,.79.74.77.77,0,0,0,.8-.74V6.66h1.43v3.41a2.12,2.12,0,0,1-2.22,2.11A2.13,2.13,0,0,1,12.24,10.07Z"/><path class="cls-2" d="M20.35,12,18.92,9.69V12H17.49V6.66h2a1.84,1.84,0,0,1,2,1.74,1.61,1.61,0,0,1-.93,1.47L22,12ZM18.91,9h.59a.54.54,0,1,0,0-1.08h-.59Z"/><path class="cls-2" d="M27.83,9.47a2.63,2.63,0,0,1-2.76,2.68,2.87,2.87,0,0,1-3-2.8,2.89,2.89,0,0,1,3-2.82A3.11,3.11,0,0,1,27,7.24l-.79,1.08A1.73,1.73,0,0,0,25,7.86a1.49,1.49,0,1,0,.1,3c.65,0,1.11-.31,1.13-.82H25V8.94h2.75A3.27,3.27,0,0,1,27.83,9.47Z"/><path class="cls-2" d="M29.8,8v.75h1.71V9.92H29.8v.77h2.07V12H28.39V6.66h3.48V8Z"/><path class="cls-2" d="M35.54,12,34.1,9.69V12H32.67V6.66h2a1.83,1.83,0,0,1,2,1.74,1.62,1.62,0,0,1-.92,1.47L37.2,12ZM34.09,9h.59a.54.54,0,1,0,0-1.08h-.59Z"/><path class="cls-2" d="M10.28,17.15a1.7,1.7,0,0,1-1.79,1.64H6.2V13.42H8a1.55,1.55,0,0,1,1.68,1.4c0,.55-.36.95-.58.95A1.34,1.34,0,0,1,10.28,17.15ZM7.92,14.66H7.57v.84h.34c.31,0,.55-.15.55-.43S8.23,14.66,7.92,14.66Zm1,2.32c0-.31-.23-.5-.63-.5H7.57v1h.71C8.6,17.49,8.92,17.33,8.92,17Z"/><path class="cls-2" d="M17.33,14.75v.75H19v1.19H17.33v.76H19.4v1.34H15.92V13.42H19.4v1.33Z"/><path class="cls-2" d="M24.2,14.75H22.91v4H21.49v-4H20.2V13.42h4Z"/><path class="cls-2" d="M35.54,13.41v5.43h-.45l-2.76-2.67v2.62H30.9V13.37h.46L34.11,16V13.41Z"/><path class="cls-2" d="M27.39,13.28a2.83,2.83,0,1,0,2.95,2.84A2.84,2.84,0,0,0,27.39,13.28Zm1.1,4.27H26.28a.41.41,0,0,1-.41-.42.27.27,0,0,1,.27-.27h2.49a.28.28,0,0,1,.28.27A.42.42,0,0,1,28.49,17.55Zm-2.62-1.09v-.31A.12.12,0,0,1,26,16h.43l.28.28.83-.28h1.25a.12.12,0,0,1,.12.12v.31a.12.12,0,0,1-.12.12H26A.12.12,0,0,1,25.87,16.46Zm2.76-.71H26.14a.27.27,0,0,1-.27-.27c0-.54.68-1,1.52-1s1.52.43,1.52,1A.28.28,0,0,1,28.63,15.75Z"/><path class="cls-2" d="M13.76,18.79l-1.44-2.33v2.33H10.89V13.42h2a1.84,1.84,0,0,1,2,1.75A1.61,1.61,0,0,1,14,16.64l1.44,2.15Zm-1.45-3h.59a.55.55,0,0,0,.58-.54.55.55,0,0,0-.58-.54h-.59Z"/><path class="cls-2" d="M12,21.87h-.66V20.28H12a.43.43,0,0,1,.49.45.35.35,0,0,1-.2.32.38.38,0,0,1,.22.36A.44.44,0,0,1,12,21.87Zm-.05-1.31h-.3v.36h.3c.13,0,.21-.07.21-.18S12.07,20.56,11.94,20.56Zm0,.64h-.32v.39H12a.19.19,0,0,0,.21-.19A.19.19,0,0,0,12,21.2Z"/><path class="cls-2" d="M13.36,21.88a.55.55,0,0,1-.59-.56v-1h.31v1a.28.28,0,1,0,.56,0v-1h.3v1A.55.55,0,0,1,13.36,21.88Z"/><path class="cls-2" d="M15.13,21.87l-.31-.63H14.6v.63h-.31V20.28h.62a.48.48,0,0,1,.52.49.42.42,0,0,1-.29.41l.35.69Zm-.24-1.31H14.6V21h.29a.21.21,0,0,0,.23-.21A.21.21,0,0,0,14.89,20.56Z"/><path class="cls-2" d="M16.73,21.7a.6.6,0,0,1-.45.18.6.6,0,0,1-.43-.17c-.16-.16-.15-.36-.15-.64s0-.47.15-.63a.58.58,0,0,1,.43-.17.57.57,0,0,1,.6.5h-.31a.27.27,0,0,0-.29-.23.29.29,0,0,0-.2.09c-.06.06-.07.14-.07.44s0,.39.07.45a.29.29,0,0,0,.2.09.3.3,0,0,0,.22-.09.33.33,0,0,0,.08-.22v-.06h-.3V21h.6v.24A.62.62,0,0,1,16.73,21.7Z"/><path class="cls-2" d="M17.2,21.87V20.28h1.05v.28h-.74v.37h.63v.28h-.63v.38h.74v.28Z"/><path class="cls-2" d="M19.39,21.87l-.31-.63h-.22v.63h-.31V20.28h.62a.48.48,0,0,1,.52.49.42.42,0,0,1-.29.41l.35.69Zm-.24-1.31h-.29V21h.29a.21.21,0,0,0,.23-.21A.21.21,0,0,0,19.15,20.56Z"/><path class="cls-2" d="M20.68,21.87H20V20.28h.64a.43.43,0,0,1,.49.45.35.35,0,0,1-.2.32.38.38,0,0,1,.22.36A.44.44,0,0,1,20.68,21.87Zm-.06-1.31h-.3v.36h.3c.14,0,.21-.07.21-.18S20.76,20.56,20.62,20.56Zm0,.64h-.32v.39h.32a.18.18,0,0,0,.21-.19A.19.19,0,0,0,20.64,21.2Z"/><path class="cls-2" d="M22.32,21.87,22,21.24h-.22v.63h-.31V20.28h.62a.48.48,0,0,1,.52.49.42.42,0,0,1-.29.41l.35.69Zm-.24-1.31h-.29V21h.29a.21.21,0,0,0,.23-.21A.21.21,0,0,0,22.08,20.56Z"/><path class="cls-2" d="M22.94,21.87V20.28h1v.28h-.74v.37h.63v.28h-.63v.38H24v.28Z"/><path class="cls-2" d="M24.9,20.56v1.31h-.31V20.56h-.42v-.28h1.14v.28Z"/><path class="cls-2" d="M26.49,21.71a.6.6,0,0,1-.43.17.6.6,0,0,1-.44-.17c-.16-.16-.15-.36-.15-.64s0-.47.15-.63a.6.6,0,0,1,.44-.17.6.6,0,0,1,.43.17c.16.16.15.36.15.63S26.65,21.55,26.49,21.71Zm-.24-1.08a.25.25,0,0,0-.19-.09.29.29,0,0,0-.21.09c-.06.06-.07.14-.07.44s0,.38.07.45a.29.29,0,0,0,.21.09.25.25,0,0,0,.19-.09c.06-.07.08-.14.08-.45S26.31,20.69,26.25,20.63Z"/><path class="cls-2" d="M27.9,21.87l-.63-1v1H27V20.28h.28l.63,1v-1h.31v1.59Z"/><path class="cls-2" d="M28.51,21.87v-.33h.34v.33Z"/><path class="cls-2" d="M29.72,21.88a.58.58,0,0,1-.43-.17c-.16-.16-.16-.36-.16-.64a.8.8,0,0,1,.16-.63.58.58,0,0,1,.43-.17.55.55,0,0,1,.58.5H30a.27.27,0,0,0-.27-.23.25.25,0,0,0-.2.08c-.06.07-.08.15-.08.45s0,.39.08.45a.25.25,0,0,0,.2.09.27.27,0,0,0,.27-.23h.31A.56.56,0,0,1,29.72,21.88Z"/><path class="cls-2" d="M31.53,21.71a.63.63,0,0,1-.86,0c-.16-.16-.15-.36-.15-.64s0-.47.15-.63a.63.63,0,0,1,.86,0,.8.8,0,0,1,.16.63C31.69,21.35,31.69,21.55,31.53,21.71Zm-.23-1.08a.25.25,0,0,0-.2-.09.29.29,0,0,0-.2.09c-.06.06-.07.14-.07.44s0,.38.07.45a.29.29,0,0,0,.2.09.25.25,0,0,0,.2-.09c.06-.07.08-.14.08-.45S31.36,20.69,31.3,20.63Z"/><path class="cls-2" d="M33.14,21.87v-.93l-.31.61h-.21l-.3-.61v.93H32V20.28h.3l.42.86.41-.86h.31v1.59Z"/><rect class="cls-2" x="7.57" y="20.67" width="2.55" height="0.8"/><rect class="cls-2" x="34.65" y="20.67" width="2.55" height="0.8"/></g></g></svg>