<?xml version="1.0" encoding="utf-8"?>
<!-- Generator: Adobe Illustrator 16.0.0, SVG Export Plug-In . SVG Version: 6.00 Build 0)  -->
<!DOCTYPE svg PUBLIC "-//W3C//DTD SVG 1.1//EN" "http://www.w3.org/Graphics/SVG/1.1/DTD/svg11.dtd">
<svg version="1.1" id="Layer_1" xmlns="http://www.w3.org/2000/svg" xmlns:xlink="http://www.w3.org/1999/xlink" x="0px" y="0px"
	 width="850.39px" height="850.394px" viewBox="0 0 850.39 850.394" enable-background="new 0 0 850.39 850.394"
	 xml:space="preserve">
<g>
	<g>
		<path fill="#FFFFFF" d="M621.476,725.366v-7.897h3.113v7.891c0,1.028,0.826,1.715,1.709,1.715c0.875,0,1.727-0.697,1.727-1.715
			v-7.891h3.109v7.897c0,2.847-2.166,4.855-4.83,4.855C623.644,730.222,621.476,728.212,621.476,725.366"/>
		<path fill="#FFFFFF" d="M639.065,729.876l-3.109-5.389v5.389h-3.105v-12.408h4.418c2.512,0,4.313,1.81,4.313,4.033
			c0,1.546-0.879,2.839-2.016,3.393l3.117,4.982H639.065z M635.942,722.917l1.262,0.009c0.654,0.006,1.258-0.484,1.258-1.249
			c0-0.771-0.607-1.245-1.258-1.245h-1.262V722.917z"/>
		<g>
			<path fill="#FFFFFF" d="M572.933,717.481h4.721c2.574,0,4.721,1.932,4.721,4.362c0,2.401-2.1,4.417-4.721,4.417h-1.402v3.667
				h-3.318V717.481L572.933,717.481z M579.173,721.859c0-0.758-0.637-1.328-1.521-1.328h-1.4v2.68l1.4,0.007
				C578.546,723.225,579.173,722.624,579.173,721.859z"/>
			<path fill="#FFFFFF" d="M589.46,728.476h-4.668l-0.637,1.451h-3.627l5.807-12.601h1.572l5.814,12.601h-3.635L589.46,728.476z
				 M588.403,726.059l-1.277-2.948l-1.287,2.948H588.403z"/>
			<path fill="#FFFFFF" d="M601.632,729.927l-3.34-5.404v5.404h-3.318l-0.016-12.446h4.742c2.697,0,4.631,1.814,4.631,4.047
				c0,1.552-0.939,2.849-2.164,3.404l3.35,4.995H601.632L601.632,729.927z M598.274,722.948l1.357,0.008
				c0.705,0.008,1.348-0.486,1.348-1.251c0-0.772-0.65-1.251-1.348-1.251h-1.357V722.948z"/>
		</g>
		<g>
			<path fill="#FFFFFF" d="M620.21,726.09c0,1.961-1.545,3.786-3.877,3.786h-4.965v-12.41h3.826c2.105,0,3.648,1.516,3.648,3.229
				c0,1.276-0.793,2.192-1.27,2.192C618.815,722.887,620.21,724.216,620.21,726.09 M615.097,720.33h-0.754v1.948h0.736
				c0.67,0,1.178-0.356,1.178-0.992C616.257,720.684,615.765,720.33,615.097,720.33 M617.251,725.697
				c0-0.724-0.492-1.162-1.363-1.162l-1.545-0.009v2.354h1.52C616.571,726.881,617.251,726.511,617.251,725.697"/>
		</g>
		<path fill="#FFFFFF" d="M655.261,723.961c0,3.771-2.67,6.211-5.979,6.211c-3.693,0-6.486-2.941-6.486-6.48
			c0-3.542,2.801-6.521,6.412-6.521c1.479,0.021,3.188,0.69,4.146,1.639l-1.709,2.502c-0.646-0.645-1.582-1.061-2.438-1.061
			c-1.736,0-3.256,1.516-3.256,3.432c0,1.74,1.305,3.435,3.453,3.435c1.41,0,2.412-0.726,2.455-1.909h-2.662v-2.456h5.969
			C655.224,723.167,655.261,723.568,655.261,723.961"/>
		<polygon fill="#FFFFFF" points="659.542,720.531 659.542,722.263 663.237,722.263 663.237,725.009 659.542,725.009 
			659.542,726.79 664.032,726.79 664.032,729.876 656.487,729.876 656.487,717.468 664.032,717.468 664.032,720.531 		"/>
		<path fill="#FFFFFF" d="M671.964,729.876l-3.109-5.389v5.389h-3.088v-12.408h4.4c2.512,0,4.313,1.81,4.313,4.033
			c0,1.546-0.877,2.839-2.02,3.393l3.121,4.982H671.964z M668.839,722.917l1.266,0.009c0.654,0.006,1.256-0.484,1.256-1.249
			c0-0.771-0.607-1.245-1.256-1.245h-1.266V722.917z"/>
		<path fill="#FFFFFF" d="M690.583,726.091c0,1.963-1.543,3.787-3.873,3.787h-4.971v-12.41h3.828c2.105,0,3.65,1.52,3.65,3.229
			c0,1.275-0.791,2.192-1.27,2.192C689.19,722.889,690.583,724.218,690.583,726.091 M685.474,720.333h-0.758v1.946h0.736
			c0.672,0,1.178-0.354,1.178-0.991C686.63,720.688,686.138,720.333,685.474,720.333 M687.624,725.7c0-0.726-0.49-1.164-1.361-1.164
			l-1.547-0.006v2.354h1.521C686.946,726.883,687.624,726.515,687.624,725.7"/>
		<polygon fill="#FFFFFF" points="705.86,720.533 705.86,722.267 709.562,722.267 709.562,725.011 705.86,725.011 705.86,726.792 
			710.353,726.792 710.353,729.878 702.81,729.878 702.81,717.47 710.353,717.47 710.353,720.533 		"/>
		<polygon fill="#FFFFFF" points="720.747,720.548 717.96,720.548 717.96,729.878 714.864,729.878 714.864,720.548 712.071,720.548 
			712.071,717.47 720.747,717.47 		"/>
		<polygon fill="#FFFFFF" points="745.325,717.455 745.325,730.002 744.345,730.002 738.358,723.821 738.358,729.885 
			735.269,729.885 735.269,717.347 736.267,717.347 742.228,723.504 742.228,717.455 		"/>
		<path fill="#FFFFFF" d="M727.653,717.145c-3.613,0-6.387,2.826-6.387,6.551c0,3.696,2.762,6.506,6.379,6.506
			c3.623,0,6.396-2.81,6.396-6.506C734.042,719.971,731.269,717.145,727.653,717.145 M730.048,727.008h-4.789
			c-0.494,0-0.896-0.431-0.896-0.958c0-0.351,0.268-0.64,0.602-0.64h5.385c0.33,0,0.596,0.289,0.596,0.64
			C730.942,726.578,730.544,727.008,730.048,727.008 M724.374,724.496v-0.723c0-0.15,0.113-0.277,0.26-0.277h0.926l0.6,0.642
			l1.799-0.642h2.721c0.143,0,0.258,0.127,0.258,0.277v0.723c0,0.15-0.115,0.277-0.258,0.277h-6.045
			C724.487,724.775,724.374,724.647,724.374,724.496 M730.347,722.86h-5.383c-0.33,0-0.602-0.286-0.602-0.641
			c0-1.234,1.475-2.232,3.291-2.232s3.289,0.997,3.289,2.232C730.942,722.574,730.677,722.86,730.347,722.86"/>
		<path fill="#FFFFFF" d="M698.11,729.878l-3.109-5.389v5.389h-3.104V717.47h4.414c2.516,0,4.314,1.81,4.314,4.032
			c0,1.549-0.877,2.843-2.018,3.393l3.119,4.983H698.11L698.11,729.878z M694.985,722.92l1.264,0.007
			c0.656,0.009,1.258-0.484,1.258-1.245c0-0.77-0.607-1.249-1.258-1.249h-1.264V722.92z"/>
	</g>
	<g>
		<g>
			<polygon id="XMLID_1_" fill="#FFFFFF" points="840.348,202.979 50.83,204.28 42.989,298.882 75.664,309.249 41.167,320.9 
				36.005,383.165 68.219,399.132 33.178,417.273 27.532,485.473 51.843,505.314 25.744,507.001 19.686,580.159 90.666,607.877 
				17.533,606.143 10.042,696.521 799.564,695.237 807.698,597.013 772.83,613.163 809.419,576.25 814.684,512.729 782.901,494.505 
				817.402,479.885 823.163,410.431 801.393,401.754 824.838,390.16 831.005,315.735 768.633,303.986 833.053,291.013 			"/>
		</g>
		<g>
			<g enable-background="new    ">
				<path fill="#2075BA" d="M187.201,345.647c-4.947,9.597-14.463,12.535-25.691,12.535l-29.496-58.773v74.641
					c-8.945,6.271-19.412,10.973-30.07,10.973V250.042c5.52-1.568,11.228-2.351,16.938-2.351c11.609,0,18.46,3.526,23.026,10.384
					l31.592,63.278l31.592-63.278c4.567-6.857,11.418-10.384,23.027-10.384c4.947,0,9.895,0.783,14.652,2.351V374.05
					c-9.705,6.271-21.314,10.973-32.921,10.973v-85.614L187.201,345.647z"/>
				<path fill="#2075BA" d="M346.499,374.247c-11.988,8.424-32.162,12.932-46.434,12.932c-20.554,0-42.058-10.384-42.058-32.327
					c0-20.57,17.698-31.347,35.968-31.347c8.181,0,16.175,1.96,23.406,5.685v-7.055c0-11.753-7.992-18.219-19.221-18.219
					c-9.134,0-18.269,3.916-24.359,13.32c-5.9-4.699-9.326-13.711-8.373-20.962c8.754-9.01,22.836-11.362,35.208-11.362
					c24.167,0,45.863,11.754,45.863,38.984V374.247z M317.381,340.941c-4.758-2.153-10.085-2.741-15.036-2.741
					c-8.182,0-15.984,4.506-15.984,14.89c0,10.186,7.614,15.084,15.794,15.084c5.331,0,10.659-1.764,15.225-4.114V340.941z"/>
				<path fill="#2075BA" d="M365.536,298.43c11.229-8.032,29.117-13.517,42.817-13.517c9.896,0,26.453,2.938,26.453,16.065
					c0,8.815-6.661,16.064-14.652,18.024c0-8.228-3.999-13.714-10.47-13.714c-5.327,0-10.274,1.762-14.842,4.898v67.589
					c-8.946,5.68-18.84,7.248-29.307,7.248V298.43z"/>
				<path fill="#2075BA" d="M531.105,357.594c0,20.573-19.222,29.39-38.062,29.39c-29.688,0-48.91-22.139-48.91-51.329
					c0-29.386,21.508-50.741,51.957-50.741c13.698,0,27.786,2.938,33.875,16.065v0.98c0,8.424-3.996,15.476-12.18,19.394
					c-2.285-10.578-8.754-16.26-18.844-16.26c-16.554,0-25.309,14.694-25.309,30.366c0,17.24,11.227,31.148,28.926,31.148
					c11.23,0,21.694-5.092,28.163-12.536C530.915,355.244,530.915,356.813,531.105,357.594z"/>
				<path fill="#2075BA" d="M546.145,251.608c8.564-6.661,19.032-7.64,29.311-7.64v50.35c8.752-5.683,18.455-9.405,27.972-9.405
					c21.124,0,34.636,15.476,34.636,38.399v53.875c-8.183,5.091-16.176,7.835-29.116,7.835v-60.929
					c0-10.774-5.329-18.415-16.368-18.415c-6.469,0-12.18,2.743-17.123,6.664v65.628c-5.521,5.484-18.462,7.052-29.311,7.052
					V251.608z"/>
				<path fill="#2075BA" d="M744.449,360.927c-0.762,18.612-21.694,26.057-38.44,26.057c-31.59,0-52.715-22.335-52.715-51.525
					c0-27.428,19.032-50.545,49.098-50.545c28.168,0,46.054,20.375,46.054,46.039c0,5.682-3.042,10.97-10.656,10.97h-46.815
					c0-9.208,4.758-14.692,11.038-15.869h20.173c-0.379-11.361-6.282-20.962-18.27-20.962c-14.844,0-21.313,15.086-21.313,28.994
					c0,19.005,10.271,33.109,30.635,33.109c10.661,0,22.649-3.722,30.071-11.362C744.263,357.594,744.449,360.927,744.449,360.927z
					 M706.77,272.767c-3.426,2.352-7.422,4.114-11.226,4.114c-4.001,0-8.184-1.567-11.23-3.721l22.649-30.759
					c5.706-0.392,19.602,4.898,23.975,12.146L706.77,272.767z"/>
			</g>
			<g enable-background="new    ">
				<path fill="#08A44D" d="M145.525,532.91l-10.848,31.737c-11.609,1.175-21.694-0.589-31.783-7.443l47.197-120.113
					c9.707-8.229,22.266-8.817,34.066-8.817l52.715,137.158c-27.024,1.961-35.208-3.526-39.203-15.477l-6.281-17.045H145.525z
					 M184.157,510.967l-15.796-45.26l-16.555,47.805c3.426-1.37,7.422-2.545,11.035-2.545H184.157z"/>
				<path fill="#08A44D" d="M370.856,556.615c-8.754,6.269-22.265,9.013-32.734,9.013v-13.908
					c-8.184,10.969-22.074,15.673-35.586,15.673c-37.3,0-60.518-33.895-60.518-71.317c0-43.11,30.256-70.545,73.077-70.545
					c18.46,0,39.394,5.291,47.956,22.73l-0.191,2.351c-0.378,8.822-7.23,16.665-15.605,20.777
					c-3.422-14.307-15.984-20.385-31.207-20.385c-26.453,0-40.917,19.992-40.917,45.268c0,24.1,13.32,45.652,36.73,45.652
					c9.324,0,19.218-3.333,26.261-10.777v-20.179h-32.161c0.949-8.229,3.805-15.48,10.086-21.945h54.808V556.615z"/>
				<path fill="#08A44D" d="M427.005,532.91l-10.847,31.737c-11.61,1.175-21.695-0.589-31.781-7.443l47.195-120.113
					c9.708-8.229,22.266-8.817,34.066-8.817l52.715,137.158c-27.023,1.961-35.208-3.526-39.204-15.477l-6.28-17.045H427.005z
					 M465.638,510.967l-15.797-45.26l-16.555,47.805c3.426-1.37,7.422-2.545,11.035-2.545H465.638z"/>
				<path fill="#08A44D" d="M549.566,453.162h-43.198c1.141-9.411,4.188-18.424,11.226-24.888h108.284
					c-1.331,9.405-4.183,18.418-11.226,24.888h-32.16v101.297c-9.707,6.27-21.507,10.973-32.926,10.973V453.162z"/>
				<path fill="#08A44D" d="M656.149,532.91l-10.848,31.737c-11.609,1.175-21.695-0.589-31.78-7.443l47.194-120.113
					c9.707-8.229,22.266-8.817,34.066-8.817l52.715,137.158c-27.024,1.961-35.207-3.526-39.203-15.477l-6.282-17.045H656.149z
					 M694.782,510.967l-15.798-45.26l-16.553,47.805c3.426-1.37,7.423-2.545,11.033-2.545H694.782z"/>
			</g>
		</g>
	</g>
	<g>
		<defs>
			<polygon id="SVGID_1_" points="582.733,195.773 350.85,195.723 350.882,80.142 582.761,80.194 			"/>
		</defs>
		<clipPath id="SVGID_2_">
			<use xlink:href="#SVGID_1_"  overflow="visible"/>
		</clipPath>
		<g clip-path="url(#SVGID_2_)">
			<g>
				<path fill="#84C245" d="M563.737,97.174c-4.023,8.951-7.113,13.78-13.465,22.485c5.791-8.952,8.531-13.89,11.982-22.987
					c-2.896-0.962-5.787-1.89-8.682-2.795c-2.982,8.894-5.434,13.746-10.689,22.538c3.855-9.423,5.475-14.542,6.973-23.671
					c-3.684-1.11-7.363-2.136-11.057-3.104c0.293,16.971-4.781,33.569-4.402,34.556c0.803,2.064,4.98,4.578,7.377,3.506
					c0.463,1.852,1.414,3.481,2.662,4.17c2.158,1.185,18.555-20.328,25.568-32.587C567.913,98.57,565.831,97.872,563.737,97.174z"/>
				<g>
					<g>
						<defs>
							<path id="SVGID_3_" d="M526.663,189.571c-4.668,7.129-10.672,13.11-16.43,18.986c-5.275,5.377-10.227,10.968-16.074,15.177
								c-10.584,7.631-21.537,13.628-32.872,17.916c-3.566,1.347-20.73,5.56-16.613-3.58c1.527-3.397,5.453-6.058,8.115-8.395
								c4.469-3.921,9.027-7.823,13.031-12.323c3.948-4.454,7.286-9.46,10.747-14.296c3.703-5.195,7.986-9.733,11.547-15.009
								c6.584-9.748,12.625-19.777,17.068-30.324c2.215-5.25,5.822-9.353,8.084-14.445c2.01-4.497,2.352-9.766,5.121-13.906
								c5.01-7.448,16.24-10.2,24.727-7.687c5.979,1.77,9.99,6.379,11.781,12.542c1.734,5.936-0.938,11.219-4.252,16.996
								c-4.057,7.065-6.469,14.495-10.926,21.397C535.813,178.667,530.591,183.546,526.663,189.571z"/>
						</defs>
						<defs>
							<path id="SVGID_4_" d="M526.663,189.571c-4.668,7.129-10.672,13.11-16.43,18.986c-5.275,5.377-10.227,10.968-16.074,15.177
								c-10.584,7.631-21.537,13.628-32.872,17.916c-3.566,1.347-20.73,5.56-16.613-3.58c1.527-3.397,5.453-6.058,8.115-8.395
								c4.469-3.921,9.027-7.823,13.031-12.323c3.948-4.454,7.286-9.46,10.747-14.296c3.703-5.195,7.986-9.733,11.547-15.009
								c6.584-9.748,12.625-19.777,17.068-30.324c2.215-5.25,5.822-9.353,8.084-14.445c2.01-4.497,2.352-9.766,5.121-13.906
								c5.01-7.448,16.24-10.2,24.727-7.687c5.979,1.77,9.99,6.379,11.781,12.542c1.734,5.936-0.938,11.219-4.252,16.996
								c-4.057,7.065-6.469,14.495-10.926,21.397C535.813,178.667,530.591,183.546,526.663,189.571z"/>
						</defs>
						<defs>
							<path id="SVGID_5_" d="M526.663,189.571c-4.668,7.129-10.672,13.11-16.43,18.986c-5.275,5.377-10.227,10.968-16.074,15.177
								c-10.584,7.631-21.537,13.628-32.872,17.916c-3.566,1.347-20.73,5.56-16.613-3.58c1.527-3.397,5.453-6.058,8.115-8.395
								c4.469-3.921,9.027-7.823,13.031-12.323c3.948-4.454,7.286-9.46,10.747-14.296c3.703-5.195,7.986-9.733,11.547-15.009
								c6.584-9.748,12.625-19.777,17.068-30.324c2.215-5.25,5.822-9.353,8.084-14.445c2.01-4.497,2.352-9.766,5.121-13.906
								c5.01-7.448,16.24-10.2,24.727-7.687c5.979,1.77,9.99,6.379,11.781,12.542c1.734,5.936-0.938,11.219-4.252,16.996
								c-4.057,7.065-6.469,14.495-10.926,21.397C535.813,178.667,530.591,183.546,526.663,189.571z"/>
						</defs>
						<defs>
							<path id="SVGID_6_" d="M526.663,189.571c-4.668,7.129-10.672,13.11-16.43,18.986c-5.275,5.377-10.227,10.968-16.074,15.177
								c-10.584,7.631-21.537,13.628-32.872,17.916c-3.566,1.347-20.73,5.56-16.613-3.58c1.527-3.397,5.453-6.058,8.115-8.395
								c4.469-3.921,9.027-7.823,13.031-12.323c3.948-4.454,7.286-9.46,10.747-14.296c3.703-5.195,7.986-9.733,11.547-15.009
								c6.584-9.748,12.625-19.777,17.068-30.324c2.215-5.25,5.822-9.353,8.084-14.445c2.01-4.497,2.352-9.766,5.121-13.906
								c5.01-7.448,16.24-10.2,24.727-7.687c5.979,1.77,9.99,6.379,11.781,12.542c1.734,5.936-0.938,11.219-4.252,16.996
								c-4.057,7.065-6.469,14.495-10.926,21.397C535.813,178.667,530.591,183.546,526.663,189.571z"/>
						</defs>
						<defs>
							<path id="SVGID_7_" d="M526.663,189.571c-4.668,7.129-10.672,13.11-16.43,18.986c-5.275,5.377-10.227,10.968-16.074,15.177
								c-10.584,7.631-21.537,13.628-32.872,17.916c-3.566,1.347-20.73,5.56-16.613-3.58c1.527-3.397,5.453-6.058,8.115-8.395
								c4.469-3.921,9.027-7.823,13.031-12.323c3.948-4.454,7.286-9.46,10.747-14.296c3.703-5.195,7.986-9.733,11.547-15.009
								c6.584-9.748,12.625-19.777,17.068-30.324c2.215-5.25,5.822-9.353,8.084-14.445c2.01-4.497,2.352-9.766,5.121-13.906
								c5.01-7.448,16.24-10.2,24.727-7.687c5.979,1.77,9.99,6.379,11.781,12.542c1.734,5.936-0.938,11.219-4.252,16.996
								c-4.057,7.065-6.469,14.495-10.926,21.397C535.813,178.667,530.591,183.546,526.663,189.571z"/>
						</defs>
						<defs>
							<path id="SVGID_8_" d="M526.663,189.571c-4.668,7.129-10.672,13.11-16.43,18.986c-5.275,5.377-10.227,10.968-16.074,15.177
								c-10.584,7.631-21.537,13.628-32.872,17.916c-3.566,1.347-20.73,5.56-16.613-3.58c1.527-3.397,5.453-6.058,8.115-8.395
								c4.469-3.921,9.027-7.823,13.031-12.323c3.948-4.454,7.286-9.46,10.747-14.296c3.703-5.195,7.986-9.733,11.547-15.009
								c6.584-9.748,12.625-19.777,17.068-30.324c2.215-5.25,5.822-9.353,8.084-14.445c2.01-4.497,2.352-9.766,5.121-13.906
								c5.01-7.448,16.24-10.2,24.727-7.687c5.979,1.77,9.99,6.379,11.781,12.542c1.734,5.936-0.938,11.219-4.252,16.996
								c-4.057,7.065-6.469,14.495-10.926,21.397C535.813,178.667,530.591,183.546,526.663,189.571z"/>
						</defs>
						<defs>
							<path id="SVGID_9_" d="M526.663,189.571c-4.668,7.129-10.672,13.11-16.43,18.986c-5.275,5.377-10.227,10.968-16.074,15.177
								c-10.584,7.631-21.537,13.628-32.872,17.916c-3.566,1.347-20.73,5.56-16.613-3.58c1.527-3.397,5.453-6.058,8.115-8.395
								c4.469-3.921,9.027-7.823,13.031-12.323c3.948-4.454,7.286-9.46,10.747-14.296c3.703-5.195,7.986-9.733,11.547-15.009
								c6.584-9.748,12.625-19.777,17.068-30.324c2.215-5.25,5.822-9.353,8.084-14.445c2.01-4.497,2.352-9.766,5.121-13.906
								c5.01-7.448,16.24-10.2,24.727-7.687c5.979,1.77,9.99,6.379,11.781,12.542c1.734,5.936-0.938,11.219-4.252,16.996
								c-4.057,7.065-6.469,14.495-10.926,21.397C535.813,178.667,530.591,183.546,526.663,189.571z"/>
						</defs>
						<clipPath id="SVGID_10_">
							<use xlink:href="#SVGID_3_"  overflow="visible"/>
						</clipPath>
						<clipPath id="SVGID_11_" clip-path="url(#SVGID_10_)">
							<use xlink:href="#SVGID_4_"  overflow="visible"/>
						</clipPath>
						<clipPath id="SVGID_12_" clip-path="url(#SVGID_11_)">
							<use xlink:href="#SVGID_5_"  overflow="visible"/>
						</clipPath>
						<clipPath id="SVGID_13_" clip-path="url(#SVGID_12_)">
							<use xlink:href="#SVGID_6_"  overflow="visible"/>
						</clipPath>
						<clipPath id="SVGID_14_" clip-path="url(#SVGID_13_)">
							<use xlink:href="#SVGID_7_"  overflow="visible"/>
						</clipPath>
						<clipPath id="SVGID_15_" clip-path="url(#SVGID_14_)">
							<use xlink:href="#SVGID_8_"  overflow="visible"/>
						</clipPath>
						<clipPath id="SVGID_16_" clip-path="url(#SVGID_15_)">
							<use xlink:href="#SVGID_9_"  overflow="visible"/>
						</clipPath>
						<path clip-path="url(#SVGID_16_)" fill="#F26D26" d="M526.663,189.571c-4.668,7.129-10.672,13.11-16.43,18.986
							c-5.275,5.377-10.227,10.968-16.074,15.177c-10.584,7.631-21.537,13.628-32.872,17.916c-3.566,1.347-20.73,5.56-16.613-3.58
							c1.527-3.397,5.453-6.058,8.115-8.395c4.469-3.921,9.027-7.823,13.031-12.323c3.948-4.454,7.286-9.46,10.747-14.296
							c3.703-5.195,7.986-9.733,11.547-15.009c6.584-9.748,12.625-19.777,17.068-30.324c2.215-5.25,5.822-9.353,8.084-14.445
							c2.01-4.497,2.352-9.766,5.121-13.906c5.01-7.448,16.24-10.2,24.727-7.687c5.979,1.77,9.99,6.379,11.781,12.542
							c1.734,5.936-0.938,11.219-4.252,16.996c-4.057,7.065-6.469,14.495-10.926,21.397
							C535.813,178.667,530.591,183.546,526.663,189.571z"/>
						<path clip-path="url(#SVGID_16_)" fill="#FFFFFF" d="M516.681,152.323c4.959,1.415,7.734,1.948,13.127,4.407
							c9.033,4.12,11.861,7.541,11.861,7.541s-7.18-0.376-14.389-4.148C520.079,156.362,516.681,152.323,516.681,152.323z"/>
						<path clip-path="url(#SVGID_16_)" fill="#FFFFFF" d="M468.97,224.946c2.27,2.038,3.621,3.025,5.713,5.797
							c3.504,4.625,3.873,7.328,3.873,7.328s-3.805-2.009-6.496-5.959C469.354,228.155,468.97,224.946,468.97,224.946z"/>
						<path clip-path="url(#SVGID_16_)" fill="#FFFFFF" d="M514.444,181.483c-4.734-3.315-8.008-6.673-12.035-8.623
							c-6.709-3.246-12.27-5.547-12.27-5.547s2.344,3.441,7.346,7.355C505.3,180.798,514.444,181.483,514.444,181.483z"/>
						<path clip-path="url(#SVGID_16_)" fill="#FFFFFF" d="M542.13,140.412c0,0-8.236-4.607-12.033-5.495
							c-2.414-0.567-9.064-0.982-9.064-0.982s3.49,2.62,6.777,3.853C535.056,140.523,542.13,140.412,542.13,140.412z"/>
						<path clip-path="url(#SVGID_16_)" fill="#FFFFFF" d="M489.442,200.452c3.545,4.654,6.703,8.583,12.311,11.848
							c5.602,3.274,13.658,7.556,13.658,7.556s-5.785-8.77-13.576-13.659C494.056,201.297,489.442,200.452,489.442,200.452z"/>
						<path clip-path="url(#SVGID_16_)" fill="#FFFFFF" d="M467.856,212.076c1.197,2.342,2.279,4.336,4.461,6.25
							c2.176,1.907,5.268,4.563,5.268,4.563s-1.787-4.41-4.76-7.274C469.858,212.757,467.856,212.076,467.856,212.076z"/>
					</g>
				</g>
			</g>
			<g>
				<defs>
					<polygon id="SVGID_17_" points="582.733,195.773 350.85,195.723 350.882,80.142 582.761,80.194 					"/>
				</defs>
				<clipPath id="SVGID_18_">
					<use xlink:href="#SVGID_17_"  overflow="visible"/>
				</clipPath>
				<g clip-path="url(#SVGID_18_)">
					<path fill="#FFFFFF" d="M538.802,89.64c3.691,0.968,7.371,1.994,11.055,3.104c-1.498,9.129-3.115,14.248-6.971,23.671
						c5.254-8.792,7.705-13.645,10.688-22.538c2.895,0.905,5.785,1.833,8.682,2.795c-3.451,9.097-6.191,14.035-11.98,22.987
						c6.352-8.705,9.439-13.534,13.463-22.485c2.096,0.698,4.178,1.396,6.271,2.111c-4.627,8.091-13.32,20.182-19.336,27.152
						c1.928,2.121,3.346,4.769,4.227,7.789c1.734,5.936-0.939,11.219-4.254,16.996c-4.057,7.065-6.467,14.495-10.924,21.397
						c-3.906,6.047-9.129,10.927-13.057,16.951c-4.668,7.129-10.672,13.11-16.43,18.986c-0.797,0.808-1.574,1.617-2.363,2.437
						c-1,1.043-2.016,2.064-3.01,3.091c-3.41,3.502-6.859,6.875-10.701,9.648c-5.586,4.033-11.281,7.586-17.076,10.69
						c-0.68,0.372-1.354,0.718-2.041,1.078c-4.52,2.323-9.104,4.393-13.755,6.147c-1.836,0.693-7.275,2.146-11.559,2.146
						c-4.039,0-7.053-1.291-5.055-5.726c1.527-3.397,5.453-6.058,8.115-8.395c4.467-3.921,9.027-7.823,13.029-12.323
						c1.021-1.149,1.993-2.331,2.946-3.549c0.23-0.29,0.445-0.595,0.684-0.902c2.461-3.209,4.77-6.563,7.119-9.845
						c3.703-5.195,7.982-9.736,11.545-15.009c3.08-4.547,6.02-9.176,8.758-13.885c0.592-1.034,1.15-2.067,1.727-3.097
						c2.428-4.371,4.676-8.807,6.586-13.343c2.215-5.25,5.822-9.353,8.084-14.445c2.01-4.497,2.352-9.766,5.121-13.906
						c3.504-5.221,10.041-8.062,16.553-8.488C536.181,115.072,539.011,102.472,538.802,89.64 M538.802,88.64
						c-0.223,0-0.439,0.074-0.617,0.213c-0.246,0.193-0.389,0.49-0.383,0.803c0.197,12.184-2.42,24.391-3.678,30.257l-0.006,0.031
						c-7.098,0.656-13.25,3.938-16.561,8.869c-1.732,2.589-2.557,5.567-3.354,8.446c-0.523,1.891-1.063,3.846-1.852,5.608
						c-1.063,2.392-2.41,4.528-3.836,6.791c-1.514,2.399-3.078,4.88-4.258,7.674c-1.723,4.094-3.861,8.427-6.537,13.246
						c-0.209,0.374-0.418,0.751-0.627,1.129c-0.357,0.651-0.719,1.304-1.094,1.957c-2.598,4.466-5.531,9.118-8.717,13.82
						c-1.908,2.824-4.074,5.498-6.17,8.083c-1.795,2.213-3.648,4.502-5.363,6.906c-0.615,0.86-1.229,1.726-1.842,2.593
						c-1.697,2.394-3.451,4.87-5.256,7.224c-0.104,0.134-0.205,0.271-0.305,0.406c-0.121,0.164-0.242,0.325-0.365,0.481
						c-1.04,1.324-1.989,2.469-2.913,3.508c-3.625,4.076-7.789,7.722-11.816,11.249l-1.125,0.987
						c-0.545,0.477-1.143,0.968-1.773,1.487c-2.479,2.038-5.289,4.347-6.596,7.249c-0.906,2.016-0.959,3.673-0.148,4.924
						c0.949,1.468,3.006,2.212,6.115,2.212c4.533,0,10.08-1.518,11.914-2.21c4.508-1.702,9.171-3.786,13.856-6.193l0.51-0.266
						c0.52-0.271,1.035-0.54,1.555-0.823c5.869-3.146,11.652-6.766,17.182-10.758c3.707-2.676,7.012-5.838,10.834-9.761
						c0.432-0.448,0.867-0.892,1.303-1.337c0.57-0.583,1.145-1.168,1.711-1.76l0.145-0.149c0.736-0.766,1.465-1.521,2.211-2.277
						l0.951-0.971c5.477-5.58,11.137-11.35,15.602-18.169c1.914-2.936,4.197-5.662,6.404-8.298c2.287-2.731,4.65-5.555,6.656-8.659
						c2.525-3.912,4.424-8.033,6.26-12.019c1.436-3.117,2.922-6.34,4.689-9.423c3.459-6.028,6.172-11.525,4.348-17.774
						c-0.846-2.896-2.145-5.418-3.867-7.512c6.215-7.324,14.559-19.084,18.885-26.653c0.148-0.259,0.174-0.57,0.068-0.849
						c-0.105-0.279-0.33-0.497-0.613-0.593c-2.094-0.716-4.18-1.415-6.277-2.114c-0.104-0.035-0.211-0.051-0.314-0.051
						c-0.193,0-0.381,0.056-0.541,0.159c-0.012-0.03-0.023-0.061-0.037-0.09c-0.117-0.246-0.33-0.434-0.588-0.521
						c-2.771-0.92-5.615-1.836-8.699-2.8c-0.1-0.031-0.199-0.045-0.299-0.046c-0.418,0-0.809,0.265-0.947,0.683
						c-1.449,4.321-2.793,7.708-4.348,10.979c1.02-3.471,1.814-7.064,2.564-11.631c0.082-0.496-0.217-0.975-0.697-1.12
						c-3.531-1.065-7.16-2.083-11.09-3.114C538.972,88.651,538.886,88.64,538.802,88.64L538.802,88.64z"/>
				</g>
			</g>
		</g>
		<g clip-path="url(#SVGID_2_)">
			<path fill="#3DA249" d="M498.981,142.811c0,0,3.037-4.216,2.145-14.139c-0.912-9.928-13.74-15.707-13.74-15.707
				s-5.496-17.997-19.346-19.162c-13.839-1.176-21.919,15.654-21.919,15.654s-13.523,3.529-15.879,13.162
				c-2.354,9.636,0.035,14.299,0.035,14.299s-12.06,5.315-8.204,19.543c2.461,9.059,9.688,12.314,9.688,12.314
				s-3.391,8.527,0.475,16.018c3.855,7.483,11.717,6.951,11.717,6.951s-3.582,3.052-0.945,12.792
				c2.635,9.723,15.756,14.871,15.756,14.871s13.7-2.792,17.731-11.938c4.029-9.164,0.941-12.815,0.941-12.815
				s7.676,1.895,12.58-4.833c4.91-6.741,2.814-15.76,2.814-15.76s10.279-2.467,12.637-12.059
				C508.853,148.205,498.981,142.811,498.981,142.811z"/>
			<g>
				<g>
					<path fill="#FFFFFF" d="M466.656,93.744c0.455,0,0.916,0.02,1.384,0.059c13.848,1.165,19.346,19.162,19.346,19.162
						s12.828,5.778,13.74,15.707c0.895,9.923-2.145,14.139-2.145,14.139s9.871,5.394,6.486,19.191
						c-2.355,9.592-12.637,12.059-12.637,12.059s2.096,9.019-2.814,15.76c-3.139,4.303-7.408,5.079-10.078,5.079
						c-1.504,0-2.502-0.246-2.502-0.246s3.088,3.651-0.941,12.815c-4.031,9.146-17.731,11.938-17.731,11.938
						s-13.121-5.147-15.756-14.871c-2.637-9.74,0.945-12.792,0.945-12.792s-0.123,0.008-0.344,0.008
						c-1.553,0-7.998-0.408-11.373-6.959c-3.865-7.491-0.475-16.018-0.475-16.018s-7.228-3.255-9.689-12.314
						c-3.855-14.229,8.205-19.543,8.205-19.543s-2.391-4.663-0.037-14.299c2.355-9.632,15.879-13.162,15.879-13.162
						S453.664,93.744,466.656,93.744 M466.656,92.744c-12.422,0-19.896,13.287-21.232,15.871
						c-2.449,0.723-13.904,4.567-16.154,13.767c-1.848,7.567-0.857,12.215-0.246,14.07c-2.797,1.612-11.325,7.687-7.916,20.271
						c2.085,7.674,7.378,11.362,9.425,12.536c-0.773,2.419-2.533,9.506,0.813,15.992c2.938,5.699,8.105,7.079,10.785,7.404
						c-0.941,1.924-1.84,5.677-0.09,12.142c2.736,10.093,15.801,15.323,16.355,15.54c0.117,0.046,0.242,0.069,0.365,0.069
						c0.066,0,0.135-0.007,0.199-0.02c0.58-0.118,14.257-3.005,18.448-12.515c2.668-6.069,2.344-9.929,1.703-11.996
						c0.256,0.015,0.531,0.023,0.824,0.023c2.57,0,7.404-0.713,10.887-5.49c4.236-5.813,3.566-13.083,3.158-15.643
						c2.684-0.875,10.381-4.077,12.457-12.525c2.918-11.897-3.697-17.971-6.129-19.745c0.883-1.767,2.506-6.192,1.811-13.915
						c-0.869-9.484-11.631-15.22-13.916-16.336c-0.963-2.856-6.771-18.319-20.082-19.439
						C467.636,92.765,467.143,92.744,466.656,92.744L466.656,92.744z"/>
				</g>
			</g>
			<path fill="#FFFFFF" d="M476.796,153.398c9.559-4.033-6.605-1.112-11.509-0.749c0.459-8.3,0.756-14.369,0.912-17.104
				c0.014-0.279,0.02-0.547,0.045-0.828c1.476-0.451,4.097-1.522,7.698-3.919c6.482-4.338-4.15-0.693-7.497-0.147
				c0.879-18.398-0.033-18.501-0.033-18.501s-0.91-0.05-2.74,18.15c-3.328-1.318-12.752-6.353-6.979-0.978
				c2.898,2.723,5.156,4.183,6.592,4.942c-0.033,0.339-0.059,0.681-0.1,1.038c-0.248,2.713-0.779,8.734-1.545,16.947
				c-4.922-1.354-19.883-6.725-11.027-1.104c4.832,3.062,8.5,4.733,10.625,5.541c-0.545,5.96-6.355,73.289-6.338,76.231
				c0.035,8.188,1.93,8.913,1.93,8.913s1.977-0.397,3.221-8.475c0.438-2.867,4.645-70.231,4.986-76.222
				C467.152,156.765,471.183,155.759,476.796,153.398z"/>
			<path fill="#FFFFFF" d="M463.418,178.074c0.016-0.299-3.617-0.656-3.639-0.4c-4.93-1.359-19.889-6.729-11.027-1.12
				c4.828,3.068,8.496,4.738,10.625,5.548c-0.025,0.312,3.777,0.719,3.783,0.455c2.125-0.373,6.147-1.37,11.765-3.727
				C484.491,174.796,468.325,177.716,463.418,178.074z"/>
		</g>
		<g clip-path="url(#SVGID_2_)">
			<path fill="#FFFFFF" d="M442.236,173.356c-4.812-12.423-15.333-19.547-28.866-19.547c-3.211,0-6.505,0.417-9.807,1.242
				c-1.022-4.182-1.63-9.205-1.911-11.947l-0.055-0.239c-0.495-1.364-1.663-2.179-3.124-2.179c-1.004,0-2.051,0.396-2.801,1.059
				l-0.413,0.365l0.087,0.543c0.287,1.783,0.939,4.288,1.945,7.471c-2.648-1.646-6.528-2.964-12.095-2.582
				c-8.995,0.63-15.501,9.662-15.774,10.046l-0.476,0.67l0.565,0.596c0.271,0.287,6.173,6.433,13.66,7.575
				c-8.698,8.937-11.095,20.604-6.55,32.338c4.957,12.804,16.662,20.758,30.547,20.758c0,0,0,0,0,0c4.745,0,9.509-0.912,14.16-2.71
				C440.033,209.566,449.021,190.883,442.236,173.356z M420.969,215.882c-17.603,6.808-36.539,0.283-43.414-17.476
				c-4.926-12.717-1.114-24.58,7.901-32.795c-8.206-0.041-15.218-7.444-15.218-7.444s6.402-9.023,15.028-9.627
				c7.457-0.512,11.736,2.144,14.012,4.423c-1.295-3.808-2.518-7.815-2.944-10.468c1.219-1.077,3.595-1.294,4.323,0.712
				c0.295,2.884,0.993,8.639,2.187,13.067c16.182-4.436,32.152,1.159,38.46,17.445C448.18,191.482,438.576,209.058,420.969,215.882z
				"/>
			<g>
				<path fill="#3DA249" d="M400.658,143.206c0.443,4.327,1.783,15.129,4.363,18.19c0,0,0.514,2.008-1.854,2.139
					c0,0-5.791-14.559-6.833-21.041C397.553,141.417,399.929,141.2,400.658,143.206z"/>
				<path fill="#EE3F2E" d="M377.555,198.406c-6.884-17.773,3.293-33.881,20.897-40.69c17.604-6.813,35.973-1.758,42.852,16.002
					c6.875,17.764-2.729,35.34-20.335,42.164C403.367,222.69,384.43,216.165,377.555,198.406z"/>
				<path fill="#3DA249" d="M386.458,165.6c12.523-0.869,15.035-9.62,15.035-9.62s-3.535-8.312-16.227-7.441
					c-8.626,0.604-15.028,9.627-15.028,9.627S377.829,166.207,386.458,165.6z"/>
			</g>
		</g>
	</g>
</g>
<g>
	<g enable-background="new    ">
		<path fill="#039448" d="M118.681,624.007l-0.037-0.451c0-0.299-0.061-0.737-0.183-1.311c-0.169-0.551-0.4-1.063-0.69-1.538
			c-0.292-0.474-0.742-0.912-1.347-1.313c-0.608-0.349-1.408-0.524-2.405-0.524h-5.826l-2.553,12.482h2.55
			c0.947,0.002,1.747-0.074,2.404-0.224c0.728-0.15,1.311-0.35,1.748-0.599c0.413-0.201,0.788-0.451,1.128-0.751
			c0.316-0.275,0.534-0.525,0.656-0.75c0.098-0.124,0.163-0.23,0.2-0.319c0.037-0.087,0.078-0.168,0.127-0.242l-1.311,6.186
			c0.023-0.101,0.011-0.287-0.037-0.563c-0.098-0.273-0.218-0.524-0.363-0.748c-0.22-0.3-0.499-0.55-0.838-0.751
			c-0.317-0.199-0.815-0.399-1.493-0.6c-0.583-0.15-1.36-0.225-2.331-0.226h-2.55l-2.042,9.972
			c-0.145,0.574-0.157,1.049-0.037,1.424c0.073,0.4,0.22,0.688,0.437,0.863c0.171,0.225,0.376,0.375,0.621,0.449
			c0.217,0.102,0.46,0.176,0.727,0.226l-8.483-0.001c0.266-0.024,0.532-0.101,0.801-0.226c0.266-0.1,0.546-0.262,0.836-0.487
			c0.245-0.174,0.511-0.462,0.802-0.862c0.243-0.374,0.424-0.849,0.547-1.426l4.191-20.242c0.122-0.649,0.134-1.138,0.037-1.463
			c-0.073-0.374-0.218-0.674-0.437-0.9c-0.17-0.173-0.377-0.323-0.62-0.448c-0.122-0.05-0.23-0.081-0.327-0.093
			c-0.098-0.015-0.183-0.032-0.255-0.058c-0.096,0-0.156-0.013-0.182-0.039l17.699,0.005L118.681,624.007z"/>
		<path fill="#039448" d="M131.79,626.858c1.359,0,2.307,0.313,2.84,0.938c0.558,0.625,0.824,1.363,0.801,2.212l-0.329,0.263
			c-0.121,0.101-0.242,0.194-0.364,0.281c-0.122,0.087-0.253,0.192-0.4,0.317c-0.146,0.126-0.297,0.238-0.455,0.338
			c-0.158,0.1-0.31,0.213-0.455,0.337c-0.171,0.126-0.317,0.231-0.437,0.318c-0.122,0.089-0.244,0.169-0.365,0.243
			c-0.17,0.176-0.28,0.265-0.329,0.265c0.292-0.451,0.499-1.037,0.62-1.764c0.074-0.699-0.012-1.324-0.254-1.874
			s-0.741-0.826-1.493-0.826c-1.213,0-2.331,0.339-3.351,1.012c-0.509,0.351-0.976,0.72-1.4,1.106
			c-0.426,0.389-0.808,0.818-1.148,1.294c-0.68,0.926-1.092,1.761-1.239,2.511l-1.676,8.099c-0.123,0.575-0.134,1.012-0.037,1.312
			c0.073,0.325,0.206,0.587,0.4,0.787c0.098,0.101,0.193,0.188,0.291,0.263c0.098,0.076,0.195,0.138,0.293,0.188
			c0.216,0.124,0.448,0.199,0.69,0.225l-8.084-0.001c0.242-0.025,0.497-0.102,0.764-0.225c0.243-0.101,0.498-0.25,0.767-0.451
			c0.266-0.174,0.521-0.45,0.764-0.825c0.243-0.374,0.412-0.824,0.51-1.35l2.443-11.81c0.12-0.624,0.132-1.086,0.036-1.386
			c-0.072-0.351-0.207-0.625-0.4-0.824c-0.098-0.102-0.195-0.189-0.292-0.264s-0.195-0.137-0.291-0.188
			c-0.267-0.099-0.498-0.162-0.691-0.187l5.863,0.001l-1.021,5.099v-0.038c0.048-0.05,0.115-0.145,0.201-0.28
			c0.084-0.138,0.188-0.307,0.309-0.507c0.366-0.549,0.876-1.188,1.529-1.911c0.633-0.7,1.421-1.325,2.369-1.874
			C129.665,627.134,130.673,626.858,131.79,626.858z"/>
		<path fill="#039448" d="M148.065,641.333c-0.218,1.125-0.158,1.9,0.183,2.325c0.315,0.475,0.716,0.75,1.201,0.825
			c0.437,0.101,0.788,0.088,1.055-0.038c-0.169,0.1-0.34,0.182-0.509,0.244c-0.169,0.063-0.353,0.105-0.545,0.131
			c-0.195,0.024-0.372,0.044-0.528,0.056c-0.158,0.012-0.31,0.02-0.456,0.02c-1.65-0.002-2.792-0.277-3.421-0.826
			c-0.657-0.549-0.899-1.287-0.73-2.213l1.24-5.923c-0.049,0.102-0.098,0.205-0.146,0.319c-0.05,0.112-0.097,0.229-0.144,0.354
			c-0.147,0.326-0.311,0.675-0.494,1.052c-0.182,0.374-0.383,0.799-0.6,1.274c-0.244,0.475-0.499,0.937-0.766,1.388
			c-0.267,0.448-0.56,0.912-0.875,1.386c-0.314,0.476-0.649,0.906-1.001,1.293c-0.352,0.389-0.722,0.743-1.11,1.068
			c-0.778,0.648-1.627,0.974-2.55,0.974c-4.201-0.001-6.058-1.188-5.571-3.563c0.268-1.273,1.031-2.299,2.295-3.073
			c1.311-0.825,3.205-1.636,5.681-2.437c0.048-0.023,0.104-0.05,0.165-0.075c0.06-0.023,0.115-0.05,0.164-0.074
			c0.389-0.125,0.776-0.255,1.164-0.393c0.388-0.138,0.791-0.294,1.204-0.469c0.874-0.35,1.603-0.736,2.185-1.163
			c0.632-0.424,1.02-0.961,1.165-1.61l0.146-0.713c0.317-1.574,0.354-2.674,0.11-3.3c-0.29-0.6-0.897-0.899-1.82-0.899
			c-1.141,0-2.161,0.374-3.059,1.125c-0.875,0.724-1.616,1.61-2.222,2.66c-0.56,1.025-0.936,2.001-1.129,2.925
			c0-0.024-0.717-0.812-2.148-2.361l0.072-0.076c0.925-1.424,2.088-2.574,3.497-3.448c1.334-0.824,3.047-1.237,5.135-1.237
			c1.189,0,2.222,0.126,3.096,0.376c0.874,0.251,1.517,0.689,1.929,1.314c0.388,0.625,0.474,1.485,0.255,2.585L148.065,641.333z
			 M138.597,644.63c0.753,0,1.528-0.463,2.331-1.388c0.802-0.948,1.578-2.061,2.333-3.335c0.751-1.3,1.371-2.55,1.857-3.749
			c0.266-0.624,0.479-1.162,0.637-1.612s0.261-0.838,0.31-1.162c-0.559,0.649-1.359,1.212-2.403,1.687
			c-0.511,0.251-1.033,0.482-1.566,0.693c-0.534,0.214-1.08,0.406-1.639,0.579c-1.07,0.326-2.04,0.938-2.915,1.839
			c-0.825,0.875-1.358,1.925-1.602,3.149c-0.194,0.873-0.061,1.637,0.4,2.285C136.726,644.292,137.479,644.63,138.597,644.63z"/>
		<path fill="#039448" d="M156.769,644.708c-1.02,0-1.798-0.301-2.331-0.899c-0.51-0.601-0.692-1.313-0.547-2.137l2.371-11.435
			c0.122-0.625,0.134-1.1,0.037-1.425c-0.074-0.324-0.219-0.625-0.438-0.9c-0.217-0.199-0.449-0.361-0.69-0.486
			c-0.219-0.101-0.461-0.175-0.73-0.226l6.083,0.002l-2.989,14.544c-0.144,0.574-0.158,1.05-0.036,1.424
			c0.073,0.4,0.219,0.688,0.438,0.863c0.169,0.225,0.374,0.374,0.619,0.45c0.218,0.101,0.461,0.175,0.728,0.225H156.769z
			 M163.253,625.964c-0.485-0.523-0.958-0.999-1.419-1.424c-0.414-0.351-0.851-0.682-1.312-0.993
			c-0.461-0.314-0.897-0.469-1.311-0.469c-0.437,0-0.951,0.143-1.547,0.43c-0.596,0.288-1.171,0.606-1.73,0.955
			c-0.632,0.4-1.287,0.852-1.968,1.351l5.829-5.849L163.253,625.964z"/>
		<path fill="#039448" d="M179.311,639.614c-0.267,0.749-0.815,1.562-1.64,2.437c-0.825,0.876-1.881,1.612-3.168,2.211
			c-1.237,0.625-2.718,0.938-4.443,0.938c-2.378,0-4.249-0.852-5.607-2.552c-1.36-1.673-1.723-3.886-1.092-6.636
			c0.753-2.923,2.15-5.184,4.188-6.783c2.064-1.55,4.481-2.325,7.249-2.323c0.583,0,1.055,0.051,1.421,0.149
			c0.217,0.051,0.417,0.107,0.601,0.169c0.182,0.063,0.37,0.119,0.564,0.168c0.534,0.226,1.056,0.338,1.566,0.338
			c0.145,0,0.314-0.037,0.51-0.112c0.145-0.022,0.278-0.087,0.4-0.186c0.047-0.051,0.108-0.095,0.182-0.131
			c0.073-0.038,0.134-0.082,0.182-0.133l-2.624,4.198c-0.023-0.2-0.155-0.65-0.4-1.349c-0.216-0.625-0.654-1.212-1.31-1.762
			c-0.679-0.576-1.65-0.864-2.912-0.865c-1.336,0-2.428,0.425-3.278,1.275c-0.924,0.899-1.591,1.974-2.003,3.225
			c-0.461,1.273-0.73,2.673-0.804,4.198c-0.072,1.449,0.061,2.849,0.4,4.199c0.339,1.324,0.862,2.411,1.565,3.262
			c0.679,0.85,1.566,1.273,2.659,1.273c1.189,0,2.22-0.411,3.096-1.236c0.923-0.8,1.603-1.71,2.041-2.735
			c0.485-1.051,0.69-1.925,0.619-2.625L179.311,639.614z"/>
		<path fill="#039448" d="M198.611,643.291c0.073,0.325,0.206,0.589,0.401,0.79c0.144,0.2,0.557,0.412,1.238,0.636l-2.66-0.001
			c-0.922,0-1.614-0.274-2.075-0.824c-0.487-0.549-0.643-1.25-0.474-2.099l2.188-10.648c0.291-1.448,0.352-2.462,0.182-3.036
			c-0.193-0.575-0.74-0.862-1.638-0.862c-1.166,0-2.185,0.3-3.059,0.899c-0.875,0.624-1.59,1.35-2.15,2.175
			c-0.314,0.424-0.582,0.861-0.801,1.311c-0.219,0.45-0.425,0.888-0.618,1.313c-0.171,0.45-0.316,0.861-0.437,1.237
			c-0.122,0.376-0.208,0.699-0.256,0.974l-1.384,6.637c-0.147,0.55-0.159,1.012-0.037,1.387c0.073,0.4,0.218,0.688,0.438,0.862
			c0.168,0.224,0.605,0.451,1.31,0.675l-8.34-0.002c0.266-0.023,0.534-0.099,0.801-0.224c0.267-0.076,0.546-0.227,0.838-0.45
			c0.243-0.175,0.51-0.463,0.802-0.862c0.242-0.375,0.425-0.851,0.546-1.425l4.556-22.08c0.121-0.623,0.133-1.1,0.038-1.424
			c-0.074-0.351-0.22-0.638-0.438-0.863c-0.121-0.1-0.225-0.187-0.309-0.262c-0.085-0.076-0.187-0.137-0.31-0.189
			c-0.267-0.123-0.522-0.199-0.764-0.224h6.045l-3.209,15.559c0.146-0.375,0.334-0.756,0.567-1.144
			c0.229-0.387,0.49-0.794,0.781-1.218c0.582-0.801,1.335-1.512,2.259-2.136c0.898-0.601,1.989-0.901,3.278-0.901
			c0.849,0,1.723,0.101,2.621,0.301c0.825,0.177,1.494,0.563,2.003,1.164c0.484,0.574,0.619,1.4,0.4,2.474l-2.296,11.134
			C198.527,642.541,198.515,642.991,198.611,643.291z"/>
		<path fill="#039448" d="M212.231,644.681c1.068,0,2.027-0.337,2.877-1.012c0.849-0.725,1.48-1.563,1.893-2.511
			c0.44-1,0.645-1.975,0.62-2.926l2.003,1.389c-0.655,1.675-1.711,2.975-3.168,3.898c-1.457,0.976-3.072,1.462-4.844,1.461
			c-2.792,0-4.856-0.825-6.191-2.474c-1.358-1.651-1.746-3.826-1.164-6.526c0.534-2.723,1.81-4.934,3.826-6.633
			c1.967-1.651,4.298-2.475,6.992-2.475c1.31,0,2.391,0.301,3.242,0.902c0.823,0.625,1.43,1.424,1.819,2.399
			c0.387,0.999,0.643,2.148,0.764,3.448l-13.22,3.598c-0.097,1.148,0.037,2.299,0.4,3.448c0.413,1.125,0.97,2.074,1.674,2.85
			C210.482,644.292,211.307,644.679,212.231,644.681z M212.525,627.848c-1.554,0.424-2.756,1.462-3.605,3.111
			c-0.778,1.625-1.19,3.562-1.24,5.811l10.634-2.921c-0.242-2.177-0.886-3.813-1.929-4.912
			C215.391,627.837,214.104,627.474,212.525,627.848z"/>
		<path fill="#039448" d="M238.888,643.262c0.072,0.376,0.207,0.662,0.401,0.861c0.169,0.201,0.422,0.351,0.764,0.451
			c0.291,0.099,0.474,0.149,0.545,0.149l-3.933-0.001c-0.559,0-0.983-0.199-1.273-0.601c-0.29-0.425-0.388-0.898-0.29-1.425
			l0.691-3.187l-0.072,0.039c-0.025,0.05-0.069,0.144-0.128,0.28c-0.061,0.138-0.14,0.306-0.237,0.506
			c-0.169,0.275-0.365,0.582-0.583,0.918c-0.218,0.339-0.473,0.683-0.765,1.031c-0.291,0.351-0.619,0.695-0.984,1.031
			c-0.363,0.337-0.764,0.645-1.201,0.919c-0.899,0.573-1.894,0.86-2.987,0.86c-0.947,0-1.833-0.111-2.658-0.337
			c-0.801-0.174-1.457-0.562-1.966-1.163c-0.487-0.574-0.619-1.4-0.401-2.474l2.297-11.021c0.098-0.525,0.109-0.977,0.036-1.351
			c-0.122-0.349-0.266-0.638-0.435-0.861c-0.169-0.174-0.377-0.325-0.619-0.451c-0.22-0.099-0.449-0.161-0.693-0.188l5.937,0.001
			l-2.807,13.572c-0.291,1.398-0.353,2.373-0.182,2.923c0.168,0.55,0.716,0.825,1.638,0.825c0.97,0,1.88-0.262,2.731-0.786
			c0.849-0.524,1.577-1.174,2.184-1.949c0.632-0.774,1.13-1.511,1.494-2.213c0.388-0.674,0.62-1.236,0.693-1.686l1.604-7.76
			c0.146-0.524,0.158-0.986,0.037-1.388c-0.074-0.398-0.219-0.687-0.437-0.863c-0.169-0.174-0.376-0.323-0.619-0.449
			c-0.218-0.101-0.461-0.175-0.728-0.226l8.303,0.002c-0.025,0-0.074,0-0.145,0c-0.074,0-0.17,0.014-0.292,0.038
			c-0.243,0.049-0.522,0.163-0.837,0.337c-0.364,0.2-0.681,0.475-0.947,0.824c-0.293,0.375-0.51,0.912-0.657,1.611l-2.442,11.848
			C238.803,642.513,238.792,642.961,238.888,643.262z"/>
		<path fill="#039448" d="M258.047,626.882c1.359,0,2.307,0.313,2.841,0.937c0.557,0.625,0.824,1.364,0.801,2.214l-0.328,0.262
			c-0.121,0.101-0.242,0.194-0.365,0.281c-0.121,0.087-0.253,0.193-0.4,0.317c-0.145,0.126-0.297,0.238-0.454,0.338
			c-0.159,0.102-0.31,0.213-0.457,0.338c-0.171,0.125-0.316,0.231-0.437,0.318c-0.122,0.088-0.244,0.17-0.364,0.244
			c-0.17,0.176-0.28,0.263-0.328,0.263c0.291-0.451,0.496-1.037,0.619-1.763c0.073-0.698-0.013-1.324-0.254-1.874
			c-0.244-0.549-0.741-0.825-1.493-0.825c-1.214-0.001-2.332,0.337-3.35,1.011c-0.511,0.352-0.978,0.72-1.403,1.106
			c-0.424,0.389-0.809,0.818-1.147,1.293c-0.681,0.926-1.094,1.763-1.239,2.512l-1.678,8.098c-0.121,0.574-0.134,1.012-0.036,1.312
			c0.072,0.324,0.206,0.587,0.4,0.787c0.096,0.101,0.194,0.188,0.29,0.264c0.096,0.074,0.194,0.137,0.292,0.187
			c0.218,0.125,0.449,0.201,0.691,0.226l-8.084-0.002c0.244-0.023,0.498-0.101,0.766-0.225c0.243-0.1,0.497-0.25,0.766-0.45
			c0.266-0.174,0.522-0.448,0.764-0.824c0.244-0.374,0.412-0.825,0.51-1.349l2.444-11.811c0.12-0.623,0.132-1.086,0.036-1.386
			c-0.072-0.351-0.206-0.625-0.399-0.825c-0.098-0.1-0.195-0.188-0.292-0.262s-0.194-0.137-0.292-0.189
			c-0.266-0.098-0.498-0.161-0.69-0.186l5.863,0.001l-1.021,5.099v-0.038c0.047-0.05,0.115-0.144,0.2-0.28
			c0.084-0.138,0.188-0.308,0.308-0.507c0.366-0.548,0.875-1.188,1.531-1.912c0.63-0.699,1.421-1.323,2.368-1.874
			C255.922,627.158,256.929,626.882,258.047,626.882z"/>
		<path fill="#039448" d="M299.122,639.899c0.073,0.126,0.14,0.25,0.201,0.375c0.06,0.126,0.128,0.249,0.2,0.375
			c0.194,0.426,0.424,0.837,0.693,1.237c0.266,0.399,0.558,0.8,0.873,1.198c0.655,0.802,1.443,1.165,2.367,1.089
			c-0.778,0.5-1.664,0.751-2.66,0.75c-0.727,0-1.445-0.164-2.146-0.487c-0.729-0.351-1.47-1.013-2.222-1.988
			c-2.356,1.75-4.906,2.623-7.65,2.623c-3.301-0.001-5.728-0.5-7.281-1.501c-1.578-1.025-2.174-2.448-1.784-4.274
			c0.219-1.074,0.814-2.137,1.785-3.188c0.486-0.549,0.996-1.078,1.53-1.591c0.534-0.513,1.08-1.005,1.638-1.481
			c0.583-0.474,1.123-0.899,1.621-1.274c0.498-0.374,0.966-0.699,1.403-0.975c0.024,0,0.036-0.013,0.036-0.038h0.037v-0.036h0.036
			l0.109-0.076c0.291-0.198,0.528-0.349,0.71-0.449c0.182-0.099,0.297-0.174,0.345-0.225l0.037-0.037l-0.873-1.462
			c-1.214-2.275-1.675-4.088-1.383-5.438c0.316-1.524,1.141-2.748,2.478-3.673c1.334-0.924,2.961-1.386,4.88-1.386
			c1.359,0,2.536,0.337,3.532,1.012c0.995,0.701,1.566,1.677,1.711,2.926l-2.876,2.323c0.145-0.474,0.248-0.943,0.309-1.406
			c0.061-0.462,0.091-0.918,0.093-1.367c0-0.901-0.208-1.638-0.62-2.214c-0.438-0.573-1.189-0.861-2.258-0.861
			c-0.898,0-1.698,0.324-2.404,0.974c-0.678,0.701-1.128,1.574-1.347,2.625c-0.146,0.725-0.109,1.488,0.11,2.287
			c0.242,0.824,0.788,1.962,1.637,3.41l0.037,0.038l-0.037,0.039c0.024,0.023,0.042,0.037,0.054,0.037
			c0.012,0,0.032,0.012,0.056,0.036c0.047,0.125,0.119,0.263,0.217,0.412c0.049,0.102,0.096,0.188,0.146,0.262
			c0.048,0.077,0.096,0.151,0.145,0.228c0.072,0.174,0.159,0.299,0.256,0.374l6.079,10.461c1.869-1.6,2.864-3.022,2.986-4.272
			c0.098-1.226-0.545-1.839-1.93-1.839l5.39,0.001l-0.911,1.049c-0.632,0.727-1.408,1.564-2.331,2.513
			C301.224,638.013,300.216,638.975,299.122,639.899z M288.851,644.66c2.623,0,5.05-0.863,7.285-2.587
			c-0.049-0.124-0.146-0.286-0.292-0.485c-0.049-0.102-0.086-0.163-0.109-0.189l-6.515-11.022l-0.256,0.225
			c-0.631,0.498-1.237,1.025-1.82,1.574c-0.584,0.551-1.118,1.148-1.603,1.799c-0.997,1.324-1.616,2.601-1.858,3.824
			c-0.438,2.226-0.208,3.912,0.69,5.061C285.247,644.058,286.74,644.659,288.851,644.66z"/>
		<path fill="#039448" d="M340.309,650.293c0.655,0,1.237-0.263,1.748-0.789c0.485-0.499,0.91-1.137,1.276-1.91
			c0.169-0.376,0.333-0.752,0.491-1.126c0.159-0.375,0.311-0.75,0.456-1.124c0.023-0.102,0.055-0.201,0.091-0.301
			c0.037-0.1,0.079-0.199,0.127-0.3l1.894,3.562c-0.996,0.975-1.869,1.662-2.623,2.063c-0.728,0.425-1.493,0.648-2.295,0.675h-0.364
			c-1.069-0.002-1.979-0.339-2.731-1.014c-0.801-0.674-1.59-1.45-2.368-2.325c-0.8-0.975-1.698-1.787-2.694-2.438
			c-1.018-0.648-1.99-0.587-2.913,0.188c-0.583,0.649-0.91,1.286-0.983,1.911c-0.122,0.725,0.06,1.176,0.545,1.35
			c-0.68-0.174-1.202-0.625-1.566-1.35c-0.193-0.351-0.314-0.706-0.364-1.067c-0.048-0.362-0.037-0.731,0.037-1.105
			c0.024-0.101,0.121-0.301,0.29-0.602c0.171-0.248,0.426-0.475,0.767-0.675c0.339-0.199,0.801-0.3,1.384-0.3
			c0.605,0,1.152,0.088,1.637,0.262c-1.966-1.099-3.375-2.735-4.222-4.91c-0.873-2.175-1.019-4.638-0.438-7.385
			c0.511-2.498,1.519-4.761,3.024-6.785c1.531-2.025,3.339-3.647,5.428-4.874c2.063-1.197,4.225-1.798,6.482-1.797
			c2.234,0,4.151,0.601,5.753,1.8c0.776,0.624,1.449,1.337,2.021,2.138c0.569,0.8,1.024,1.711,1.365,2.735
			c0.678,2.1,0.762,4.362,0.252,6.786c-0.511,2.45-1.53,4.713-3.061,6.787c-1.48,2.022-3.29,3.647-5.425,4.871
			c-2.064,1.225-4.225,1.836-6.483,1.836c-1.312,0-2.514-0.226-3.606-0.675c1.165,0.801,2.223,1.774,3.169,2.925l0.472,0.525
			c0.339,0.349,0.643,0.674,0.911,0.974c0.267,0.3,0.533,0.562,0.802,0.788C339.107,650.065,339.677,650.292,340.309,650.293z
			 M331.644,631.583c-0.947,4.424-0.971,7.723-0.075,9.896c0.899,2.125,2.743,3.189,5.535,3.189c2.744,0,4.966-1.062,6.666-3.188
			c1.698-2.123,3.023-5.42,3.971-9.896c0.899-4.448,0.936-7.733,0.111-9.859c-0.85-2.101-2.634-3.149-5.353-3.149
			c-2.792-0.002-5.075,1.046-6.848,3.146C333.88,623.899,332.544,627.184,331.644,631.583z"/>
		<path fill="#039448" d="M369.371,643.286c0.072,0.376,0.205,0.664,0.4,0.862c0.168,0.202,0.424,0.352,0.764,0.45
			c0.291,0.101,0.474,0.15,0.547,0.15h-3.935c-0.558,0-0.983-0.2-1.274-0.601c-0.292-0.425-0.388-0.9-0.292-1.426l0.694-3.185
			l-0.073,0.038c-0.025,0.05-0.067,0.144-0.127,0.28c-0.061,0.139-0.141,0.307-0.237,0.507c-0.17,0.273-0.365,0.579-0.583,0.916
			c-0.22,0.339-0.473,0.683-0.766,1.031c-0.292,0.351-0.619,0.694-0.983,1.032c-0.365,0.336-0.765,0.644-1.203,0.917
			c-0.898,0.576-1.894,0.862-2.986,0.861c-0.947,0-1.833-0.112-2.658-0.336c-0.801-0.175-1.458-0.563-1.965-1.164
			c-0.487-0.572-0.62-1.398-0.401-2.474l2.297-11.022c0.095-0.524,0.108-0.975,0.035-1.35c-0.122-0.349-0.267-0.636-0.435-0.862
			c-0.171-0.174-0.378-0.323-0.62-0.449c-0.218-0.101-0.448-0.162-0.692-0.188l5.938,0.002l-2.808,13.57
			c-0.293,1.399-0.354,2.375-0.183,2.924c0.168,0.55,0.715,0.824,1.637,0.826c0.973,0,1.882-0.263,2.731-0.786
			c0.852-0.526,1.58-1.175,2.187-1.949c0.63-0.775,1.129-1.513,1.493-2.212c0.388-0.675,0.619-1.238,0.692-1.687l1.603-7.76
			c0.146-0.525,0.159-0.988,0.037-1.388c-0.072-0.4-0.217-0.687-0.437-0.863c-0.169-0.175-0.376-0.323-0.619-0.449
			c-0.219-0.101-0.461-0.174-0.728-0.226l8.302,0.001c-0.025,0-0.072,0-0.144,0c-0.074,0-0.172,0.014-0.293,0.037
			c-0.242,0.052-0.522,0.164-0.838,0.339c-0.364,0.2-0.681,0.476-0.947,0.825c-0.292,0.373-0.511,0.91-0.656,1.609l-2.441,11.848
			C369.286,642.538,369.273,642.987,369.371,643.286z"/>
		<path fill="#039448" d="M389.763,641.378c-0.217,1.125-0.157,1.9,0.184,2.324c0.314,0.475,0.715,0.749,1.201,0.825
			c0.437,0.101,0.789,0.089,1.057-0.036c-0.17,0.099-0.341,0.182-0.509,0.243c-0.172,0.063-0.353,0.105-0.547,0.13
			c-0.195,0.023-0.371,0.044-0.527,0.056c-0.159,0.013-0.31,0.02-0.457,0.02c-1.65,0-2.792-0.275-3.421-0.825
			c-0.657-0.549-0.899-1.287-0.729-2.213l1.239-5.923c-0.049,0.102-0.096,0.206-0.146,0.32c-0.048,0.112-0.096,0.229-0.145,0.354
			c-0.146,0.326-0.309,0.675-0.491,1.051c-0.182,0.374-0.384,0.799-0.602,1.274c-0.244,0.475-0.498,0.937-0.764,1.388
			c-0.269,0.447-0.561,0.91-0.875,1.385c-0.315,0.476-0.65,0.907-1.001,1.294c-0.352,0.388-0.722,0.743-1.111,1.068
			c-0.778,0.649-1.627,0.974-2.55,0.974c-4.2,0-6.057-1.187-5.57-3.563c0.266-1.273,1.031-2.298,2.294-3.073
			c1.312-0.824,3.205-1.636,5.683-2.437c0.047-0.023,0.103-0.05,0.164-0.073c0.061-0.024,0.114-0.052,0.164-0.076
			c0.388-0.124,0.776-0.255,1.165-0.393c0.388-0.139,0.79-0.295,1.202-0.47c0.874-0.349,1.604-0.735,2.186-1.16
			c0.63-0.427,1.02-0.963,1.166-1.612l0.145-0.713c0.316-1.573,0.354-2.673,0.11-3.299c-0.291-0.6-0.897-0.9-1.82-0.9
			c-1.142,0-2.163,0.374-3.061,1.124c-0.874,0.726-1.614,1.612-2.221,2.661c-0.559,1.026-0.935,2.001-1.13,2.925
			c0-0.024-0.715-0.811-2.148-2.362l0.074-0.076c0.922-1.423,2.088-2.572,3.496-3.447c1.335-0.825,3.047-1.237,5.135-1.236
			c1.191,0,2.223,0.126,3.097,0.375c0.873,0.249,1.515,0.688,1.928,1.314c0.388,0.625,0.474,1.486,0.257,2.586L389.763,641.378z
			 M380.295,644.676c0.752,0,1.528-0.463,2.331-1.388c0.801-0.949,1.576-2.063,2.331-3.336c0.751-1.299,1.372-2.549,1.858-3.747
			c0.267-0.625,0.479-1.163,0.636-1.613c0.159-0.449,0.263-0.836,0.312-1.161c-0.56,0.649-1.361,1.212-2.405,1.687
			c-0.509,0.249-1.032,0.48-1.565,0.691c-0.534,0.214-1.082,0.406-1.638,0.581c-1.07,0.326-2.04,0.938-2.915,1.838
			c-0.826,0.874-1.361,1.924-1.603,3.147c-0.195,0.875-0.061,1.639,0.4,2.287C378.424,644.337,379.178,644.676,380.295,644.676z"/>
		<path fill="#039448" d="M399.123,643.217c0.074,0.399,0.219,0.688,0.438,0.863c0.168,0.224,0.376,0.374,0.619,0.449
			c0.219,0.101,0.459,0.175,0.729,0.225h-2.512c-1.021-0.001-1.798-0.301-2.33-0.9c-0.559-0.574-0.742-1.262-0.546-2.062
			l4.556-22.044c0.121-0.649,0.133-1.137,0.037-1.463c-0.122-0.349-0.268-0.637-0.437-0.86c-0.123-0.101-0.225-0.188-0.31-0.264
			s-0.188-0.138-0.311-0.188c-0.266-0.126-0.522-0.198-0.763-0.226l6.045,0.003l-5.177,25.08
			C399.014,642.381,399.001,642.842,399.123,643.217z"/>
		<path fill="#039448" d="M408.299,644.756c-1.019,0-1.798-0.301-2.33-0.899c-0.509-0.602-0.692-1.313-0.546-2.138l2.371-11.435
			c0.12-0.625,0.132-1.1,0.036-1.424c-0.072-0.325-0.219-0.625-0.437-0.9c-0.218-0.199-0.449-0.361-0.692-0.487
			c-0.219-0.101-0.461-0.175-0.729-0.224l6.082,0.001l-2.99,14.544c-0.145,0.573-0.159,1.049-0.036,1.425
			c0.073,0.399,0.22,0.687,0.436,0.862c0.17,0.224,0.376,0.374,0.619,0.449c0.219,0.101,0.462,0.175,0.729,0.227L408.299,644.756z
			 M411.509,618.513c-0.097,0.427-0.092,0.844,0.019,1.258c0.11,0.412,0.29,0.773,0.546,1.087c0.254,0.312,0.558,0.563,0.911,0.748
			c0.351,0.188,0.732,0.283,1.146,0.283c-0.414,0-0.839,0.105-1.276,0.318c-0.437,0.212-0.843,0.48-1.22,0.806
			c-0.377,0.326-0.704,0.688-0.983,1.086c-0.28,0.4-0.456,0.788-0.528,1.162c0.073-0.374,0.056-0.762-0.054-1.162
			c-0.109-0.399-0.286-0.762-0.528-1.088c-0.243-0.324-0.545-0.593-0.912-0.805c-0.364-0.213-0.74-0.319-1.128-0.319
			c0.413,0,0.837-0.094,1.275-0.281c0.438-0.187,0.844-0.443,1.22-0.769c0.376-0.325,0.698-0.686,0.966-1.087
			C411.229,619.352,411.412,618.94,411.509,618.513z"/>
		<path fill="#039448" d="M425.527,627.252l-0.071,0.448l-3.388-0.001l-2.916,13.946c-0.17,0.875-0.151,1.525,0.054,1.951
			c0.207,0.425,0.473,0.712,0.801,0.861c0.328,0.15,0.661,0.212,1.001,0.188c0.339-0.024,0.569-0.075,0.691-0.15
			c-0.338,0.201-0.891,0.343-1.657,0.431c-0.764,0.088-1.517,0.057-2.257-0.094c-0.74-0.15-1.36-0.444-1.855-0.881
			c-0.498-0.438-0.664-1.094-0.493-1.969l2.954-14.283l-3.351-0.002l0.11-0.447c1.067,0,1.971-0.219,2.712-0.656
			c0.741-0.436,1.348-0.975,1.821-1.612c0.475-0.636,0.837-1.306,1.094-2.005c0.254-0.699,0.442-1.312,0.564-1.837
			c0.363-0.074,0.679,0.032,0.948,0.318c0.266,0.288,0.441,0.656,0.527,1.106c0.085,0.449,0.073,0.949-0.037,1.499
			c-0.11,0.55-0.359,1.057-0.747,1.519c-0.388,0.462-0.935,0.855-1.638,1.18c-0.705,0.326-1.603,0.489-2.696,0.489L425.527,627.252z
			"/>
		<path fill="#039448" d="M433.171,644.723c1.068,0,2.028-0.338,2.877-1.013c0.85-0.723,1.481-1.56,1.895-2.509
			c0.437-1,0.644-1.975,0.62-2.926l2.003,1.388c-0.655,1.674-1.713,2.975-3.169,3.899c-1.458,0.974-3.073,1.461-4.846,1.461
			c-2.792-0.002-4.854-0.826-6.189-2.476c-1.36-1.65-1.747-3.824-1.164-6.524c0.535-2.724,1.812-4.935,3.824-6.635
			c1.968-1.649,4.299-2.474,6.992-2.474c1.313,0.001,2.393,0.302,3.242,0.901c0.825,0.625,1.432,1.424,1.82,2.399
			c0.389,1,0.643,2.149,0.764,3.449l-13.218,3.596c-0.099,1.149,0.033,2.3,0.399,3.449c0.41,1.125,0.969,2.074,1.675,2.851
			C431.423,644.336,432.248,644.723,433.171,644.723z M433.466,627.89c-1.554,0.426-2.756,1.463-3.604,3.111
			c-0.778,1.625-1.191,3.561-1.239,5.81l10.634-2.921c-0.245-2.175-0.887-3.812-1.932-4.911
			C436.332,627.878,435.043,627.516,433.466,627.89z M441.698,620.057c-0.487,0.574-1.08,1.176-1.785,1.798
			c-0.704,0.626-1.434,1.219-2.186,1.781s-1.485,1.062-2.204,1.498c-0.718,0.438-1.33,0.731-1.838,0.881
			c0.363-0.273,0.794-0.681,1.29-1.218c0.499-0.537,0.985-1.106,1.458-1.705c0.474-0.6,0.886-1.181,1.24-1.743
			c0.352-0.563,0.563-0.992,0.638-1.293L441.698,620.057z"/>
		<path fill="#039448" d="M477.38,641.394c-0.218,1.126-0.157,1.9,0.183,2.325c0.315,0.476,0.715,0.749,1.201,0.825
			c0.437,0.101,0.788,0.088,1.057-0.038c-0.171,0.102-0.339,0.183-0.51,0.245s-0.352,0.105-0.547,0.13
			c-0.193,0.025-0.369,0.044-0.527,0.057c-0.158,0.012-0.311,0.02-0.456,0.02c-1.65,0-2.792-0.278-3.422-0.826
			c-0.656-0.55-0.898-1.288-0.729-2.212l1.239-5.923c-0.05,0.1-0.098,0.205-0.144,0.317c-0.049,0.112-0.098,0.231-0.147,0.355
			c-0.146,0.326-0.31,0.675-0.492,1.052c-0.182,0.374-0.381,0.799-0.602,1.273c-0.242,0.474-0.497,0.937-0.766,1.388
			c-0.267,0.448-0.557,0.913-0.874,1.387c-0.314,0.476-0.648,0.906-1,1.293c-0.352,0.388-0.724,0.745-1.111,1.069
			c-0.775,0.649-1.628,0.972-2.547,0.972c-4.201,0-6.06-1.188-5.573-3.562c0.266-1.274,1.033-2.298,2.295-3.073
			c1.311-0.825,3.204-1.636,5.682-2.435c0.05-0.025,0.103-0.052,0.164-0.075c0.061-0.025,0.114-0.05,0.163-0.075
			c0.389-0.125,0.776-0.256,1.167-0.394c0.389-0.138,0.788-0.294,1.2-0.468c0.875-0.352,1.602-0.738,2.185-1.164
			c0.633-0.423,1.021-0.96,1.167-1.608l0.146-0.713c0.314-1.575,0.351-2.675,0.109-3.301c-0.292-0.599-0.9-0.9-1.82-0.9
			c-1.143,0-2.162,0.375-3.061,1.126c-0.874,0.724-1.613,1.611-2.222,2.661c-0.56,1.023-0.938,1.998-1.13,2.922
			c0-0.023-0.717-0.812-2.147-2.361l0.073-0.076c0.922-1.425,2.086-2.573,3.495-3.447c1.334-0.824,3.048-1.236,5.136-1.236
			c1.188,0.001,2.221,0.126,3.094,0.375c0.877,0.251,1.52,0.688,1.931,1.313c0.389,0.624,0.475,1.485,0.256,2.586L477.38,641.394z
			 M467.912,644.693c0.752,0.001,1.53-0.462,2.33-1.386c0.801-0.95,1.578-2.063,2.332-3.337c0.752-1.3,1.371-2.549,1.856-3.75
			c0.269-0.625,0.48-1.161,0.638-1.61c0.159-0.45,0.261-0.837,0.309-1.162c-0.559,0.648-1.358,1.211-2.402,1.686
			c-0.508,0.25-1.029,0.482-1.564,0.694s-1.082,0.405-1.641,0.58c-1.066,0.325-2.038,0.936-2.911,1.836
			c-0.828,0.875-1.362,1.925-1.604,3.148c-0.196,0.876-0.062,1.638,0.399,2.288C466.042,644.355,466.794,644.693,467.912,644.693z"
			/>
		<path fill="#039448" d="M498.247,643.312c0.074,0.374,0.208,0.662,0.401,0.86c0.171,0.202,0.424,0.353,0.767,0.45
			c0.29,0.101,0.473,0.15,0.546,0.15h-3.934c-0.56,0-0.984-0.2-1.275-0.601c-0.29-0.425-0.387-0.898-0.29-1.424l0.691-3.187
			l-0.074,0.038c-0.023,0.05-0.064,0.144-0.126,0.28c-0.061,0.138-0.14,0.306-0.237,0.506c-0.171,0.275-0.363,0.582-0.583,0.917
			c-0.217,0.338-0.474,0.682-0.765,1.032c-0.29,0.35-0.619,0.693-0.983,1.03c-0.363,0.337-0.764,0.645-1.201,0.92
			c-0.897,0.574-1.894,0.86-2.987,0.86c-0.946-0.001-1.832-0.113-2.657-0.338c-0.801-0.175-1.458-0.563-1.968-1.163
			c-0.484-0.573-0.617-1.398-0.399-2.474l2.296-11.021c0.099-0.525,0.11-0.975,0.037-1.35c-0.123-0.35-0.269-0.638-0.437-0.862
			c-0.171-0.175-0.376-0.325-0.62-0.45c-0.218-0.1-0.45-0.162-0.69-0.188l5.935,0.001l-2.807,13.57
			c-0.29,1.4-0.351,2.375-0.182,2.924c0.17,0.551,0.717,0.825,1.64,0.826c0.971,0,1.882-0.262,2.731-0.787
			c0.849-0.524,1.575-1.174,2.185-1.948c0.632-0.776,1.13-1.512,1.492-2.212c0.389-0.676,0.62-1.237,0.694-1.687l1.604-7.76
			c0.146-0.525,0.156-0.988,0.037-1.388c-0.074-0.399-0.22-0.688-0.438-0.863c-0.171-0.174-0.378-0.323-0.619-0.449
			c-0.217-0.1-0.461-0.175-0.728-0.226l8.304,0.001c-0.024,0-0.073,0-0.147,0c-0.072,0-0.17,0.013-0.29,0.038
			c-0.243,0.05-0.522,0.164-0.839,0.338c-0.363,0.2-0.68,0.475-0.947,0.825c-0.291,0.375-0.508,0.911-0.655,1.611l-2.442,11.846
			C498.162,642.562,498.15,643.011,498.247,643.312z"/>
		<path fill="#039448" d="M549.742,643.245c0.073,0.4,0.218,0.689,0.437,0.864c0.17,0.224,0.377,0.374,0.62,0.448
			c0.218,0.125,0.449,0.201,0.691,0.226h-2.367c-1.045,0-1.845-0.287-2.405-0.863c-0.531-0.549-0.727-1.224-0.58-2.023l2.224-10.685
			c0.29-1.449,0.352-2.437,0.181-2.963c-0.168-0.549-0.728-0.822-1.675-0.822c-1.188,0-2.27,0.298-3.241,0.896
			c-0.486,0.325-0.934,0.688-1.347,1.089c-0.414,0.4-0.789,0.849-1.128,1.349c-0.633,1-1.082,2.062-1.351,3.187l-1.64,7.947
			c-0.122,0.575-0.122,1.026,0,1.349c0.073,0.4,0.22,0.689,0.437,0.863c0.221,0.224,0.438,0.375,0.657,0.45
			c0.217,0.101,0.461,0.176,0.727,0.226l-2.804-0.001c-0.873,0-1.564-0.3-2.075-0.9c-0.535-0.6-0.729-1.262-0.583-1.986
			l2.224-10.686c0.293-1.448,0.351-2.436,0.183-2.962c-0.146-0.55-0.692-0.823-1.641-0.823c-1.114,0-2.086,0.238-2.911,0.711
			c-0.827,0.476-1.542,1.087-2.15,1.837c-0.604,0.774-1.078,1.537-1.421,2.287c-0.339,0.799-0.559,1.474-0.656,2.023l-1.603,7.611
			c-0.122,0.575-0.122,1.024,0,1.349c0.072,0.375,0.208,0.663,0.402,0.863c0.168,0.224,0.375,0.374,0.617,0.449
			c0.22,0.101,0.461,0.176,0.729,0.226l-8.266-0.002c0.241-0.024,0.494-0.101,0.764-0.225c0.266-0.075,0.547-0.226,0.837-0.449
			c0.29-0.176,0.547-0.464,0.764-0.864c0.245-0.374,0.413-0.822,0.511-1.348l2.442-11.697c0.098-0.525,0.11-1,0.037-1.425
			c-0.074-0.375-0.22-0.65-0.437-0.825c-0.173-0.174-0.377-0.323-0.62-0.449c-0.217-0.101-0.449-0.176-0.691-0.226l5.937,0.002
			l-1.021,5.062c0.122-0.499,0.474-1.201,1.057-2.1c0.532-0.801,1.298-1.562,2.294-2.287c0.97-0.674,2.148-1.013,3.532-1.013
			c0.34,0,0.668,0.015,0.983,0.038c0.314,0.026,0.643,0.063,0.984,0.113c0.679,0.126,1.272,0.313,1.783,0.562
			c0.996,0.652,1.384,1.614,1.165,2.889l-0.437,2.175c0.171-0.851,0.595-1.712,1.275-2.588c0.653-0.85,1.491-1.599,2.512-2.248
			c0.996-0.624,2.111-0.938,3.351-0.938c0.851,0,1.724,0.101,2.623,0.3c0.824,0.177,1.492,0.563,2.003,1.163
			c0.485,0.576,0.617,1.401,0.4,2.475l-2.297,11.021C549.682,642.422,549.67,642.87,549.742,643.245z"/>
		<path fill="#039448" d="M563.472,644.748c1.066,0,2.026-0.336,2.875-1.011c0.853-0.725,1.482-1.562,1.894-2.512
			c0.438-0.999,0.646-1.975,0.623-2.925l2.002,1.388c-0.658,1.674-1.714,2.975-3.169,3.898c-1.457,0.976-3.073,1.461-4.845,1.461
			c-2.792,0-4.854-0.826-6.189-2.475c-1.362-1.65-1.748-3.825-1.164-6.524c0.532-2.724,1.808-4.935,3.823-6.634
			c1.969-1.65,4.296-2.476,6.994-2.474c1.311,0,2.389,0.301,3.241,0.901c0.824,0.625,1.431,1.424,1.82,2.399
			c0.389,1.001,0.642,2.149,0.762,3.449l-13.219,3.597c-0.099,1.149,0.037,2.299,0.399,3.449c0.412,1.125,0.972,2.073,1.675,2.849
			C561.724,644.361,562.549,644.748,563.472,644.748z M563.765,627.916c-1.555,0.425-2.757,1.461-3.605,3.111
			c-0.778,1.624-1.19,3.561-1.239,5.81l10.634-2.923c-0.242-2.174-0.886-3.811-1.928-4.911
			C566.63,627.904,565.344,627.542,563.765,627.916z"/>
		<path fill="#039448" d="M577.965,644.79c-1.021-0.001-1.796-0.302-2.331-0.9c-0.511-0.602-0.69-1.313-0.545-2.138l2.368-11.435
			c0.121-0.625,0.135-1.1,0.037-1.425c-0.074-0.324-0.219-0.625-0.438-0.9c-0.217-0.199-0.449-0.36-0.69-0.486
			c-0.221-0.102-0.461-0.175-0.73-0.226l6.083,0.002l-2.987,14.545c-0.147,0.574-0.159,1.049-0.037,1.425
			c0.071,0.4,0.217,0.688,0.437,0.862c0.17,0.225,0.376,0.375,0.618,0.451c0.219,0.1,0.461,0.174,0.729,0.225H577.965z
			 M581.174,618.546c-0.097,0.427-0.091,0.843,0.02,1.256c0.107,0.412,0.29,0.774,0.544,1.087c0.255,0.313,0.56,0.563,0.911,0.75
			c0.352,0.188,0.735,0.281,1.146,0.281c-0.411,0-0.836,0.105-1.273,0.319c-0.437,0.212-0.845,0.48-1.221,0.805
			c-0.376,0.325-0.705,0.688-0.983,1.088s-0.453,0.786-0.527,1.162c0.074-0.376,0.053-0.763-0.056-1.162
			c-0.107-0.399-0.285-0.763-0.527-1.088c-0.245-0.324-0.548-0.593-0.91-0.805c-0.364-0.214-0.742-0.32-1.13-0.32
			c0.415,0,0.84-0.093,1.276-0.281c0.438-0.186,0.841-0.442,1.22-0.769c0.376-0.325,0.696-0.687,0.964-1.086
			C580.896,619.385,581.077,618.973,581.174,618.546z"/>
		<path fill="#039448" d="M588.526,643.252c0.072,0.4,0.217,0.688,0.436,0.862c0.168,0.225,0.376,0.376,0.62,0.451
			c0.218,0.1,0.46,0.174,0.728,0.225h-2.513c-1.02,0-1.798-0.3-2.332-0.899c-0.557-0.575-0.74-1.262-0.544-2.063l4.558-22.044
			c0.118-0.648,0.131-1.138,0.035-1.463c-0.121-0.349-0.268-0.636-0.437-0.86c-0.122-0.1-0.224-0.188-0.31-0.264
			c-0.085-0.075-0.188-0.138-0.311-0.188c-0.269-0.124-0.521-0.198-0.764-0.225l6.044,0.002l-5.175,25.079
			C588.416,642.417,588.403,642.877,588.526,643.252z"/>
		<path fill="#039448" d="M598.357,643.254c0.072,0.4,0.219,0.688,0.437,0.863c0.171,0.225,0.376,0.375,0.62,0.45
			c0.219,0.101,0.461,0.175,0.727,0.225h-2.512c-1.02-0.001-1.795-0.301-2.33-0.9c-0.559-0.575-0.742-1.262-0.547-2.062
			l4.557-22.044c0.122-0.648,0.135-1.138,0.036-1.462c-0.122-0.35-0.266-0.637-0.436-0.861c-0.123-0.1-0.226-0.188-0.312-0.264
			c-0.084-0.075-0.187-0.137-0.31-0.188c-0.265-0.125-0.522-0.2-0.763-0.225h6.045l-5.177,25.08
			C598.249,642.419,598.235,642.88,598.357,643.254z"/>
		<path fill="#039448" d="M612.122,644.757c1.07,0,2.027-0.337,2.879-1.012c0.849-0.726,1.481-1.561,1.894-2.511
			c0.437-0.998,0.645-1.975,0.619-2.925l2.002,1.388c-0.654,1.675-1.711,2.976-3.168,3.899c-1.458,0.974-3.07,1.46-4.842,1.46
			c-2.793-0.001-4.858-0.826-6.193-2.476c-1.359-1.649-1.747-3.824-1.163-6.523c0.534-2.724,1.811-4.935,3.824-6.636
			c1.967-1.647,4.298-2.473,6.993-2.473c1.311,0,2.392,0.302,3.24,0.901c0.825,0.625,1.433,1.425,1.821,2.399
			c0.388,0.999,0.643,2.149,0.764,3.449l-13.219,3.597c-0.098,1.149,0.034,2.298,0.396,3.448c0.413,1.125,0.974,2.074,1.678,2.85
			C610.375,644.371,611.199,644.757,612.122,644.757z M612.418,627.925c-1.555,0.424-2.756,1.46-3.608,3.11
			c-0.775,1.624-1.19,3.561-1.236,5.81l10.634-2.921c-0.243-2.175-0.886-3.812-1.93-4.912
			C615.28,627.913,613.995,627.549,612.418,627.925z"/>
		<path fill="#039448" d="M638.78,643.337c0.073,0.375,0.207,0.663,0.4,0.862c0.17,0.202,0.425,0.352,0.766,0.45
			c0.292,0.1,0.474,0.149,0.548,0.149h-3.936c-0.559,0-0.983-0.2-1.273-0.601c-0.29-0.425-0.388-0.899-0.29-1.425l0.69-3.186
			l-0.073,0.038c-0.024,0.05-0.066,0.144-0.127,0.28c-0.062,0.138-0.139,0.306-0.237,0.507c-0.171,0.273-0.363,0.58-0.582,0.918
			c-0.219,0.337-0.475,0.681-0.765,1.03c-0.291,0.351-0.619,0.694-0.983,1.031c-0.364,0.336-0.764,0.644-1.201,0.919
			c-0.898,0.574-1.894,0.861-2.987,0.86c-0.946,0-1.832-0.113-2.658-0.337c-0.8-0.175-1.457-0.563-1.968-1.164
			c-0.485-0.572-0.616-1.397-0.399-2.473L626,630.176c0.099-0.525,0.11-0.975,0.037-1.351c-0.122-0.349-0.268-0.636-0.437-0.861
			c-0.171-0.174-0.376-0.324-0.621-0.449c-0.216-0.101-0.448-0.163-0.689-0.188l5.936,0.002l-2.807,13.569
			c-0.291,1.4-0.352,2.376-0.184,2.924c0.171,0.551,0.718,0.825,1.641,0.825c0.972,0.002,1.882-0.262,2.73-0.785
			c0.851-0.525,1.577-1.174,2.185-1.949c0.633-0.775,1.131-1.512,1.494-2.212c0.388-0.675,0.62-1.238,0.694-1.686l1.603-7.761
			c0.146-0.524,0.156-0.987,0.037-1.388c-0.074-0.399-0.221-0.688-0.438-0.862c-0.171-0.175-0.378-0.324-0.619-0.45
			c-0.219-0.099-0.462-0.174-0.729-0.225l8.305,0.001c-0.026,0-0.074,0-0.147,0s-0.171,0.013-0.291,0.038
			c-0.242,0.05-0.521,0.162-0.839,0.338c-0.363,0.199-0.679,0.475-0.947,0.823c-0.29,0.375-0.507,0.912-0.654,1.611l-2.443,11.847
			C638.695,642.589,638.683,643.038,638.78,643.337z"/>
		<path fill="#039448" d="M657.94,626.958c1.356,0,2.304,0.314,2.839,0.938c0.559,0.627,0.824,1.365,0.803,2.215l-0.33,0.261
			c-0.122,0.1-0.242,0.194-0.364,0.281c-0.122,0.088-0.253,0.192-0.399,0.317c-0.146,0.126-0.298,0.238-0.457,0.338
			c-0.155,0.101-0.307,0.212-0.453,0.337c-0.172,0.126-0.315,0.232-0.438,0.318c-0.122,0.088-0.243,0.171-0.363,0.245
			c-0.172,0.175-0.281,0.262-0.33,0.262c0.293-0.451,0.498-1.036,0.621-1.762c0.072-0.7-0.013-1.325-0.255-1.875
			c-0.243-0.549-0.741-0.824-1.494-0.824c-1.215,0-2.33,0.338-3.351,1.012c-0.51,0.35-0.977,0.719-1.4,1.104
			c-0.425,0.388-0.809,0.82-1.148,1.295c-0.681,0.924-1.093,1.762-1.24,2.511l-1.675,8.098c-0.123,0.574-0.134,1.011-0.037,1.313
			c0.073,0.325,0.207,0.587,0.4,0.787c0.098,0.101,0.194,0.188,0.293,0.262c0.096,0.076,0.192,0.139,0.29,0.188
			c0.22,0.125,0.449,0.2,0.691,0.225l-8.085-0.002c0.242-0.023,0.498-0.099,0.765-0.224c0.244-0.1,0.497-0.251,0.767-0.45
			c0.266-0.175,0.522-0.451,0.764-0.825c0.242-0.374,0.412-0.824,0.51-1.35l2.442-11.809c0.12-0.624,0.133-1.087,0.037-1.387
			c-0.072-0.351-0.207-0.625-0.402-0.825c-0.096-0.1-0.192-0.188-0.291-0.263c-0.097-0.074-0.194-0.138-0.289-0.188
			c-0.269-0.099-0.499-0.162-0.693-0.187l5.863,0.002l-1.02,5.099v-0.038c0.051-0.05,0.115-0.144,0.2-0.281
			c0.084-0.138,0.188-0.306,0.312-0.506c0.363-0.55,0.872-1.188,1.526-1.913c0.633-0.699,1.421-1.324,2.367-1.873
			C655.814,627.234,656.823,626.958,657.94,626.958z"/>
		<path fill="#039448" d="M692.936,626.964c1.895,0.001,3.339,0.427,4.335,1.276c1.041,0.875,1.71,2,2.001,3.375
			c0.29,1.399,0.278,2.885-0.037,4.46c-0.195,0.801-0.437,1.569-0.729,2.307c-0.291,0.736-0.669,1.455-1.13,2.154
			c-0.874,1.374-2.014,2.487-3.422,3.337c-1.408,0.848-3.049,1.272-4.915,1.272c-1.409,0-2.454-0.525-3.136-1.575
			c-0.727-1.1-1.102-2.373-1.127-3.823l-2.113,10.16c-0.098,0.524-0.109,0.975-0.037,1.35c0.074,0.374,0.205,0.662,0.401,0.861
			c0.168,0.226,0.362,0.389,0.581,0.487c0.097,0.051,0.207,0.087,0.328,0.112c0.12,0.025,0.242,0.051,0.364,0.074l-8.012-0.001
			c0.048,0,0.104-0.006,0.162-0.018c0.062-0.014,0.154-0.032,0.273-0.056c0.195-0.026,0.462-0.15,0.804-0.375
			c0.266-0.177,0.546-0.451,0.836-0.825c0.293-0.375,0.486-0.863,0.585-1.462l4.156-19.869c0.217-0.999,0.143-1.698-0.221-2.099
			c-0.339-0.375-0.85-0.625-1.53-0.75l5.829,0.001l-0.768,3.785c-0.51,2.249-0.872,3.949-1.093,5.099
			c0.122-0.499,0.257-1.006,0.401-1.518c0.146-0.513,0.313-1.044,0.509-1.595c0.391-1.023,0.901-2.022,1.532-2.996
			c0.606-0.926,1.333-1.688,2.187-2.288C690.846,627.252,691.843,626.964,692.936,626.964z M688.964,644.735
			c1.7,0,3.06-0.7,4.078-2.1c1.043-1.373,1.883-3.56,2.515-6.56c0.583-2.974,0.693-5.173,0.33-6.598
			c-0.415-1.399-1.446-2.101-3.098-2.102c-1.287,0-2.414,0.488-3.385,1.463c-0.486,0.499-0.931,1.044-1.331,1.631
			s-0.759,1.206-1.074,1.854c-0.339,0.649-0.607,1.292-0.803,1.93c-0.192,0.639-0.352,1.244-0.473,1.818
			c-0.535,2.924-0.45,5.099,0.253,6.524C686.706,644.022,687.7,644.735,688.964,644.735z"/>
		<path fill="#039448" d="M715.515,626.969c1.356,0,2.303,0.314,2.838,0.937c0.559,0.625,0.825,1.365,0.803,2.215l-0.329,0.261
			c-0.123,0.1-0.24,0.194-0.362,0.28c-0.123,0.088-0.255,0.195-0.401,0.318c-0.146,0.125-0.298,0.238-0.456,0.339
			c-0.156,0.101-0.308,0.213-0.454,0.337c-0.17,0.124-0.314,0.231-0.438,0.318c-0.122,0.088-0.244,0.169-0.363,0.244
			c-0.17,0.176-0.281,0.262-0.329,0.262c0.292-0.45,0.497-1.036,0.62-1.763c0.072-0.698-0.013-1.323-0.255-1.873
			c-0.243-0.55-0.741-0.825-1.493-0.825c-1.216,0-2.331,0.336-3.351,1.011c-0.511,0.351-0.977,0.719-1.401,1.105
			c-0.425,0.39-0.809,0.819-1.146,1.294c-0.682,0.925-1.094,1.763-1.24,2.512l-1.678,8.097c-0.122,0.575-0.134,1.013-0.036,1.313
			c0.073,0.324,0.207,0.588,0.4,0.788c0.098,0.101,0.194,0.188,0.293,0.264c0.095,0.075,0.192,0.137,0.29,0.187
			c0.22,0.124,0.449,0.201,0.69,0.226l-8.083-0.003c0.241-0.022,0.497-0.1,0.763-0.224c0.245-0.1,0.499-0.25,0.768-0.45
			c0.267-0.175,0.522-0.45,0.764-0.824c0.242-0.376,0.412-0.826,0.511-1.351l2.443-11.81c0.119-0.623,0.131-1.086,0.036-1.387
			c-0.073-0.351-0.207-0.625-0.403-0.825c-0.095-0.099-0.192-0.187-0.29-0.262c-0.098-0.074-0.195-0.136-0.29-0.188
			c-0.269-0.098-0.498-0.161-0.693-0.186l5.862,0.001l-1.018,5.098v-0.037c0.049-0.051,0.115-0.145,0.2-0.28
			c0.083-0.139,0.188-0.308,0.31-0.507c0.364-0.549,0.874-1.188,1.528-1.912c0.631-0.698,1.421-1.323,2.368-1.875
			C713.388,627.246,714.396,626.969,715.515,626.969z"/>
		<path fill="#039448" d="M722.758,644.816c-1.02,0-1.799-0.301-2.33-0.9c-0.511-0.6-0.693-1.312-0.547-2.137l2.37-11.435
			c0.121-0.625,0.132-1.1,0.036-1.425c-0.073-0.323-0.219-0.624-0.438-0.899c-0.219-0.199-0.448-0.361-0.692-0.487
			c-0.217-0.101-0.461-0.175-0.727-0.224l6.081,0.001l-2.989,14.544c-0.146,0.574-0.159,1.049-0.037,1.425
			c0.073,0.399,0.22,0.687,0.438,0.863c0.171,0.224,0.376,0.373,0.619,0.448c0.219,0.102,0.462,0.175,0.729,0.226H722.758z
			 M725.968,618.574c-0.098,0.425-0.093,0.842,0.018,1.255c0.107,0.413,0.291,0.776,0.547,1.089
			c0.254,0.313,0.556,0.563,0.909,0.749c0.353,0.188,0.733,0.282,1.148,0.282c-0.415,0-0.84,0.105-1.277,0.318
			c-0.437,0.212-0.842,0.481-1.22,0.806c-0.377,0.325-0.703,0.688-0.981,1.086c-0.281,0.4-0.457,0.787-0.53,1.163
			c0.073-0.376,0.058-0.763-0.053-1.163c-0.11-0.398-0.286-0.762-0.528-1.088c-0.242-0.323-0.545-0.593-0.91-0.806
			c-0.365-0.212-0.742-0.317-1.13-0.317c0.412,0,0.838-0.095,1.273-0.281c0.438-0.188,0.846-0.445,1.221-0.769
			c0.376-0.325,0.698-0.688,0.967-1.086C725.688,619.412,725.87,618.999,725.968,618.574z"/>
		<path fill="#039448" d="M742.641,643.808c0.315,0.324,0.62,0.536,0.91,0.637c0.241,0.126,0.583,0.251,1.021,0.375h0.037
			l-2.657-0.038c-1.314,0-2.285-0.211-2.916-0.638c-0.656-0.425-1.068-0.889-1.236-1.389l-2.259-5.247l-5.391,5.283
			c-0.122,0.151-0.226,0.288-0.311,0.413c-0.086,0.126-0.151,0.251-0.199,0.375c-0.122,0.227-0.157,0.413-0.108,0.563
			c0,0.149,0.058,0.263,0.181,0.339c0.098,0.124,0.207,0.198,0.327,0.224c0.146,0.05,0.281,0.088,0.403,0.113h-4.625
			c0.653-0.176,1.236-0.4,1.747-0.676c0.534-0.248,1.067-0.638,1.601-1.161l6.122-5.998l-3.096-7.311
			c-0.342-0.701-0.741-1.226-1.202-1.575c-0.39-0.301-0.789-0.513-1.201-0.637l-0.4-0.114c-0.05,0-0.073-0.012-0.073-0.036h-0.074
			l3.242,0.037c1.118,0,1.956,0.176,2.515,0.527c0.509,0.35,0.861,0.748,1.054,1.198l2.184,5.061l4.956-4.835
			c0.241-0.225,0.412-0.475,0.509-0.748c0.074-0.177,0.074-0.363,0-0.563c-0.048-0.1-0.146-0.226-0.293-0.375
			c-0.07-0.05-0.143-0.1-0.216-0.15c-0.074-0.049-0.159-0.1-0.257-0.149l4.335,0.001l-0.364,0.075
			c-0.363,0.075-0.767,0.238-1.202,0.487c-0.242,0.125-0.498,0.28-0.764,0.47c-0.27,0.185-0.547,0.416-0.838,0.69l-5.646,5.586
			l3.422,7.949C742.045,643.095,742.302,643.507,742.641,643.808z"/>
	</g>
</g>
<line fill="none" stroke="#2276BA" stroke-miterlimit="10" x1="745.325" y1="593.65" x2="102.895" y2="593.65"/>
</svg>
