<svg xmlns="http://www.w3.org/2000/svg" viewBox="0 0 62.01 24.8"><defs><style>.cls-1{fill:#fff;}</style></defs><g id="Calque_2" data-name="Calque 2"><g id="Layer_1" data-name="Layer 1"><path class="cls-1" d="M10.91,7.72A3.39,3.39,0,0,1,7.33,11H2.74V.26H6.28A3.11,3.11,0,0,1,9.65,3.05c0,1.1-.74,1.9-1.18,1.9A2.7,2.7,0,0,1,10.91,7.72Zm-4.72-5h-.7V4.42h.68c.62,0,1.08-.31,1.08-.86S6.8,2.73,6.19,2.73Zm2,4.65c0-.63-.45-1-1.26-1H5.49v2h1.4C7.55,8.4,8.17,8.08,8.17,7.38Z"/><path class="cls-1" d="M12.07,7.09V.26h2.87V7.08a1.53,1.53,0,0,0,1.58,1.49,1.56,1.56,0,0,0,1.6-1.49V.26H21V7.09a4.24,4.24,0,0,1-4.46,4.2A4.24,4.24,0,0,1,12.07,7.09Z"/><path class="cls-1" d="M28.31,11,25.44,6.33V11H22.57V.26h4.08a3.68,3.68,0,0,1,4,3.49,3.22,3.22,0,0,1-1.86,2.93L31.65,11ZM25.42,5h1.17a1.08,1.08,0,1,0,0-2.16H25.42Z"/><path class="cls-1" d="M43.25,5.88a5.26,5.26,0,0,1-5.51,5.37,5.76,5.76,0,0,1-6-5.61A5.78,5.78,0,0,1,37.67,0,6.25,6.25,0,0,1,41.5,1.42L39.92,3.58a3.45,3.45,0,0,0-2.25-.92,3,3,0,0,0-3,3,3,3,0,0,0,3.19,3c1.3,0,2.23-.63,2.27-1.66H37.66V4.83h5.51A7.65,7.65,0,0,1,43.25,5.88Z"/><path class="cls-1" d="M47.2,2.91v1.5h3.42V6.78H47.2V8.32h4.15V11h-7V.26h7V2.91Z"/><path class="cls-1" d="M58.67,11,55.8,6.33V11H53V.26H57a3.68,3.68,0,0,1,4,3.49,3.22,3.22,0,0,1-1.86,2.93L62,11ZM55.79,5H57a1.08,1.08,0,1,0,0-2.16H55.79Z"/><path class="cls-1" d="M8.16,21.25a3.4,3.4,0,0,1-3.58,3.27H0V13.78H3.53a3.11,3.11,0,0,1,3.37,2.8c0,1.1-.73,1.89-1.17,1.89A2.71,2.71,0,0,1,8.16,21.25Zm-4.72-5h-.7V18h.68c.62,0,1.09-.31,1.09-.86S4.06,16.26,3.44,16.26Zm2,4.65c0-.63-.45-1-1.26-1H2.74v2H4.15C4.8,21.93,5.43,21.61,5.43,20.91Z"/><path class="cls-1" d="M22.26,16.44v1.49h3.41v2.38H22.26v1.54h4.15v2.67h-7V13.78h7v2.66Z"/><path class="cls-1" d="M36,16.45H33.43v8.07H30.57V16.45H28V13.78h8Z"/><path class="cls-1" d="M58.68,13.77V24.63h-.9l-5.53-5.35v5.25H49.4V13.68h.92L55.82,19V13.77Z"/><path class="cls-1" d="M42.37,13.5a5.65,5.65,0,1,0,0,11.3,5.66,5.66,0,1,0,0-11.3ZM44.58,22H40.16a.83.83,0,0,1-.82-.83.55.55,0,0,1,.55-.55h5a.55.55,0,0,1,.55.55A.83.83,0,0,1,44.58,22Zm-5.23-2.17v-.63a.24.24,0,0,1,.24-.24h.85l.55.55L42.65,19h2.51a.24.24,0,0,1,.24.24v.63a.24.24,0,0,1-.24.24H39.59A.24.24,0,0,1,39.35,19.87Zm5.51-1.42h-5a.55.55,0,0,1-.55-.55c0-1.07,1.36-1.94,3-1.94s3,.87,3,1.94A.55.55,0,0,1,44.86,18.45Z"/><path class="cls-1" d="M15.11,24.52l-2.87-4.66v4.66H9.37V13.78h4.08a3.69,3.69,0,0,1,4,3.5,3.24,3.24,0,0,1-1.86,2.93l2.88,4.31Zm-2.89-6h1.17a1.08,1.08,0,1,0,0-2.16H12.22Z"/></g></g></svg>