<?xml version="1.0" encoding="utf-8"?>
<!-- Generator: Adobe Illustrator 16.0.0, SVG Export Plug-In . SVG Version: 6.00 Build 0)  -->
<!DOCTYPE svg PUBLIC "-//W3C//DTD SVG 1.1//EN" "http://www.w3.org/Graphics/SVG/1.1/DTD/svg11.dtd">
<svg version="1.1" id="Layer_1" xmlns="http://www.w3.org/2000/svg" xmlns:xlink="http://www.w3.org/1999/xlink" x="0px" y="0px"
	 width="850.39px" height="850.394px" viewBox="0 0 850.39 850.394" enable-background="new 0 0 850.39 850.394"
	 xml:space="preserve">
<g>
	<g>
		<path fill="#FFFFFF" d="M621.476,715.36v-7.897h3.113v7.891c0,1.028,0.826,1.715,1.709,1.715c0.875,0,1.727-0.697,1.727-1.715
			v-7.891h3.109v7.897c0,2.847-2.166,4.855-4.83,4.855C623.644,720.216,621.476,718.207,621.476,715.36"/>
		<path fill="#FFFFFF" d="M639.065,719.871l-3.109-5.389v5.389h-3.105v-12.408h4.418c2.512,0,4.313,1.81,4.313,4.033
			c0,1.546-0.879,2.839-2.016,3.393l3.117,4.982H639.065z M635.942,712.912l1.262,0.009c0.654,0.006,1.258-0.484,1.258-1.249
			c0-0.771-0.607-1.245-1.258-1.245h-1.262V712.912z"/>
		<g>
			<path fill="#FFFFFF" d="M572.933,707.475h4.721c2.574,0,4.721,1.932,4.721,4.362c0,2.401-2.1,4.417-4.721,4.417h-1.402v3.667
				h-3.318V707.475L572.933,707.475z M579.173,711.853c0-0.758-0.637-1.328-1.521-1.328h-1.4v2.68l1.4,0.007
				C578.546,713.219,579.173,712.618,579.173,711.853z"/>
			<path fill="#FFFFFF" d="M589.46,718.47h-4.668l-0.637,1.451h-3.627l5.807-12.601h1.572l5.814,12.601h-3.635L589.46,718.47z
				 M588.403,716.053l-1.277-2.948l-1.287,2.948H588.403z"/>
			<path fill="#FFFFFF" d="M601.632,719.921l-3.34-5.404v5.404h-3.318l-0.016-12.446h4.742c2.697,0,4.631,1.814,4.631,4.047
				c0,1.552-0.939,2.849-2.164,3.404l3.35,4.995H601.632L601.632,719.921z M598.274,712.942l1.357,0.008
				c0.705,0.008,1.348-0.486,1.348-1.251c0-0.772-0.65-1.251-1.348-1.251h-1.357V712.942z"/>
		</g>
		<g>
			<path fill="#FFFFFF" d="M620.21,716.084c0,1.961-1.545,3.786-3.877,3.786h-4.965v-12.41h3.826c2.105,0,3.648,1.516,3.648,3.229
				c0,1.276-0.793,2.192-1.27,2.192C618.815,712.881,620.21,714.21,620.21,716.084 M615.097,710.324h-0.754v1.948h0.736
				c0.67,0,1.178-0.356,1.178-0.992C616.257,710.678,615.765,710.324,615.097,710.324 M617.251,715.691
				c0-0.724-0.492-1.162-1.363-1.162l-1.545-0.009v2.354h1.52C616.571,716.875,617.251,716.505,617.251,715.691"/>
		</g>
		<path fill="#FFFFFF" d="M655.261,713.956c0,3.771-2.67,6.211-5.979,6.211c-3.693,0-6.486-2.941-6.486-6.48
			c0-3.542,2.801-6.521,6.412-6.521c1.479,0.021,3.188,0.69,4.146,1.639l-1.709,2.502c-0.646-0.645-1.582-1.061-2.438-1.061
			c-1.736,0-3.256,1.516-3.256,3.432c0,1.74,1.305,3.435,3.453,3.435c1.41,0,2.412-0.726,2.455-1.909h-2.662v-2.456h5.969
			C655.224,713.162,655.261,713.562,655.261,713.956"/>
		<polygon fill="#FFFFFF" points="659.542,710.525 659.542,712.257 663.237,712.257 663.237,715.003 659.542,715.003 
			659.542,716.784 664.032,716.784 664.032,719.871 656.487,719.871 656.487,707.462 664.032,707.462 664.032,710.525 		"/>
		<path fill="#FFFFFF" d="M671.964,719.871l-3.109-5.389v5.389h-3.088v-12.408h4.4c2.512,0,4.313,1.81,4.313,4.033
			c0,1.546-0.877,2.839-2.02,3.393l3.121,4.982H671.964z M668.839,712.912l1.266,0.009c0.654,0.006,1.256-0.484,1.256-1.249
			c0-0.771-0.607-1.245-1.256-1.245h-1.266V712.912z"/>
		<path fill="#FFFFFF" d="M690.583,716.085c0,1.963-1.543,3.787-3.873,3.787h-4.971v-12.41h3.828c2.105,0,3.65,1.52,3.65,3.229
			c0,1.275-0.791,2.192-1.27,2.192C689.19,712.883,690.583,714.212,690.583,716.085 M685.474,710.328h-0.758v1.946h0.736
			c0.672,0,1.178-0.354,1.178-0.991C686.63,710.682,686.138,710.328,685.474,710.328 M687.624,715.694
			c0-0.726-0.49-1.164-1.361-1.164l-1.547-0.006v2.354h1.521C686.946,716.877,687.624,716.509,687.624,715.694"/>
		<polygon fill="#FFFFFF" points="705.86,710.527 705.86,712.261 709.562,712.261 709.562,715.005 705.86,715.005 705.86,716.786 
			710.353,716.786 710.353,719.873 702.81,719.873 702.81,707.464 710.353,707.464 710.353,710.527 		"/>
		<polygon fill="#FFFFFF" points="720.747,710.542 717.96,710.542 717.96,719.873 714.864,719.873 714.864,710.542 712.071,710.542 
			712.071,707.464 720.747,707.464 		"/>
		<polygon fill="#FFFFFF" points="745.325,707.449 745.325,719.997 744.345,719.997 738.358,713.815 738.358,719.879 
			735.269,719.879 735.269,707.341 736.267,707.341 742.228,713.499 742.228,707.449 		"/>
		<path fill="#FFFFFF" d="M727.653,707.139c-3.613,0-6.387,2.826-6.387,6.551c0,3.696,2.762,6.506,6.379,6.506
			c3.623,0,6.396-2.81,6.396-6.506C734.042,709.965,731.269,707.139,727.653,707.139 M730.048,717.002h-4.789
			c-0.494,0-0.896-0.431-0.896-0.958c0-0.351,0.268-0.64,0.602-0.64h5.385c0.33,0,0.596,0.289,0.596,0.64
			C730.942,716.572,730.544,717.002,730.048,717.002 M724.374,714.49v-0.723c0-0.15,0.113-0.277,0.26-0.277h0.926l0.6,0.642
			l1.799-0.642h2.721c0.143,0,0.258,0.127,0.258,0.277v0.723c0,0.15-0.115,0.277-0.258,0.277h-6.045
			C724.487,714.769,724.374,714.641,724.374,714.49 M730.347,712.854h-5.383c-0.33,0-0.602-0.286-0.602-0.641
			c0-1.234,1.475-2.232,3.291-2.232s3.289,0.997,3.289,2.232C730.942,712.568,730.677,712.854,730.347,712.854"/>
		<path fill="#FFFFFF" d="M698.11,719.873l-3.109-5.389v5.389h-3.104v-12.408h4.414c2.516,0,4.314,1.81,4.314,4.032
			c0,1.549-0.877,2.843-2.018,3.393l3.119,4.983H698.11L698.11,719.873z M694.985,712.915l1.264,0.007
			c0.656,0.009,1.258-0.484,1.258-1.245c0-0.77-0.607-1.249-1.258-1.249h-1.264V712.915z"/>
	</g>
	<g>
		<g>
			<polygon id="XMLID_1_" fill="#FFFFFF" points="840.348,243.004 50.83,244.192 42.989,330.608 75.664,340.078 41.167,350.721 
				36.005,407.597 68.219,422.183 33.178,438.753 27.532,501.05 51.843,519.174 25.744,520.715 19.686,587.541 90.666,612.861 
				17.533,611.277 10.042,693.833 799.564,692.66 807.698,602.937 772.83,617.689 809.419,583.97 814.684,525.947 782.901,509.301 
				817.402,495.947 823.163,432.503 801.393,424.577 824.838,413.987 831.005,346.003 768.633,335.27 833.053,323.42 			"/>
		</g>
		<g>
			<g enable-background="new    ">
				<path fill="#2075BA" d="M187.201,405.685c-4.947,9.597-14.463,12.535-25.691,12.535l-29.496-58.773v74.641
					c-8.945,6.271-19.412,10.973-30.07,10.973V310.08c5.52-1.568,11.228-2.351,16.938-2.351c11.609,0,18.46,3.526,23.026,10.384
					L173.5,381.39l31.592-63.278c4.567-6.857,11.418-10.384,23.027-10.384c4.947,0,9.895,0.783,14.652,2.351v124.009
					c-9.705,6.271-21.314,10.973-32.921,10.973v-85.614L187.201,405.685z"/>
				<path fill="#2075BA" d="M346.499,434.285c-11.988,8.424-32.162,12.932-46.434,12.932c-20.554,0-42.058-10.384-42.058-32.327
					c0-20.57,17.698-31.347,35.968-31.347c8.181,0,16.175,1.96,23.406,5.685v-7.055c0-11.753-7.992-18.219-19.221-18.219
					c-9.134,0-18.269,3.916-24.359,13.32c-5.9-4.699-9.326-13.711-8.373-20.962c8.754-9.01,22.836-11.362,35.208-11.362
					c24.167,0,45.863,11.754,45.863,38.984V434.285z M317.381,400.979c-4.758-2.153-10.085-2.741-15.036-2.741
					c-8.182,0-15.984,4.506-15.984,14.89c0,10.186,7.614,15.084,15.794,15.084c5.331,0,10.659-1.764,15.225-4.114V400.979z"/>
				<path fill="#2075BA" d="M365.536,358.468c11.229-8.032,29.117-13.517,42.817-13.517c9.896,0,26.453,2.938,26.453,16.065
					c0,8.815-6.661,16.064-14.652,18.024c0-8.228-3.999-13.714-10.47-13.714c-5.327,0-10.274,1.762-14.842,4.898v67.589
					c-8.946,5.68-18.84,7.248-29.307,7.248V358.468z"/>
				<path fill="#2075BA" d="M531.105,417.632c0,20.573-19.222,29.39-38.062,29.39c-29.688,0-48.91-22.139-48.91-51.329
					c0-29.386,21.508-50.741,51.957-50.741c13.698,0,27.786,2.938,33.875,16.065v0.98c0,8.424-3.996,15.476-12.18,19.394
					c-2.285-10.578-8.754-16.26-18.844-16.26c-16.554,0-25.309,14.694-25.309,30.366c0,17.24,11.227,31.148,28.926,31.148
					c11.23,0,21.694-5.092,28.163-12.536C530.915,415.282,530.915,416.851,531.105,417.632z"/>
				<path fill="#2075BA" d="M546.145,311.646c8.564-6.661,19.032-7.64,29.311-7.64v50.35c8.752-5.683,18.455-9.405,27.972-9.405
					c21.124,0,34.636,15.476,34.636,38.399v53.875c-8.183,5.091-16.176,7.835-29.116,7.835v-60.929
					c0-10.774-5.329-18.415-16.368-18.415c-6.469,0-12.18,2.743-17.123,6.664v65.628c-5.521,5.484-18.462,7.052-29.311,7.052
					V311.646z"/>
				<path fill="#2075BA" d="M744.449,420.965c-0.762,18.612-21.694,26.057-38.44,26.057c-31.59,0-52.715-22.335-52.715-51.525
					c0-27.428,19.032-50.545,49.098-50.545c28.168,0,46.054,20.375,46.054,46.039c0,5.682-3.042,10.97-10.656,10.97h-46.815
					c0-9.208,4.758-14.692,11.038-15.869h20.173c-0.379-11.361-6.282-20.962-18.27-20.962c-14.844,0-21.313,15.086-21.313,28.994
					c0,19.005,10.271,33.109,30.635,33.109c10.661,0,22.649-3.722,30.071-11.362C744.263,417.632,744.449,420.965,744.449,420.965z
					 M706.77,332.805c-3.426,2.352-7.422,4.114-11.226,4.114c-4.001,0-8.184-1.567-11.23-3.721l22.649-30.759
					c5.706-0.392,19.602,4.898,23.975,12.146L706.77,332.805z"/>
			</g>
			<g enable-background="new    ">
				<path fill="#08A44D" d="M145.525,612.957l-10.848,31.737c-11.609,1.175-21.694-0.589-31.783-7.443l47.197-120.11
					c9.707-8.229,22.266-8.816,34.066-8.816l52.715,137.154c-27.024,1.961-35.208-3.526-39.203-15.477l-6.281-17.045H145.525z
					 M184.157,591.014l-15.796-45.259l-16.555,47.804c3.426-1.37,7.422-2.545,11.035-2.545H184.157z"/>
				<path fill="#08A44D" d="M370.856,636.662c-8.754,6.269-22.265,9.013-32.734,9.013v-13.908
					c-8.184,10.969-22.074,15.673-35.586,15.673c-37.3,0-60.518-33.895-60.518-71.317c0-43.108,30.256-70.542,73.077-70.542
					c18.46,0,39.394,5.29,47.956,22.729l-0.191,2.351c-0.378,8.822-7.23,16.664-15.605,20.776
					c-3.422-14.306-15.984-20.384-31.207-20.384c-26.453,0-40.917,19.991-40.917,45.266c0,24.1,13.32,45.652,36.73,45.652
					c9.324,0,19.218-3.333,26.261-10.777v-20.179h-32.161c0.949-8.229,3.805-15.48,10.086-21.944h54.808V636.662z"/>
				<path fill="#08A44D" d="M427.005,612.957l-10.847,31.737c-11.61,1.175-21.695-0.589-31.781-7.443l47.195-120.11
					c9.708-8.229,22.266-8.816,34.066-8.816l52.715,137.154c-27.023,1.961-35.208-3.526-39.204-15.477l-6.28-17.045H427.005z
					 M465.638,591.014l-15.797-45.259l-16.555,47.804c3.426-1.37,7.422-2.545,11.035-2.545H465.638z"/>
				<path fill="#08A44D" d="M549.566,533.21h-43.198c1.141-9.41,4.188-18.423,11.226-24.887h108.284
					c-1.331,9.404-4.183,18.417-11.226,24.887h-32.16v101.295c-9.707,6.27-21.507,10.973-32.926,10.973V533.21z"/>
				<path fill="#08A44D" d="M656.149,612.957l-10.848,31.737c-11.609,1.175-21.695-0.589-31.78-7.443l47.194-120.11
					c9.707-8.229,22.266-8.816,34.066-8.816l52.715,137.154c-27.024,1.961-35.207-3.526-39.203-15.477l-6.282-17.045H656.149z
					 M694.782,591.014l-15.798-45.259l-16.553,47.804c3.426-1.37,7.423-2.545,11.033-2.545H694.782z"/>
			</g>
		</g>
	</g>
	<g>
		<defs>
			<polygon id="SVGID_1_" points="582.733,235.798 350.85,235.748 350.882,120.167 582.761,120.219 			"/>
		</defs>
		<clipPath id="SVGID_2_">
			<use xlink:href="#SVGID_1_"  overflow="visible"/>
		</clipPath>
		<g clip-path="url(#SVGID_2_)">
			<g>
				<path fill="#84C245" d="M563.737,137.199c-4.023,8.951-7.113,13.78-13.465,22.485c5.791-8.952,8.531-13.89,11.982-22.987
					c-2.896-0.962-5.787-1.89-8.682-2.795c-2.982,8.894-5.434,13.746-10.689,22.538c3.855-9.423,5.475-14.542,6.973-23.671
					c-3.684-1.11-7.363-2.136-11.057-3.104c0.293,16.971-4.781,33.569-4.402,34.556c0.803,2.064,4.98,4.578,7.377,3.506
					c0.463,1.852,1.414,3.481,2.662,4.17c2.158,1.185,18.555-20.328,25.568-32.587C567.913,138.595,565.831,137.897,563.737,137.199
					z"/>
				<g>
					<g>
						<defs>
							<path id="SVGID_3_" d="M526.663,229.596c-4.668,7.129-10.672,13.11-16.43,18.986c-5.275,5.377-10.227,10.968-16.074,15.177
								c-10.584,7.631-21.537,13.628-32.872,17.916c-3.566,1.347-20.73,5.56-16.613-3.58c1.527-3.397,5.453-6.058,8.115-8.395
								c4.469-3.921,9.027-7.823,13.031-12.323c3.948-4.454,7.286-9.46,10.747-14.296c3.703-5.195,7.986-9.733,11.547-15.009
								c6.584-9.748,12.625-19.777,17.068-30.324c2.215-5.25,5.822-9.353,8.084-14.445c2.01-4.497,2.352-9.766,5.121-13.906
								c5.01-7.448,16.24-10.2,24.727-7.687c5.979,1.77,9.99,6.379,11.781,12.542c1.734,5.936-0.938,11.219-4.252,16.996
								c-4.057,7.065-6.469,14.495-10.926,21.397C535.813,218.692,530.591,223.571,526.663,229.596z"/>
						</defs>
						<defs>
							<path id="SVGID_4_" d="M526.663,229.596c-4.668,7.129-10.672,13.11-16.43,18.986c-5.275,5.377-10.227,10.968-16.074,15.177
								c-10.584,7.631-21.537,13.628-32.872,17.916c-3.566,1.347-20.73,5.56-16.613-3.58c1.527-3.397,5.453-6.058,8.115-8.395
								c4.469-3.921,9.027-7.823,13.031-12.323c3.948-4.454,7.286-9.46,10.747-14.296c3.703-5.195,7.986-9.733,11.547-15.009
								c6.584-9.748,12.625-19.777,17.068-30.324c2.215-5.25,5.822-9.353,8.084-14.445c2.01-4.497,2.352-9.766,5.121-13.906
								c5.01-7.448,16.24-10.2,24.727-7.687c5.979,1.77,9.99,6.379,11.781,12.542c1.734,5.936-0.938,11.219-4.252,16.996
								c-4.057,7.065-6.469,14.495-10.926,21.397C535.813,218.692,530.591,223.571,526.663,229.596z"/>
						</defs>
						<defs>
							<path id="SVGID_5_" d="M526.663,229.596c-4.668,7.129-10.672,13.11-16.43,18.986c-5.275,5.377-10.227,10.968-16.074,15.177
								c-10.584,7.631-21.537,13.628-32.872,17.916c-3.566,1.347-20.73,5.56-16.613-3.58c1.527-3.397,5.453-6.058,8.115-8.395
								c4.469-3.921,9.027-7.823,13.031-12.323c3.948-4.454,7.286-9.46,10.747-14.296c3.703-5.195,7.986-9.733,11.547-15.009
								c6.584-9.748,12.625-19.777,17.068-30.324c2.215-5.25,5.822-9.353,8.084-14.445c2.01-4.497,2.352-9.766,5.121-13.906
								c5.01-7.448,16.24-10.2,24.727-7.687c5.979,1.77,9.99,6.379,11.781,12.542c1.734,5.936-0.938,11.219-4.252,16.996
								c-4.057,7.065-6.469,14.495-10.926,21.397C535.813,218.692,530.591,223.571,526.663,229.596z"/>
						</defs>
						<defs>
							<path id="SVGID_6_" d="M526.663,229.596c-4.668,7.129-10.672,13.11-16.43,18.986c-5.275,5.377-10.227,10.968-16.074,15.177
								c-10.584,7.631-21.537,13.628-32.872,17.916c-3.566,1.347-20.73,5.56-16.613-3.58c1.527-3.397,5.453-6.058,8.115-8.395
								c4.469-3.921,9.027-7.823,13.031-12.323c3.948-4.454,7.286-9.46,10.747-14.296c3.703-5.195,7.986-9.733,11.547-15.009
								c6.584-9.748,12.625-19.777,17.068-30.324c2.215-5.25,5.822-9.353,8.084-14.445c2.01-4.497,2.352-9.766,5.121-13.906
								c5.01-7.448,16.24-10.2,24.727-7.687c5.979,1.77,9.99,6.379,11.781,12.542c1.734,5.936-0.938,11.219-4.252,16.996
								c-4.057,7.065-6.469,14.495-10.926,21.397C535.813,218.692,530.591,223.571,526.663,229.596z"/>
						</defs>
						<defs>
							<path id="SVGID_7_" d="M526.663,229.596c-4.668,7.129-10.672,13.11-16.43,18.986c-5.275,5.377-10.227,10.968-16.074,15.177
								c-10.584,7.631-21.537,13.628-32.872,17.916c-3.566,1.347-20.73,5.56-16.613-3.58c1.527-3.397,5.453-6.058,8.115-8.395
								c4.469-3.921,9.027-7.823,13.031-12.323c3.948-4.454,7.286-9.46,10.747-14.296c3.703-5.195,7.986-9.733,11.547-15.009
								c6.584-9.748,12.625-19.777,17.068-30.324c2.215-5.25,5.822-9.353,8.084-14.445c2.01-4.497,2.352-9.766,5.121-13.906
								c5.01-7.448,16.24-10.2,24.727-7.687c5.979,1.77,9.99,6.379,11.781,12.542c1.734,5.936-0.938,11.219-4.252,16.996
								c-4.057,7.065-6.469,14.495-10.926,21.397C535.813,218.692,530.591,223.571,526.663,229.596z"/>
						</defs>
						<defs>
							<path id="SVGID_8_" d="M526.663,229.596c-4.668,7.129-10.672,13.11-16.43,18.986c-5.275,5.377-10.227,10.968-16.074,15.177
								c-10.584,7.631-21.537,13.628-32.872,17.916c-3.566,1.347-20.73,5.56-16.613-3.58c1.527-3.397,5.453-6.058,8.115-8.395
								c4.469-3.921,9.027-7.823,13.031-12.323c3.948-4.454,7.286-9.46,10.747-14.296c3.703-5.195,7.986-9.733,11.547-15.009
								c6.584-9.748,12.625-19.777,17.068-30.324c2.215-5.25,5.822-9.353,8.084-14.445c2.01-4.497,2.352-9.766,5.121-13.906
								c5.01-7.448,16.24-10.2,24.727-7.687c5.979,1.77,9.99,6.379,11.781,12.542c1.734,5.936-0.938,11.219-4.252,16.996
								c-4.057,7.065-6.469,14.495-10.926,21.397C535.813,218.692,530.591,223.571,526.663,229.596z"/>
						</defs>
						<defs>
							<path id="SVGID_9_" d="M526.663,229.596c-4.668,7.129-10.672,13.11-16.43,18.986c-5.275,5.377-10.227,10.968-16.074,15.177
								c-10.584,7.631-21.537,13.628-32.872,17.916c-3.566,1.347-20.73,5.56-16.613-3.58c1.527-3.397,5.453-6.058,8.115-8.395
								c4.469-3.921,9.027-7.823,13.031-12.323c3.948-4.454,7.286-9.46,10.747-14.296c3.703-5.195,7.986-9.733,11.547-15.009
								c6.584-9.748,12.625-19.777,17.068-30.324c2.215-5.25,5.822-9.353,8.084-14.445c2.01-4.497,2.352-9.766,5.121-13.906
								c5.01-7.448,16.24-10.2,24.727-7.687c5.979,1.77,9.99,6.379,11.781,12.542c1.734,5.936-0.938,11.219-4.252,16.996
								c-4.057,7.065-6.469,14.495-10.926,21.397C535.813,218.692,530.591,223.571,526.663,229.596z"/>
						</defs>
						<clipPath id="SVGID_10_">
							<use xlink:href="#SVGID_3_"  overflow="visible"/>
						</clipPath>
						<clipPath id="SVGID_11_" clip-path="url(#SVGID_10_)">
							<use xlink:href="#SVGID_4_"  overflow="visible"/>
						</clipPath>
						<clipPath id="SVGID_12_" clip-path="url(#SVGID_11_)">
							<use xlink:href="#SVGID_5_"  overflow="visible"/>
						</clipPath>
						<clipPath id="SVGID_13_" clip-path="url(#SVGID_12_)">
							<use xlink:href="#SVGID_6_"  overflow="visible"/>
						</clipPath>
						<clipPath id="SVGID_14_" clip-path="url(#SVGID_13_)">
							<use xlink:href="#SVGID_7_"  overflow="visible"/>
						</clipPath>
						<clipPath id="SVGID_15_" clip-path="url(#SVGID_14_)">
							<use xlink:href="#SVGID_8_"  overflow="visible"/>
						</clipPath>
						<clipPath id="SVGID_16_" clip-path="url(#SVGID_15_)">
							<use xlink:href="#SVGID_9_"  overflow="visible"/>
						</clipPath>
						<path clip-path="url(#SVGID_16_)" fill="#F26D26" d="M526.663,229.596c-4.668,7.129-10.672,13.11-16.43,18.986
							c-5.275,5.377-10.227,10.968-16.074,15.177c-10.584,7.631-21.537,13.628-32.872,17.916c-3.566,1.347-20.73,5.56-16.613-3.58
							c1.527-3.397,5.453-6.058,8.115-8.395c4.469-3.921,9.027-7.823,13.031-12.323c3.948-4.454,7.286-9.46,10.747-14.296
							c3.703-5.195,7.986-9.733,11.547-15.009c6.584-9.748,12.625-19.777,17.068-30.324c2.215-5.25,5.822-9.353,8.084-14.445
							c2.01-4.497,2.352-9.766,5.121-13.906c5.01-7.448,16.24-10.2,24.727-7.687c5.979,1.77,9.99,6.379,11.781,12.542
							c1.734,5.936-0.938,11.219-4.252,16.996c-4.057,7.065-6.469,14.495-10.926,21.397
							C535.813,218.692,530.591,223.571,526.663,229.596z"/>
						<path clip-path="url(#SVGID_16_)" fill="#FFFFFF" d="M516.681,192.348c4.959,1.415,7.734,1.948,13.127,4.407
							c9.033,4.12,11.861,7.541,11.861,7.541s-7.18-0.376-14.389-4.148C520.079,196.387,516.681,192.348,516.681,192.348z"/>
						<path clip-path="url(#SVGID_16_)" fill="#FFFFFF" d="M468.97,264.971c2.27,2.038,3.621,3.025,5.713,5.797
							c3.504,4.625,3.873,7.328,3.873,7.328s-3.805-2.009-6.496-5.959C469.354,268.18,468.97,264.971,468.97,264.971z"/>
						<path clip-path="url(#SVGID_16_)" fill="#FFFFFF" d="M514.444,221.508c-4.734-3.315-8.008-6.673-12.035-8.623
							c-6.709-3.246-12.27-5.547-12.27-5.547s2.344,3.441,7.346,7.355C505.3,220.823,514.444,221.508,514.444,221.508z"/>
						<path clip-path="url(#SVGID_16_)" fill="#FFFFFF" d="M542.13,180.438c0,0-8.236-4.607-12.033-5.495
							c-2.414-0.567-9.064-0.982-9.064-0.982s3.49,2.62,6.777,3.853C535.056,180.548,542.13,180.438,542.13,180.438z"/>
						<path clip-path="url(#SVGID_16_)" fill="#FFFFFF" d="M489.442,240.478c3.545,4.654,6.703,8.583,12.311,11.848
							c5.602,3.274,13.658,7.556,13.658,7.556s-5.785-8.77-13.576-13.659C494.056,241.322,489.442,240.478,489.442,240.478z"/>
						<path clip-path="url(#SVGID_16_)" fill="#FFFFFF" d="M467.856,252.102c1.197,2.342,2.279,4.336,4.461,6.25
							c2.176,1.907,5.268,4.563,5.268,4.563s-1.787-4.41-4.76-7.274C469.858,252.782,467.856,252.102,467.856,252.102z"/>
					</g>
				</g>
			</g>
			<g>
				<defs>
					<polygon id="SVGID_17_" points="582.733,235.798 350.85,235.748 350.882,120.167 582.761,120.219 					"/>
				</defs>
				<clipPath id="SVGID_18_">
					<use xlink:href="#SVGID_17_"  overflow="visible"/>
				</clipPath>
				<g clip-path="url(#SVGID_18_)">
					<path fill="#FFFFFF" d="M538.802,129.665c3.691,0.968,7.371,1.994,11.055,3.104c-1.498,9.129-3.115,14.248-6.971,23.671
						c5.254-8.792,7.705-13.645,10.688-22.538c2.895,0.905,5.785,1.833,8.682,2.795c-3.451,9.097-6.191,14.035-11.98,22.987
						c6.352-8.705,9.439-13.534,13.463-22.485c2.096,0.698,4.178,1.396,6.271,2.111c-4.627,8.091-13.32,20.182-19.336,27.152
						c1.928,2.121,3.346,4.769,4.227,7.789c1.734,5.936-0.939,11.219-4.254,16.996c-4.057,7.065-6.467,14.495-10.924,21.397
						c-3.906,6.047-9.129,10.927-13.057,16.951c-4.668,7.129-10.672,13.11-16.43,18.986c-0.797,0.808-1.574,1.617-2.363,2.437
						c-1,1.043-2.016,2.064-3.01,3.091c-3.41,3.502-6.859,6.875-10.701,9.648c-5.586,4.033-11.281,7.586-17.076,10.69
						c-0.68,0.372-1.354,0.718-2.041,1.078c-4.52,2.323-9.104,4.393-13.755,6.147c-1.836,0.693-7.275,2.146-11.559,2.146
						c-4.039,0-7.053-1.291-5.055-5.726c1.527-3.397,5.453-6.058,8.115-8.395c4.467-3.921,9.027-7.823,13.029-12.323
						c1.021-1.149,1.993-2.331,2.946-3.549c0.23-0.29,0.445-0.595,0.684-0.902c2.461-3.209,4.77-6.563,7.119-9.845
						c3.703-5.195,7.982-9.736,11.545-15.009c3.08-4.547,6.02-9.176,8.758-13.885c0.592-1.034,1.15-2.067,1.727-3.097
						c2.428-4.371,4.676-8.807,6.586-13.343c2.215-5.25,5.822-9.353,8.084-14.445c2.01-4.497,2.352-9.766,5.121-13.906
						c3.504-5.221,10.041-8.062,16.553-8.488C536.181,155.097,539.011,142.497,538.802,129.665 M538.802,128.665
						c-0.223,0-0.439,0.074-0.617,0.213c-0.246,0.193-0.389,0.49-0.383,0.803c0.197,12.184-2.42,24.391-3.678,30.257l-0.006,0.031
						c-7.098,0.656-13.25,3.938-16.561,8.869c-1.732,2.589-2.557,5.567-3.354,8.446c-0.523,1.891-1.063,3.846-1.852,5.608
						c-1.063,2.392-2.41,4.528-3.836,6.791c-1.514,2.399-3.078,4.88-4.258,7.674c-1.723,4.094-3.861,8.427-6.537,13.246
						c-0.209,0.374-0.418,0.751-0.627,1.129c-0.357,0.651-0.719,1.304-1.094,1.957c-2.598,4.466-5.531,9.118-8.717,13.82
						c-1.908,2.824-4.074,5.498-6.17,8.083c-1.795,2.213-3.648,4.502-5.363,6.906c-0.615,0.86-1.229,1.726-1.842,2.593
						c-1.697,2.394-3.451,4.87-5.256,7.224c-0.104,0.134-0.205,0.271-0.305,0.406c-0.121,0.164-0.242,0.325-0.365,0.481
						c-1.04,1.324-1.989,2.469-2.913,3.508c-3.625,4.076-7.789,7.722-11.816,11.249l-1.125,0.987
						c-0.545,0.477-1.143,0.968-1.773,1.487c-2.479,2.038-5.289,4.347-6.596,7.249c-0.906,2.016-0.959,3.673-0.148,4.924
						c0.949,1.468,3.006,2.212,6.115,2.212c4.533,0,10.08-1.518,11.914-2.21c4.508-1.702,9.171-3.786,13.856-6.193l0.51-0.266
						c0.52-0.271,1.035-0.54,1.555-0.823c5.869-3.146,11.652-6.766,17.182-10.758c3.707-2.676,7.012-5.838,10.834-9.761
						c0.432-0.448,0.867-0.892,1.303-1.337c0.57-0.583,1.145-1.168,1.711-1.76l0.145-0.149c0.736-0.766,1.465-1.521,2.211-2.277
						l0.951-0.971c5.477-5.58,11.137-11.35,15.602-18.169c1.914-2.936,4.197-5.662,6.404-8.298c2.287-2.731,4.65-5.555,6.656-8.659
						c2.525-3.912,4.424-8.033,6.26-12.019c1.436-3.117,2.922-6.34,4.689-9.423c3.459-6.028,6.172-11.525,4.348-17.774
						c-0.846-2.896-2.145-5.418-3.867-7.512c6.215-7.324,14.559-19.084,18.885-26.653c0.148-0.259,0.174-0.57,0.068-0.849
						c-0.105-0.279-0.33-0.497-0.613-0.593c-2.094-0.716-4.18-1.415-6.277-2.114c-0.104-0.035-0.211-0.051-0.314-0.051
						c-0.193,0-0.381,0.056-0.541,0.159c-0.012-0.03-0.023-0.061-0.037-0.09c-0.117-0.246-0.33-0.434-0.588-0.521
						c-2.771-0.92-5.615-1.836-8.699-2.8c-0.1-0.031-0.199-0.045-0.299-0.046c-0.418,0-0.809,0.265-0.947,0.683
						c-1.449,4.321-2.793,7.708-4.348,10.979c1.02-3.471,1.814-7.064,2.564-11.631c0.082-0.496-0.217-0.975-0.697-1.12
						c-3.531-1.065-7.16-2.083-11.09-3.114C538.972,128.676,538.886,128.665,538.802,128.665L538.802,128.665z"/>
				</g>
			</g>
		</g>
		<g clip-path="url(#SVGID_2_)">
			<path fill="#3DA249" d="M498.981,182.836c0,0,3.037-4.216,2.145-14.139c-0.912-9.928-13.74-15.707-13.74-15.707
				s-5.496-17.997-19.346-19.162c-13.839-1.176-21.919,15.654-21.919,15.654s-13.523,3.529-15.879,13.162
				c-2.354,9.636,0.035,14.299,0.035,14.299s-12.06,5.315-8.204,19.543c2.461,9.059,9.688,12.314,9.688,12.314
				s-3.391,8.527,0.475,16.018c3.855,7.483,11.717,6.951,11.717,6.951s-3.582,3.052-0.945,12.792
				c2.635,9.723,15.756,14.871,15.756,14.871s13.7-2.792,17.731-11.938c4.029-9.164,0.941-12.815,0.941-12.815
				s7.676,1.895,12.58-4.833c4.91-6.741,2.814-15.76,2.814-15.76s10.279-2.467,12.637-12.059
				C508.853,188.23,498.981,182.836,498.981,182.836z"/>
			<g>
				<g>
					<path fill="#FFFFFF" d="M466.656,133.77c0.455,0,0.916,0.02,1.384,0.059c13.848,1.165,19.346,19.162,19.346,19.162
						s12.828,5.778,13.74,15.707c0.895,9.923-2.145,14.139-2.145,14.139s9.871,5.394,6.486,19.191
						c-2.355,9.592-12.637,12.059-12.637,12.059s2.096,9.019-2.814,15.76c-3.139,4.303-7.408,5.079-10.078,5.079
						c-1.504,0-2.502-0.246-2.502-0.246s3.088,3.651-0.941,12.815c-4.031,9.146-17.731,11.938-17.731,11.938
						s-13.121-5.147-15.756-14.871c-2.637-9.74,0.945-12.792,0.945-12.792s-0.123,0.008-0.344,0.008
						c-1.553,0-7.998-0.408-11.373-6.959c-3.865-7.491-0.475-16.018-0.475-16.018s-7.228-3.255-9.689-12.314
						c-3.855-14.229,8.205-19.543,8.205-19.543s-2.391-4.663-0.037-14.299c2.355-9.632,15.879-13.162,15.879-13.162
						S453.664,133.77,466.656,133.77 M466.656,132.77c-12.422,0-19.896,13.287-21.232,15.871
						c-2.449,0.723-13.904,4.567-16.154,13.767c-1.848,7.567-0.857,12.215-0.246,14.07c-2.797,1.612-11.325,7.687-7.916,20.271
						c2.085,7.674,7.378,11.362,9.425,12.536c-0.773,2.419-2.533,9.506,0.813,15.992c2.938,5.699,8.105,7.079,10.785,7.404
						c-0.941,1.924-1.84,5.677-0.09,12.142c2.736,10.093,15.801,15.323,16.355,15.54c0.117,0.046,0.242,0.069,0.365,0.069
						c0.066,0,0.135-0.007,0.199-0.02c0.58-0.118,14.257-3.005,18.448-12.515c2.668-6.069,2.344-9.929,1.703-11.996
						c0.256,0.015,0.531,0.023,0.824,0.023c2.57,0,7.404-0.713,10.887-5.49c4.236-5.813,3.566-13.083,3.158-15.643
						c2.684-0.875,10.381-4.077,12.457-12.525c2.918-11.897-3.697-17.971-6.129-19.745c0.883-1.767,2.506-6.192,1.811-13.915
						c-0.869-9.484-11.631-15.22-13.916-16.336c-0.963-2.856-6.771-18.319-20.082-19.439
						C467.636,132.79,467.143,132.77,466.656,132.77L466.656,132.77z"/>
				</g>
			</g>
			<path fill="#FFFFFF" d="M476.796,193.423c9.559-4.033-6.605-1.112-11.509-0.749c0.459-8.3,0.756-14.369,0.912-17.104
				c0.014-0.279,0.02-0.547,0.045-0.828c1.476-0.451,4.097-1.522,7.698-3.919c6.482-4.338-4.15-0.693-7.497-0.147
				c0.879-18.398-0.033-18.501-0.033-18.501s-0.91-0.05-2.74,18.15c-3.328-1.318-12.752-6.353-6.979-0.978
				c2.898,2.723,5.156,4.183,6.592,4.942c-0.033,0.339-0.059,0.681-0.1,1.038c-0.248,2.713-0.779,8.734-1.545,16.947
				c-4.922-1.354-19.883-6.725-11.027-1.104c4.832,3.062,8.5,4.733,10.625,5.541c-0.545,5.96-6.355,73.289-6.338,76.231
				c0.035,8.188,1.93,8.913,1.93,8.913s1.977-0.397,3.221-8.475c0.438-2.867,4.645-70.231,4.986-76.222
				C467.152,196.791,471.183,195.784,476.796,193.423z"/>
			<path fill="#FFFFFF" d="M463.418,218.099c0.016-0.299-3.617-0.656-3.639-0.4c-4.93-1.359-19.889-6.729-11.027-1.12
				c4.828,3.068,8.496,4.738,10.625,5.548c-0.025,0.312,3.777,0.719,3.783,0.455c2.125-0.373,6.147-1.37,11.765-3.727
				C484.491,214.821,468.325,217.741,463.418,218.099z"/>
		</g>
		<g clip-path="url(#SVGID_2_)">
			<path fill="#FFFFFF" d="M442.236,213.382c-4.812-12.423-15.333-19.547-28.866-19.547c-3.211,0-6.505,0.417-9.807,1.242
				c-1.022-4.182-1.63-9.205-1.911-11.947l-0.055-0.239c-0.495-1.364-1.663-2.179-3.124-2.179c-1.004,0-2.051,0.396-2.801,1.059
				l-0.413,0.365l0.087,0.543c0.287,1.783,0.939,4.288,1.945,7.471c-2.648-1.646-6.528-2.964-12.095-2.582
				c-8.995,0.63-15.501,9.662-15.774,10.046l-0.476,0.67l0.565,0.596c0.271,0.287,6.173,6.433,13.66,7.575
				c-8.698,8.937-11.095,20.604-6.55,32.338c4.957,12.804,16.662,20.758,30.547,20.758c0,0,0,0,0.001,0
				c4.745,0,9.509-0.912,14.16-2.71C440.033,249.591,449.021,230.909,442.236,213.382z M420.969,255.907
				c-17.603,6.808-36.539,0.283-43.414-17.476c-4.926-12.717-1.114-24.58,7.901-32.795c-8.206-0.041-15.218-7.444-15.218-7.444
				s6.402-9.023,15.028-9.627c7.457-0.512,11.736,2.144,14.012,4.423c-1.295-3.808-2.518-7.815-2.944-10.468
				c1.219-1.077,3.595-1.294,4.323,0.712c0.295,2.884,0.993,8.639,2.187,13.067c16.182-4.436,32.152,1.159,38.46,17.445
				C448.18,231.507,438.576,249.083,420.969,255.907z"/>
			<g>
				<path fill="#3DA249" d="M400.658,183.231c0.443,4.327,1.783,15.129,4.363,18.19c0,0,0.514,2.008-1.854,2.139
					c0,0-5.791-14.559-6.833-21.041C397.553,181.442,399.929,181.225,400.658,183.231z"/>
				<path fill="#EE3F2E" d="M377.555,238.431c-6.884-17.773,3.293-33.881,20.897-40.69c17.604-6.813,35.973-1.758,42.852,16.002
					c6.875,17.764-2.729,35.34-20.335,42.164C403.367,262.715,384.43,256.19,377.555,238.431z"/>
				<path fill="#3DA249" d="M386.458,205.625c12.523-0.869,15.035-9.62,15.035-9.62s-3.535-8.312-16.227-7.441
					c-8.626,0.604-15.028,9.627-15.028,9.627S377.829,206.232,386.458,205.625z"/>
			</g>
		</g>
	</g>
</g>
</svg>
