<svg xmlns="http://www.w3.org/2000/svg" viewBox="0 0 43.4 32.15"><defs><style>.cls-1{fill:#134a97;}.cls-2{fill:#fff;}</style></defs><g id="Calque_2" data-name="Calque 2"><rect class="cls-1" width="43.4" height="32.15"/><path class="cls-2" d="M11.65,10.06A1.7,1.7,0,0,1,9.86,11.7H7.57V6.33H9.34A1.55,1.55,0,0,1,11,7.72c0,.56-.36,1-.58,1A1.35,1.35,0,0,1,11.65,10.06ZM9.3,7.57H9v.84h.34c.3,0,.54-.15.54-.43S9.6,7.57,9.3,7.57Zm1,2.32c0-.31-.23-.5-.63-.5H9v1h.7C10,10.4,10.29,10.24,10.29,9.89Z"/><path class="cls-2" d="M12.24,9.75V6.33h1.43V9.74a.77.77,0,0,0,.79.75.78.78,0,0,0,.8-.75V6.33h1.43V9.75a2.12,2.12,0,0,1-2.22,2.1A2.12,2.12,0,0,1,12.24,9.75Z"/><path class="cls-2" d="M20.35,11.7,18.92,9.37V11.7H17.49V6.33h2a1.84,1.84,0,0,1,2,1.74,1.61,1.61,0,0,1-.93,1.47L22,11.7Zm-1.44-3h.59a.54.54,0,1,0,0-1.08h-.59Z"/><path class="cls-2" d="M27.83,9.14a2.63,2.63,0,0,1-2.76,2.69,2.88,2.88,0,0,1-3-2.81A2.89,2.89,0,0,1,25,6.2,3.11,3.11,0,0,1,27,6.91L26.16,8A1.73,1.73,0,0,0,25,7.53a1.49,1.49,0,1,0,.1,3c.65,0,1.11-.31,1.13-.82H25V8.62h2.75A3.15,3.15,0,0,1,27.83,9.14Z"/><path class="cls-2" d="M29.8,7.65V8.4h1.71V9.59H29.8v.77h2.07V11.7H28.39V6.33h3.48V7.65Z"/><path class="cls-2" d="M35.54,11.7,34.1,9.37V11.7H32.67V6.33h2a1.83,1.83,0,0,1,2,1.74,1.62,1.62,0,0,1-.92,1.47L37.2,11.7Zm-1.45-3h.59a.54.54,0,1,0,0-1.08h-.59Z"/><path class="cls-2" d="M10.28,16.82a1.7,1.7,0,0,1-1.79,1.64H6.2V13.09H8a1.55,1.55,0,0,1,1.68,1.4c0,.55-.36.95-.58.95A1.34,1.34,0,0,1,10.28,16.82ZM7.92,14.33H7.57v.84h.34c.31,0,.55-.15.55-.42S8.23,14.33,7.92,14.33Zm1,2.32c0-.31-.23-.5-.63-.5H7.57v1h.71C8.6,17.17,8.92,17,8.92,16.65Z"/><path class="cls-2" d="M17.33,14.42v.75H19v1.19H17.33v.77H19.4v1.33H15.92V13.09H19.4v1.33Z"/><path class="cls-2" d="M24.2,14.43H22.91v4H21.49v-4H20.2V13.09h4Z"/><path class="cls-2" d="M35.54,13.09v5.43h-.45l-2.76-2.68v2.63H30.9V13h.46l2.75,2.66V13.09Z"/><path class="cls-2" d="M27.39,13a2.83,2.83,0,1,0,2.95,2.84A2.85,2.85,0,0,0,27.39,13Zm1.1,4.27H26.28a.41.41,0,0,1-.41-.41.27.27,0,0,1,.27-.28h2.49a.28.28,0,0,1,.28.28A.42.42,0,0,1,28.49,17.22Zm-2.62-1.09v-.31A.13.13,0,0,1,26,15.7h.43l.28.28.83-.28h1.25a.12.12,0,0,1,.12.12v.31a.12.12,0,0,1-.12.12H26A.12.12,0,0,1,25.87,16.13Zm2.76-.71H26.14a.27.27,0,0,1-.27-.27c0-.54.68-1,1.52-1s1.52.43,1.52,1A.28.28,0,0,1,28.63,15.42Z"/><path class="cls-2" d="M13.75,18.46l-1.43-2.33v2.33H10.89V13.09h2a1.84,1.84,0,0,1,2,1.75A1.61,1.61,0,0,1,14,16.31l1.44,2.15Zm-1.44-3h.59a.54.54,0,1,0,0-1.07h-.59Z"/><path class="cls-2" d="M8.53,22.46h-1V20.18h.92a.62.62,0,0,1,.7.64.53.53,0,0,1-.28.47.52.52,0,0,1,.31.51A.63.63,0,0,1,8.53,22.46Zm-.08-1.89H8v.53h.43a.27.27,0,1,0,0-.53Zm0,.93H8v.56h.46a.27.27,0,0,0,.3-.28A.27.27,0,0,0,8.48,21.5Z"/><path class="cls-2" d="M10.47,22.48a.8.8,0,0,1-.84-.81V20.18h.44v1.48a.38.38,0,0,0,.4.42.38.38,0,0,0,.39-.42V20.18h.45v1.49A.8.8,0,0,1,10.47,22.48Z"/><path class="cls-2" d="M13,22.46l-.45-.91h-.32v.91h-.44V20.18h.89a.69.69,0,0,1,.74.69.62.62,0,0,1-.42.6l.51,1Zm-.35-1.89h-.42v.61h.42a.31.31,0,1,0,0-.61Z"/><path class="cls-2" d="M15.27,22.22a.88.88,0,0,1-.64.26.85.85,0,0,1-.62-.25c-.23-.23-.22-.52-.22-.91s0-.68.22-.91a.84.84,0,0,1,.62-.25.82.82,0,0,1,.86.73H15a.39.39,0,0,0-.41-.34.38.38,0,0,0-.29.13c-.08.09-.11.2-.11.64s0,.54.11.64a.42.42,0,0,0,.6,0,.41.41,0,0,0,.11-.3v-.09h-.42v-.37h.86v.33A.92.92,0,0,1,15.27,22.22Z"/><path class="cls-2" d="M15.93,22.46V20.18h1.5v.39H16.37v.54h.9v.4h-.9v.55h1.06v.4Z"/><path class="cls-2" d="M19.06,22.46l-.45-.91h-.32v.91h-.44V20.18h.89a.69.69,0,0,1,.74.69.62.62,0,0,1-.42.6l.51,1Zm-.35-1.89h-.42v.61h.42a.31.31,0,1,0,0-.61Z"/><path class="cls-2" d="M22,22.46l-.14-.41H21l-.14.41H20.4l.83-2.28h.35l.83,2.28Zm-.53-1.61-.29.83h.57Z"/><path class="cls-2" d="M23.89,22.46l-.44-.91h-.32v.91h-.45V20.18h.89a.68.68,0,0,1,.74.69.61.61,0,0,1-.41.6l.51,1Zm-.35-1.89h-.41v.61h.41a.31.31,0,1,0,0-.61Z"/><path class="cls-2" d="M25.63,20.57v1.89h-.45V20.57h-.59v-.39h1.64v.39Z"/><path class="cls-2" d="M26.57,22.46V20.18H27v2.28Z"/><path class="cls-2" d="M28.16,22.48a1.05,1.05,0,0,1-.83-.31l.29-.28a.74.74,0,0,0,.55.19c.26,0,.4-.1.4-.28a.27.27,0,0,0-.07-.2.42.42,0,0,0-.2-.08l-.28,0a.78.78,0,0,1-.44-.19.61.61,0,0,1-.16-.45.7.7,0,0,1,.79-.69,1,1,0,0,1,.74.26l-.28.28a.64.64,0,0,0-.47-.16c-.24,0-.35.14-.35.29a.27.27,0,0,0,.06.17.51.51,0,0,0,.21.09l.27,0a.78.78,0,0,1,.44.18.65.65,0,0,1,.18.48C29,22.23,28.64,22.48,28.16,22.48Z"/><path class="cls-2" d="M30.71,22.46l-.14-.41h-.81l-.14.41h-.46L30,20.18h.35l.83,2.28Zm-.54-1.61-.28.83h.56Z"/><path class="cls-2" d="M32.78,22.46l-.9-1.4v1.4h-.44V20.18h.39l.91,1.39V20.18h.44v2.28Z"/><path class="cls-2" d="M35,22.46l-.13-.41h-.81l-.14.41h-.46l.83-2.28h.35l.83,2.28Zm-.53-1.61-.29.83h.57Z"/><path class="cls-2" d="M35.73,22.46V20.18h.44v1.88h1v.4Z"/><path class="cls-2" d="M12.91,25.93V24.09l-.46.41v-.45l.46-.4h.42v2.28Z"/><path class="cls-2" d="M14.71,25.94a.65.65,0,0,1-.69-.67v-1a.7.7,0,0,1,1.39,0v1A.65.65,0,0,1,14.71,25.94ZM15,24.31a.28.28,0,1,0-.55,0v1c0,.2.11.31.27.31a.27.27,0,0,0,.28-.31Z"/><path class="cls-2" d="M16.44,25.94a.66.66,0,0,1-.7-.67v-1a.66.66,0,0,1,.7-.68.65.65,0,0,1,.69.68v1A.65.65,0,0,1,16.44,25.94Zm.27-1.63a.28.28,0,1,0-.55,0v1a.27.27,0,0,0,.28.31c.16,0,.27-.11.27-.31Z"/><path class="cls-2" d="M17.92,24.82a.42.42,0,0,1-.46-.44v-.31a.46.46,0,0,1,.92,0v.31A.42.42,0,0,1,17.92,24.82Zm.16-.74c0-.12-.06-.18-.16-.18s-.16.06-.16.18v.29c0,.12.06.18.16.18s.16-.06.16-.18Zm.19,1.85H18L19,23.65h.32Zm1.1,0a.42.42,0,0,1-.46-.43v-.32a.42.42,0,0,1,.46-.44.43.43,0,0,1,.47.44v.32A.43.43,0,0,1,19.37,25.94Zm.17-.74c0-.12-.06-.18-.17-.18s-.16.06-.16.18v.29c0,.13.06.19.16.19s.17-.06.17-.19Z"/><path class="cls-2" d="M22.6,25.93V24.6l-.43.86h-.3l-.44-.86v1.33H21V23.65h.44l.6,1.23.59-1.23h.44v2.28Z"/><path class="cls-2" d="M24.86,25.93l-.13-.41h-.81l-.14.41h-.47l.83-2.28h.35l.83,2.28Zm-.53-1.61-.29.83h.57Z"/><path class="cls-2" d="M25.59,25.93V23.65H26v2.28Z"/><path class="cls-2" d="M27.18,25.94a1,1,0,0,1-.83-.3l.29-.28a.74.74,0,0,0,.55.19c.26,0,.4-.1.4-.28a.27.27,0,0,0-.07-.2.42.42,0,0,0-.2-.08L27,25a.78.78,0,0,1-.44-.19.61.61,0,0,1-.16-.45.7.7,0,0,1,.79-.69,1,1,0,0,1,.74.26l-.28.28a.64.64,0,0,0-.47-.16c-.24,0-.35.14-.35.29a.27.27,0,0,0,.06.17.51.51,0,0,0,.21.09l.27,0a.78.78,0,0,1,.44.18.65.65,0,0,1,.18.48C28,25.7,27.66,25.94,27.18,25.94Z"/><path class="cls-2" d="M29.81,25.7a.91.91,0,0,1-1.23,0,1.17,1.17,0,0,1-.23-.91c0-.4,0-.68.23-.91a.88.88,0,0,1,1.23,0c.23.23.23.51.23.91A1.17,1.17,0,0,1,29.81,25.7Zm-.33-1.55a.35.35,0,0,0-.29-.13.34.34,0,0,0-.28.13c-.09.09-.11.2-.11.64s0,.54.11.64a.37.37,0,0,0,.28.12.37.37,0,0,0,.29-.12c.09-.1.11-.21.11-.64S29.57,24.24,29.48,24.15Z"/><path class="cls-2" d="M31.82,25.93l-.9-1.4v1.4h-.44V23.65h.39L31.78,25V23.65h.44v2.28Z"/></g></svg>