<?xml version="1.0" encoding="utf-8"?>
<!DOCTYPE svg PUBLIC "-//W3C//DTD SVG 1.1//EN" "http://www.w3.org/Graphics/SVG/1.1/DTD/svg11.dtd">
<svg version="1.1" id="Layer_1" xmlns="http://www.w3.org/2000/svg" xmlns:xlink="http://www.w3.org/1999/xlink" x="0px" y="0px"
	 width="850.39px" height="283.464px" viewBox="0 0 850.39 283.464" enable-background="new 0 0 850.39 283.464"
	 xml:space="preserve">
<g>
	<g>
		<polygon id="XMLID_1_" fill="#FFFFFF" points="796.85,44.919 90.055,45.369 83.035,78.04 112.286,81.62 81.403,85.644 
			76.782,107.146 105.621,112.661 74.252,118.925 69.197,142.478 90.961,149.33 67.597,149.913 62.173,175.177 125.716,184.75 
			60.246,184.151 53.54,215.363 760.34,214.918 767.621,180.998 736.406,186.575 769.162,173.827 773.875,151.89 745.422,145.597 
			776.309,140.548 781.465,116.562 761.977,113.566 782.965,109.562 788.486,83.86 732.648,79.802 790.318,75.322 		"/>
		<g enable-background="new    ">
			<path fill="#2075BA" d="M170.326,124.375c-2.169,4.208-6.341,5.496-11.264,5.496l-12.932-25.768v32.725
				c-3.922,2.749-8.511,4.811-13.184,4.811V82.459c2.42-0.688,4.923-1.031,7.426-1.031c5.09,0,8.094,1.546,10.096,4.552
				l13.851,27.743L178.17,85.98c2.002-3.006,5.006-4.552,10.096-4.552c2.169,0,4.338,0.343,6.424,1.031v54.369
				c-4.255,2.749-9.345,4.811-14.434,4.811v-37.535L170.326,124.375z"/>
			<path fill="#2075BA" d="M240.166,136.914c-5.256,3.693-14.101,5.67-20.357,5.67c-9.012,0-18.439-4.553-18.439-14.173
				c0-9.019,7.76-13.743,15.77-13.743c3.587,0,7.092,0.859,10.262,2.492v-3.093c0-5.153-3.504-7.987-8.427-7.987
				c-4.005,0-8.01,1.717-10.68,5.84c-2.587-2.061-4.089-6.012-3.671-9.19c3.838-3.95,10.012-4.981,15.436-4.981
				c10.596,0,20.107,5.153,20.107,17.092V136.914z M227.4,122.312c-2.086-0.944-4.422-1.202-6.592-1.202
				c-3.587,0-7.008,1.976-7.008,6.528c0,4.466,3.338,6.613,6.925,6.613c2.337,0,4.673-0.773,6.675-1.804V122.312z"/>
			<path fill="#2075BA" d="M248.513,103.673c4.923-3.521,12.766-5.926,18.772-5.926c4.339,0,11.598,1.288,11.598,7.043
				c0,3.865-2.92,7.043-6.424,7.902c0-3.607-1.753-6.013-4.59-6.013c-2.336,0-4.505,0.772-6.508,2.147v29.633
				c-3.922,2.49-8.26,3.178-12.849,3.178V103.673z"/>
			<path fill="#2075BA" d="M321.104,129.613c0,9.02-8.428,12.885-16.688,12.885c-13.016,0-21.443-9.706-21.443-22.504
				c0-12.884,9.429-22.246,22.778-22.246c6.007,0,12.182,1.288,14.852,7.043v0.43c0,3.693-1.752,6.785-5.34,8.503
				c-1.001-4.638-3.838-7.129-8.261-7.129c-7.258,0-11.096,6.442-11.096,13.313c0,7.559,4.922,13.656,12.682,13.656
				c4.923,0,9.512-2.232,12.348-5.496C321.02,128.583,321.02,129.27,321.104,129.613z"/>
			<path fill="#2075BA" d="M327.697,83.146c3.754-2.92,8.343-3.35,12.849-3.35v22.074c3.838-2.491,8.093-4.123,12.265-4.123
				c9.262,0,15.186,6.785,15.186,16.835v23.62c-3.588,2.232-7.092,3.436-12.766,3.436v-26.713c0-4.724-2.336-8.073-7.176-8.073
				c-2.837,0-5.34,1.202-7.509,2.921v28.773c-2.42,2.404-8.093,3.092-12.849,3.092V83.146z"/>
			<path fill="#2075BA" d="M414.639,131.074c-0.334,8.16-9.512,11.424-16.854,11.424c-13.851,0-23.111-9.792-23.111-22.59
				c0-12.025,8.344-22.16,21.525-22.16c12.349,0,20.191,8.933,20.191,20.185c0,2.491-1.334,4.81-4.672,4.81h-20.525
				c0-4.037,2.086-6.441,4.84-6.957h8.844c-0.167-4.981-2.754-9.19-8.01-9.19c-6.508,0-9.345,6.614-9.345,12.712
				c0,8.332,4.505,14.516,13.433,14.516c4.673,0,9.93-1.632,13.184-4.981C414.556,129.613,414.639,131.074,414.639,131.074z
				 M398.119,92.422c-1.502,1.031-3.254,1.804-4.923,1.804c-1.753,0-3.588-0.688-4.923-1.632l9.929-13.485
				c2.503-0.172,8.594,2.147,10.513,5.325L398.119,92.422z"/>
		</g>
		<g enable-background="new    ">
			<path fill="#08A44D" d="M453.522,127.38l-4.756,13.914c-5.09,0.516-9.512-0.258-13.935-3.264l20.692-52.652
				c4.256-3.607,9.762-3.865,14.936-3.865l23.111,60.124c-11.848,0.859-15.436-1.546-17.188-6.785l-2.754-7.473H453.522z
				 M470.46,117.76l-6.926-19.841l-7.258,20.957c1.502-0.601,3.254-1.116,4.838-1.116H470.46z"/>
			<path fill="#08A44D" d="M552.313,137.773c-3.838,2.748-9.762,3.951-14.352,3.951v-6.098c-3.588,4.809-9.678,6.871-15.602,6.871
				c-16.354,0-26.533-14.859-26.533-31.266c0-18.896,13.266-30.92,32.039-30.92c8.094,0,17.271,2.319,21.025,9.963l-0.084,1.031
				c-0.166,3.865-3.17,7.301-6.842,9.104c-1.5-6.27-7.008-8.932-13.682-8.932c-11.598,0-17.939,8.76-17.939,19.84
				c0,10.565,5.84,20.014,16.104,20.014c4.088,0,8.426-1.461,11.514-4.725v-8.847h-14.1c0.416-3.607,1.668-6.786,4.422-9.62h24.029
				V137.773z"/>
			<path fill="#08A44D" d="M576.931,127.38l-4.756,13.914c-5.09,0.516-9.512-0.258-13.934-3.264l20.691-52.652
				c4.256-3.607,9.762-3.865,14.936-3.865l23.111,60.124c-11.848,0.859-15.436-1.546-17.188-6.785l-2.754-7.473H576.931z
				 M593.868,117.76l-6.926-19.841l-7.258,20.957c1.502-0.601,3.254-1.116,4.838-1.116H593.868z"/>
			<path fill="#08A44D" d="M630.665,92.422h-18.939c0.5-4.123,1.836-8.074,4.922-10.908h47.475
				c-0.584,4.123-1.834,8.074-4.922,10.908h-14.1v44.405c-4.256,2.749-9.43,4.811-14.436,4.811V92.422z"/>
			<path fill="#08A44D" d="M677.394,127.38l-4.756,13.914c-5.09,0.516-9.512-0.258-13.934-3.264l20.691-52.652
				c4.256-3.607,9.762-3.865,14.936-3.865l23.111,60.124c-11.848,0.859-15.436-1.546-17.188-6.785l-2.754-7.473H677.394z
				 M694.331,117.76l-6.926-19.841l-7.258,20.957c1.502-0.601,3.254-1.116,4.838-1.116H694.331z"/>
		</g>
		<line fill="none" stroke="#2276BA" stroke-miterlimit="10" x1="717.442" y1="157.154" x2="132.947" y2="157.154"/>
		<g>
			<g enable-background="new    ">
				<path fill="#039448" d="M182.463,180.775l-0.029-0.36c0-0.24-0.049-0.59-0.146-1.05c-0.136-0.44-0.32-0.851-0.553-1.23
					c-0.233-0.379-0.594-0.729-1.078-1.051c-0.486-0.279-1.127-0.42-1.924-0.42h-4.662l-2.043,9.989h2.041
					c0.758,0.001,1.398-0.06,1.924-0.18c0.582-0.12,1.049-0.279,1.398-0.479c0.33-0.16,0.631-0.36,0.903-0.601
					c0.253-0.22,0.427-0.42,0.524-0.6c0.078-0.1,0.131-0.185,0.16-0.255s0.063-0.135,0.103-0.195l-1.05,4.95
					c0.019-0.08,0.01-0.229-0.029-0.45c-0.078-0.22-0.175-0.42-0.291-0.6c-0.176-0.24-0.398-0.439-0.67-0.601
					c-0.254-0.159-0.652-0.319-1.195-0.479c-0.467-0.12-1.088-0.18-1.865-0.181h-2.04l-1.634,7.979
					c-0.116,0.46-0.126,0.84-0.029,1.14c0.059,0.32,0.176,0.551,0.35,0.69c0.136,0.18,0.301,0.3,0.496,0.36
					c0.174,0.08,0.368,0.14,0.582,0.18l-6.789-0.001c0.213-0.02,0.426-0.08,0.641-0.18c0.213-0.08,0.438-0.21,0.67-0.391
					c0.195-0.14,0.408-0.369,0.642-0.689c0.194-0.3,0.34-0.68,0.438-1.141l3.354-16.199c0.098-0.52,0.106-0.91,0.029-1.17
					c-0.059-0.3-0.175-0.54-0.35-0.721c-0.137-0.139-0.302-0.259-0.496-0.359c-0.098-0.039-0.185-0.064-0.262-0.074
					c-0.078-0.011-0.146-0.025-0.204-0.046c-0.077,0-0.126-0.01-0.146-0.03l14.163,0.003L182.463,180.775z"/>
				<path fill="#039448" d="M192.954,183.056c1.088,0,1.846,0.251,2.272,0.751c0.446,0.5,0.659,1.091,0.641,1.771l-0.263,0.21
					c-0.097,0.08-0.193,0.155-0.291,0.225c-0.098,0.07-0.203,0.154-0.32,0.254c-0.117,0.101-0.238,0.19-0.364,0.271
					c-0.127,0.08-0.248,0.17-0.364,0.27c-0.137,0.101-0.254,0.186-0.35,0.255c-0.098,0.07-0.195,0.136-0.292,0.195
					c-0.136,0.141-0.224,0.21-0.263,0.21c0.233-0.36,0.398-0.829,0.496-1.41c0.059-0.56-0.01-1.06-0.204-1.5
					c-0.194-0.439-0.593-0.66-1.194-0.66c-0.972,0-1.865,0.271-2.682,0.81c-0.408,0.28-0.781,0.575-1.121,0.885
					c-0.341,0.311-0.646,0.655-0.919,1.035c-0.544,0.74-0.874,1.41-0.991,2.01l-1.342,6.48c-0.098,0.46-0.107,0.81-0.029,1.05
					c0.059,0.26,0.165,0.47,0.32,0.63c0.078,0.08,0.155,0.15,0.232,0.21c0.078,0.061,0.156,0.11,0.234,0.15
					c0.174,0.1,0.359,0.16,0.553,0.18l-6.469-0.001c0.193-0.02,0.397-0.08,0.611-0.18c0.194-0.08,0.398-0.2,0.613-0.36
					c0.213-0.14,0.417-0.36,0.611-0.66s0.33-0.66,0.408-1.08l1.955-9.45c0.096-0.499,0.105-0.869,0.028-1.109
					c-0.058-0.28-0.165-0.5-0.319-0.66c-0.078-0.08-0.156-0.15-0.234-0.21c-0.077-0.06-0.155-0.109-0.232-0.15
					c-0.214-0.079-0.398-0.13-0.554-0.149l4.692,0.001l-0.817,4.08v-0.03c0.038-0.04,0.092-0.115,0.16-0.225
					c0.067-0.11,0.15-0.245,0.247-0.405c0.293-0.439,0.701-0.95,1.225-1.53c0.506-0.56,1.137-1.06,1.895-1.499
					C191.252,183.277,192.059,183.056,192.954,183.056z"/>
				<path fill="#039448" d="M205.977,194.639c-0.175,0.9-0.127,1.521,0.146,1.86c0.252,0.38,0.572,0.6,0.961,0.66
					c0.35,0.08,0.631,0.07,0.845-0.03c-0.136,0.08-0.272,0.146-0.408,0.195s-0.282,0.085-0.437,0.104
					c-0.156,0.02-0.297,0.035-0.423,0.045s-0.247,0.016-0.364,0.016c-1.321-0.001-2.234-0.222-2.738-0.661
					c-0.525-0.439-0.72-1.03-0.584-1.771l0.992-4.739c-0.039,0.08-0.078,0.164-0.117,0.255c-0.039,0.09-0.077,0.185-0.115,0.284
					c-0.117,0.261-0.248,0.54-0.395,0.841c-0.146,0.3-0.307,0.64-0.48,1.02c-0.195,0.38-0.398,0.75-0.612,1.11
					c-0.214,0.359-0.448,0.73-0.7,1.109c-0.252,0.381-0.52,0.726-0.801,1.035c-0.282,0.311-0.578,0.595-0.889,0.854
					c-0.623,0.52-1.303,0.779-2.041,0.779c-3.361-0.001-4.848-0.95-4.458-2.851c0.214-1.02,0.825-1.84,1.837-2.459
					c1.049-0.66,2.564-1.31,4.546-1.95c0.038-0.02,0.083-0.04,0.132-0.06c0.048-0.02,0.092-0.04,0.131-0.061
					c0.311-0.1,0.621-0.203,0.932-0.313s0.632-0.235,0.963-0.375c0.699-0.28,1.282-0.59,1.748-0.931
					c0.506-0.34,0.816-0.77,0.933-1.289l0.116-0.57c0.254-1.26,0.283-2.14,0.088-2.641c-0.232-0.479-0.718-0.72-1.456-0.72
					c-0.913,0-1.729,0.3-2.448,0.9c-0.699,0.579-1.293,1.289-1.777,2.129c-0.448,0.82-0.749,1.601-0.904,2.34
					c0-0.02-0.573-0.649-1.719-1.89l0.058-0.061c0.739-1.14,1.671-2.06,2.798-2.76c1.068-0.659,2.438-0.989,4.109-0.989
					c0.952,0,1.778,0.101,2.478,0.301s1.214,0.551,1.544,1.051c0.311,0.5,0.379,1.189,0.204,2.069L205.977,194.639z M198.4,197.278
					c0.603,0,1.224-0.37,1.865-1.11c0.642-0.759,1.263-1.649,1.866-2.669c0.602-1.04,1.098-2.04,1.486-3
					c0.213-0.5,0.383-0.93,0.51-1.29s0.209-0.67,0.248-0.93c-0.447,0.52-1.088,0.97-1.924,1.35c-0.408,0.2-0.826,0.386-1.253,0.555
					c-0.427,0.171-0.864,0.325-1.312,0.464c-0.855,0.261-1.632,0.75-2.332,1.471c-0.66,0.7-1.088,1.54-1.282,2.52
					c-0.155,0.7-0.049,1.311,0.32,1.83C196.903,197.007,197.506,197.278,198.4,197.278z"/>
				<path fill="#039448" d="M212.942,197.34c-0.816,0-1.438-0.24-1.865-0.72c-0.408-0.48-0.554-1.051-0.438-1.71l1.896-9.15
					c0.098-0.5,0.107-0.88,0.029-1.14c-0.059-0.26-0.175-0.5-0.35-0.721c-0.174-0.159-0.359-0.289-0.553-0.39
					c-0.176-0.08-0.369-0.14-0.584-0.18l4.867,0.001l-2.393,11.639c-0.115,0.46-0.126,0.84-0.028,1.14
					c0.058,0.32,0.175,0.551,0.35,0.69c0.136,0.18,0.3,0.3,0.495,0.36c0.175,0.08,0.369,0.14,0.582,0.18H212.942z M218.131,182.341
					c-0.389-0.42-0.768-0.8-1.136-1.14c-0.331-0.28-0.681-0.545-1.05-0.795c-0.369-0.251-0.719-0.376-1.049-0.376
					c-0.35,0-0.762,0.115-1.238,0.345c-0.477,0.23-0.938,0.485-1.385,0.765c-0.505,0.32-1.029,0.681-1.574,1.08l4.664-4.68
					L218.131,182.341z"/>
				<path fill="#039448" d="M230.981,193.263c-0.214,0.6-0.652,1.25-1.313,1.95s-1.506,1.29-2.535,1.77
					c-0.99,0.5-2.176,0.749-3.556,0.749c-1.903,0-3.399-0.681-4.487-2.041c-1.088-1.339-1.379-3.109-0.873-5.31
					c0.603-2.34,1.721-4.149,3.352-5.429c1.652-1.24,3.586-1.86,5.801-1.859c0.466,0,0.845,0.04,1.137,0.12
					c0.174,0.04,0.334,0.085,0.48,0.135c0.146,0.05,0.296,0.096,0.451,0.135c0.428,0.181,0.846,0.271,1.254,0.271
					c0.116,0,0.252-0.03,0.408-0.09c0.115-0.019,0.223-0.069,0.32-0.149c0.038-0.04,0.087-0.075,0.146-0.104
					c0.058-0.03,0.106-0.065,0.146-0.105l-2.1,3.359c-0.019-0.16-0.125-0.521-0.32-1.08c-0.174-0.5-0.523-0.97-1.049-1.41
					c-0.543-0.46-1.32-0.69-2.33-0.691c-1.069,0-1.943,0.341-2.623,1.021c-0.739,0.72-1.273,1.58-1.604,2.58
					c-0.369,1.02-0.584,2.14-0.643,3.359c-0.058,1.16,0.049,2.28,0.32,3.36c0.271,1.061,0.689,1.931,1.253,2.61
					c0.543,0.68,1.253,1.02,2.127,1.02c0.952,0,1.777-0.329,2.478-0.989c0.738-0.64,1.282-1.369,1.633-2.189
					c0.389-0.84,0.553-1.54,0.495-2.101L230.981,193.263z"/>
				<path fill="#039448" d="M246.425,196.207c0.059,0.26,0.165,0.471,0.321,0.631c0.115,0.16,0.445,0.33,0.99,0.51l-2.128-0.001
					c-0.738,0-1.292-0.22-1.661-0.66c-0.389-0.439-0.514-1-0.379-1.68l1.751-8.521c0.233-1.159,0.282-1.97,0.146-2.43
					c-0.154-0.46-0.592-0.69-1.311-0.69c-0.933,0-1.748,0.24-2.448,0.721c-0.7,0.499-1.272,1.079-1.72,1.739
					c-0.252,0.34-0.466,0.689-0.642,1.05c-0.175,0.359-0.34,0.71-0.495,1.05c-0.137,0.36-0.253,0.689-0.35,0.99
					c-0.098,0.3-0.166,0.56-0.205,0.779l-1.107,5.311c-0.117,0.44-0.127,0.81-0.029,1.109c0.059,0.32,0.174,0.551,0.35,0.69
					c0.135,0.18,0.484,0.36,1.049,0.54l-6.674-0.001c0.213-0.02,0.427-0.08,0.641-0.18c0.214-0.061,0.438-0.181,0.671-0.36
					c0.194-0.14,0.408-0.37,0.642-0.69c0.193-0.3,0.34-0.68,0.438-1.14l3.646-17.669c0.097-0.499,0.106-0.88,0.03-1.14
					c-0.059-0.28-0.176-0.51-0.351-0.69c-0.097-0.08-0.18-0.15-0.247-0.21c-0.068-0.061-0.15-0.109-0.248-0.15
					c-0.214-0.1-0.418-0.16-0.611-0.18h4.837l-2.567,12.45c0.117-0.3,0.268-0.604,0.453-0.915c0.184-0.31,0.393-0.635,0.626-0.975
					c0.466-0.641,1.068-1.21,1.808-1.709c0.719-0.48,1.592-0.721,2.623-0.721c0.68,0,1.379,0.08,2.098,0.24
					c0.66,0.142,1.195,0.451,1.603,0.931c0.388,0.461,0.495,1.121,0.32,1.98l-1.838,8.909
					C246.358,195.606,246.348,195.966,246.425,196.207z"/>
				<path fill="#039448" d="M257.324,197.319c0.854,0,1.622-0.27,2.303-0.81c0.68-0.58,1.185-1.25,1.515-2.01
					c0.352-0.8,0.516-1.58,0.496-2.341l1.604,1.111c-0.525,1.34-1.37,2.38-2.536,3.119c-1.166,0.78-2.458,1.17-3.876,1.169
					c-2.234,0-3.887-0.66-4.954-1.979c-1.087-1.321-1.397-3.062-0.932-5.222c0.428-2.18,1.448-3.948,3.062-5.309
					c1.574-1.32,3.439-1.979,5.596-1.979c1.049,0,1.913,0.24,2.594,0.722c0.659,0.5,1.145,1.14,1.456,1.92
					c0.311,0.8,0.515,1.72,0.611,2.76l-10.579,2.878c-0.078,0.92,0.029,1.84,0.32,2.76c0.33,0.9,0.776,1.66,1.34,2.28
					C255.924,197.008,256.584,197.318,257.324,197.319z M257.559,183.849c-1.243,0.339-2.205,1.169-2.885,2.489
					c-0.623,1.3-0.953,2.85-0.992,4.649l8.51-2.338c-0.193-1.741-0.709-3.051-1.543-3.931
					C259.852,183.839,258.823,183.549,257.559,183.849z"/>
				<path fill="#039448" d="M278.656,196.183c0.058,0.3,0.165,0.53,0.321,0.689c0.135,0.161,0.338,0.281,0.611,0.36
					c0.232,0.08,0.379,0.12,0.437,0.12l-3.147-0.001c-0.447,0-0.787-0.16-1.02-0.48c-0.232-0.34-0.311-0.72-0.232-1.14l0.554-2.55
					l-0.058,0.03c-0.02,0.04-0.055,0.115-0.103,0.225c-0.049,0.11-0.112,0.245-0.189,0.405c-0.136,0.22-0.292,0.465-0.467,0.734
					c-0.175,0.271-0.379,0.546-0.612,0.825c-0.232,0.28-0.495,0.556-0.787,0.825c-0.291,0.27-0.611,0.516-0.961,0.735
					c-0.72,0.459-1.516,0.688-2.391,0.688c-0.758,0-1.467-0.09-2.127-0.27c-0.641-0.14-1.166-0.45-1.573-0.932
					c-0.39-0.459-0.495-1.119-0.321-1.979l1.838-8.819c0.078-0.42,0.088-0.78,0.029-1.08c-0.098-0.279-0.213-0.51-0.349-0.689
					c-0.136-0.14-0.302-0.26-0.495-0.36c-0.176-0.08-0.359-0.13-0.555-0.151l4.751,0.001l-2.246,10.86
					c-0.233,1.12-0.282,1.9-0.146,2.34c0.135,0.44,0.572,0.66,1.311,0.66c0.776,0,1.505-0.21,2.186-0.629
					c0.68-0.42,1.263-0.939,1.748-1.56c0.506-0.62,0.904-1.21,1.195-1.771c0.311-0.54,0.496-0.99,0.555-1.35l1.283-6.209
					c0.117-0.42,0.127-0.79,0.029-1.11c-0.059-0.319-0.175-0.55-0.35-0.691c-0.136-0.14-0.301-0.259-0.495-0.359
					c-0.175-0.08-0.369-0.14-0.583-0.181l6.645,0.002c-0.02,0-0.059,0-0.116,0c-0.059,0-0.136,0.011-0.233,0.03
					c-0.194,0.039-0.418,0.13-0.67,0.27c-0.291,0.16-0.545,0.38-0.758,0.66c-0.234,0.3-0.408,0.729-0.525,1.289l-1.954,9.48
					C278.587,195.583,278.579,195.943,278.656,196.183z"/>
				<path fill="#039448" d="M293.987,183.076c1.088,0,1.846,0.251,2.273,0.75c0.445,0.5,0.659,1.091,0.641,1.771l-0.263,0.21
					c-0.097,0.08-0.194,0.155-0.292,0.225c-0.097,0.07-0.203,0.155-0.32,0.255c-0.116,0.101-0.238,0.19-0.363,0.271
					c-0.127,0.08-0.248,0.17-0.365,0.27c-0.137,0.101-0.253,0.186-0.35,0.255c-0.098,0.07-0.195,0.136-0.291,0.195
					c-0.137,0.141-0.225,0.21-0.263,0.21c0.233-0.36,0.397-0.829,0.495-1.41c0.059-0.56-0.01-1.06-0.203-1.5
					c-0.195-0.439-0.593-0.66-1.195-0.66c-0.971-0.001-1.865,0.27-2.681,0.81c-0.408,0.28-0.782,0.575-1.122,0.885
					c-0.34,0.311-0.646,0.655-0.918,1.035c-0.545,0.74-0.875,1.41-0.991,2.01l-1.343,6.479c-0.097,0.46-0.106,0.81-0.028,1.05
					c0.058,0.26,0.165,0.47,0.32,0.63c0.077,0.08,0.155,0.15,0.232,0.21c0.077,0.061,0.155,0.11,0.233,0.15
					c0.175,0.1,0.359,0.16,0.554,0.181l-6.47-0.002c0.194-0.02,0.398-0.08,0.612-0.18c0.194-0.08,0.397-0.2,0.612-0.36
					c0.213-0.139,0.418-0.359,0.611-0.659c0.195-0.3,0.33-0.66,0.408-1.08l1.955-9.45c0.097-0.499,0.106-0.869,0.029-1.109
					c-0.059-0.28-0.165-0.5-0.32-0.66c-0.078-0.08-0.156-0.15-0.233-0.21s-0.155-0.109-0.233-0.15
					c-0.213-0.079-0.398-0.13-0.553-0.149l4.691,0.001l-0.816,4.08v-0.03c0.038-0.04,0.092-0.115,0.16-0.225
					c0.067-0.11,0.15-0.245,0.247-0.405c0.292-0.439,0.7-0.95,1.225-1.53c0.505-0.56,1.137-1.06,1.895-1.5
					C292.287,183.295,293.092,183.076,293.987,183.076z"/>
				<path fill="#039448" d="M326.856,193.492c0.059,0.101,0.112,0.2,0.161,0.3c0.048,0.101,0.103,0.2,0.16,0.301
					c0.155,0.34,0.339,0.67,0.554,0.989c0.213,0.32,0.446,0.641,0.699,0.96c0.524,0.642,1.154,0.932,1.894,0.871
					c-0.622,0.4-1.331,0.601-2.128,0.6c-0.582,0-1.156-0.131-1.719-0.391c-0.582-0.279-1.176-0.81-1.777-1.59
					c-1.885,1.399-3.926,2.099-6.121,2.099c-2.642-0.001-4.584-0.4-5.827-1.201c-1.263-0.82-1.739-1.96-1.428-3.42
					c0.175-0.86,0.651-1.71,1.429-2.551c0.389-0.439,0.797-0.863,1.225-1.273c0.427-0.41,0.864-0.805,1.311-1.186
					c0.467-0.379,0.898-0.72,1.297-1.02s0.773-0.56,1.123-0.78c0.02,0,0.029-0.01,0.029-0.03h0.029v-0.029h0.029l0.087-0.061
					c0.233-0.159,0.423-0.279,0.568-0.359c0.146-0.079,0.237-0.139,0.276-0.18l0.029-0.029l-0.699-1.171
					c-0.971-1.82-1.34-3.271-1.106-4.351c0.253-1.22,0.913-2.199,1.982-2.939c1.068-0.739,2.37-1.109,3.905-1.109
					c1.088,0,2.029,0.271,2.826,0.811c0.797,0.561,1.254,1.341,1.369,2.341l-2.302,1.859c0.116-0.38,0.198-0.755,0.247-1.125
					s0.073-0.735,0.074-1.095c0-0.721-0.166-1.311-0.496-1.771c-0.35-0.46-0.951-0.69-1.807-0.69c-0.719,0-1.359,0.26-1.924,0.779
					c-0.543,0.561-0.902,1.261-1.078,2.101c-0.117,0.58-0.088,1.19,0.088,1.83c0.193,0.66,0.63,1.57,1.311,2.729l0.029,0.03
					l-0.029,0.03c0.02,0.02,0.033,0.03,0.043,0.03s0.025,0.01,0.045,0.029c0.038,0.101,0.096,0.21,0.174,0.33
					c0.039,0.08,0.077,0.15,0.116,0.21c0.039,0.061,0.077,0.12,0.116,0.181c0.059,0.14,0.127,0.239,0.205,0.3l4.865,8.371
					c1.495-1.28,2.292-2.419,2.39-3.419c0.078-0.98-0.437-1.472-1.544-1.472l4.313,0.001l-0.729,0.84
					c-0.506,0.581-1.127,1.251-1.865,2.011C328.538,191.982,327.731,192.752,326.856,193.492z M318.637,197.301
					c2.099,0,4.041-0.69,5.829-2.069c-0.039-0.1-0.116-0.229-0.233-0.39c-0.039-0.08-0.068-0.13-0.087-0.15l-5.214-8.821
					l-0.205,0.181c-0.505,0.398-0.99,0.819-1.457,1.259c-0.467,0.44-0.895,0.92-1.282,1.439c-0.798,1.061-1.293,2.081-1.487,3.061
					c-0.35,1.78-0.166,3.13,0.553,4.05C315.752,196.82,316.948,197.3,318.637,197.301z"/>
				<path fill="#039448" d="M359.815,201.809c0.524,0,0.99-0.21,1.398-0.631c0.389-0.399,0.729-0.91,1.021-1.529
					c0.136-0.3,0.267-0.601,0.394-0.9s0.248-0.6,0.364-0.899c0.019-0.081,0.044-0.161,0.073-0.24c0.029-0.08,0.063-0.16,0.102-0.24
					l1.516,2.85c-0.797,0.78-1.496,1.33-2.099,1.65c-0.583,0.34-1.195,0.52-1.837,0.54h-0.291c-0.855-0.001-1.584-0.271-2.186-0.811
					c-0.641-0.54-1.272-1.16-1.895-1.86c-0.641-0.78-1.359-1.431-2.155-1.951c-0.815-0.52-1.593-0.47-2.331,0.15
					c-0.467,0.52-0.729,1.029-0.787,1.529c-0.098,0.58,0.048,0.94,0.437,1.08c-0.544-0.14-0.962-0.5-1.253-1.08
					c-0.155-0.28-0.252-0.564-0.291-0.854s-0.029-0.585,0.029-0.885c0.02-0.08,0.097-0.24,0.232-0.48
					c0.137-0.199,0.341-0.38,0.613-0.54c0.271-0.16,0.641-0.24,1.107-0.24c0.484,0,0.922,0.07,1.311,0.21
					c-1.573-0.88-2.7-2.189-3.379-3.93c-0.699-1.741-0.815-3.711-0.35-5.91c0.408-1.999,1.215-3.81,2.42-5.43
					c1.225-1.62,2.672-2.919,4.344-3.899c1.65-0.959,3.381-1.439,5.188-1.438c1.787,0,3.321,0.48,4.604,1.44
					c0.621,0.5,1.16,1.07,1.617,1.711c0.456,0.64,0.82,1.369,1.093,2.189c0.543,1.68,0.61,3.49,0.202,5.43
					c-0.408,1.961-1.225,3.771-2.449,5.431c-1.185,1.619-2.633,2.919-4.342,3.898c-1.652,0.98-3.381,1.469-5.188,1.469
					c-1.05,0-2.012-0.18-2.886-0.54c0.933,0.641,1.778,1.42,2.536,2.341l0.378,0.42c0.271,0.279,0.515,0.54,0.729,0.779
					c0.214,0.24,0.427,0.45,0.642,0.631C358.853,201.627,359.309,201.808,359.815,201.809z M352.881,186.836
					c-0.758,3.54-0.777,6.181-0.06,7.92c0.719,1.7,2.194,2.552,4.429,2.552c2.195,0,3.974-0.85,5.334-2.55
					c1.359-1.699,2.42-4.338,3.178-7.919c0.72-3.56,0.749-6.189,0.089-7.89c-0.68-1.681-2.107-2.521-4.283-2.521
					c-2.234-0.001-4.062,0.838-5.479,2.519C354.67,180.688,353.601,183.317,352.881,186.836z"/>
				<path fill="#039448" d="M383.071,196.203c0.058,0.3,0.164,0.53,0.32,0.689c0.135,0.161,0.339,0.281,0.611,0.36
					c0.232,0.08,0.379,0.12,0.438,0.12h-3.148c-0.446,0-0.786-0.16-1.02-0.48c-0.232-0.341-0.311-0.721-0.232-1.141l0.555-2.549
					l-0.059,0.03c-0.02,0.04-0.054,0.115-0.102,0.225c-0.049,0.11-0.113,0.245-0.189,0.405c-0.137,0.219-0.292,0.464-0.467,0.733
					c-0.176,0.271-0.379,0.546-0.612,0.825c-0.233,0.28-0.495,0.556-0.787,0.825s-0.612,0.516-0.962,0.735
					c-0.719,0.46-1.516,0.689-2.39,0.688c-0.758,0-1.468-0.09-2.128-0.27c-0.641-0.14-1.166-0.45-1.572-0.931
					c-0.39-0.459-0.496-1.119-0.321-1.979l1.838-8.82c0.077-0.42,0.087-0.78,0.029-1.08c-0.098-0.279-0.214-0.51-0.349-0.689
					c-0.137-0.14-0.303-0.26-0.496-0.36c-0.175-0.08-0.359-0.13-0.554-0.15l4.751,0.001l-2.246,10.859
					c-0.234,1.12-0.283,1.9-0.146,2.34c0.135,0.44,0.572,0.66,1.311,0.661c0.777,0,1.506-0.21,2.186-0.63
					c0.681-0.42,1.264-0.939,1.749-1.56c0.505-0.62,0.904-1.21,1.195-1.77c0.311-0.54,0.495-0.99,0.554-1.35l1.283-6.21
					c0.117-0.42,0.127-0.79,0.029-1.11c-0.058-0.319-0.174-0.55-0.349-0.69c-0.136-0.14-0.302-0.259-0.495-0.359
					c-0.176-0.08-0.369-0.14-0.583-0.181l6.644,0.001c-0.02,0-0.058,0-0.115,0c-0.059,0-0.137,0.011-0.234,0.03
					c-0.193,0.04-0.418,0.131-0.67,0.271c-0.291,0.16-0.545,0.38-0.758,0.66c-0.233,0.299-0.408,0.729-0.525,1.288l-1.953,9.48
					C383.002,195.603,382.993,195.962,383.071,196.203z"/>
				<path fill="#039448" d="M399.389,194.675c-0.174,0.9-0.126,1.521,0.146,1.86c0.252,0.38,0.572,0.6,0.961,0.66
					c0.35,0.081,0.631,0.071,0.846-0.029c-0.137,0.08-0.273,0.146-0.408,0.195c-0.137,0.05-0.282,0.084-0.438,0.104
					c-0.156,0.02-0.297,0.035-0.422,0.045c-0.127,0.01-0.248,0.016-0.365,0.016c-1.32,0-2.234-0.221-2.738-0.66
					c-0.525-0.439-0.719-1.03-0.583-1.771l0.991-4.739c-0.039,0.08-0.077,0.164-0.116,0.255c-0.039,0.09-0.077,0.185-0.116,0.284
					c-0.117,0.261-0.248,0.54-0.394,0.841c-0.146,0.3-0.307,0.64-0.481,1.02c-0.194,0.38-0.398,0.75-0.611,1.11
					c-0.215,0.358-0.448,0.729-0.701,1.108c-0.252,0.381-0.52,0.726-0.801,1.035c-0.281,0.311-0.578,0.596-0.889,0.855
					c-0.623,0.52-1.303,0.779-2.041,0.779c-3.361-0.001-4.847-0.95-4.457-2.851c0.213-1.02,0.825-1.84,1.836-2.46
					c1.049-0.66,2.564-1.309,4.547-1.949c0.038-0.02,0.082-0.04,0.131-0.06s0.092-0.04,0.131-0.061
					c0.311-0.1,0.621-0.204,0.933-0.314c0.311-0.11,0.632-0.235,0.962-0.375c0.699-0.279,1.283-0.589,1.749-0.93
					c0.505-0.34,0.815-0.77,0.933-1.289l0.116-0.57c0.253-1.26,0.282-2.14,0.088-2.641c-0.232-0.479-0.718-0.72-1.456-0.72
					c-0.914,0-1.73,0.299-2.449,0.899c-0.699,0.58-1.292,1.29-1.777,2.13c-0.447,0.82-0.748,1.601-0.904,2.34
					c0-0.02-0.572-0.649-1.719-1.891l0.059-0.061c0.738-1.139,1.671-2.059,2.798-2.759c1.068-0.66,2.438-0.99,4.109-0.989
					c0.952,0,1.778,0.101,2.478,0.3c0.699,0.2,1.213,0.551,1.543,1.052c0.311,0.5,0.379,1.189,0.205,2.069L399.389,194.675z
					 M391.813,197.315c0.602,0,1.223-0.37,1.865-1.11c0.641-0.76,1.262-1.65,1.865-2.67c0.602-1.039,1.098-2.039,1.486-2.999
					c0.214-0.5,0.384-0.93,0.51-1.29c0.127-0.36,0.21-0.67,0.249-0.93c-0.447,0.52-1.089,0.97-1.924,1.35
					c-0.408,0.199-0.826,0.385-1.253,0.554c-0.428,0.171-0.865,0.325-1.312,0.465c-0.855,0.261-1.632,0.75-2.332,1.471
					c-0.661,0.699-1.089,1.539-1.282,2.519c-0.156,0.7-0.049,1.311,0.32,1.83C390.316,197.043,390.918,197.315,391.813,197.315z"/>
				<path fill="#039448" d="M406.879,196.147c0.059,0.32,0.175,0.551,0.35,0.69c0.135,0.18,0.301,0.3,0.495,0.36
					c0.175,0.08,0.368,0.14,0.583,0.18h-2.011c-0.816-0.001-1.438-0.241-1.864-0.721c-0.447-0.46-0.594-1.01-0.438-1.65
					l3.646-17.639c0.097-0.521,0.105-0.91,0.029-1.171c-0.098-0.279-0.215-0.51-0.35-0.689c-0.098-0.08-0.18-0.15-0.248-0.211
					c-0.068-0.06-0.15-0.109-0.248-0.149c-0.213-0.101-0.418-0.159-0.611-0.181l4.838,0.002l-4.143,20.069
					C406.792,195.478,406.782,195.847,406.879,196.147z"/>
				<path fill="#039448" d="M414.222,197.378c-0.815,0-1.438-0.24-1.864-0.72c-0.408-0.48-0.555-1.05-0.438-1.71l1.896-9.15
					c0.097-0.5,0.106-0.88,0.029-1.14c-0.059-0.26-0.176-0.5-0.35-0.721c-0.175-0.159-0.359-0.289-0.554-0.39
					c-0.175-0.08-0.369-0.14-0.583-0.18l4.867,0.001l-2.393,11.639c-0.116,0.46-0.127,0.84-0.029,1.14
					c0.059,0.32,0.176,0.551,0.35,0.69c0.136,0.18,0.301,0.3,0.495,0.36c0.175,0.08,0.369,0.14,0.583,0.181L414.222,197.378z
					 M416.791,176.378c-0.077,0.341-0.073,0.676,0.015,1.006s0.232,0.62,0.438,0.87c0.203,0.25,0.446,0.45,0.729,0.6
					c0.281,0.15,0.586,0.226,0.917,0.226c-0.331,0-0.671,0.085-1.021,0.255s-0.675,0.385-0.976,0.645
					c-0.302,0.261-0.563,0.551-0.787,0.869c-0.224,0.32-0.364,0.63-0.423,0.931c0.059-0.301,0.045-0.61-0.043-0.931
					c-0.088-0.319-0.229-0.609-0.423-0.87c-0.194-0.26-0.437-0.475-0.729-0.645s-0.593-0.255-0.903-0.255
					c0.33,0,0.67-0.075,1.021-0.225c0.35-0.15,0.675-0.355,0.976-0.615c0.302-0.26,0.559-0.55,0.773-0.87
					C416.567,177.049,416.713,176.719,416.791,176.378z"/>
				<path fill="#039448" d="M428.008,183.372l-0.057,0.359l-2.71-0.001l-2.334,11.16c-0.137,0.7-0.121,1.221,0.043,1.561
					c0.166,0.34,0.379,0.569,0.641,0.689c0.263,0.12,0.529,0.17,0.803,0.15c0.271-0.02,0.455-0.061,0.553-0.12
					c-0.271,0.16-0.714,0.274-1.326,0.345c-0.611,0.07-1.214,0.045-1.807-0.075s-1.088-0.355-1.485-0.705
					c-0.398-0.351-0.53-0.875-0.394-1.575l2.363-11.43l-2.682-0.001l0.088-0.359c0.854,0,1.578-0.175,2.171-0.524
					s1.078-0.78,1.457-1.29c0.38-0.51,0.671-1.045,0.875-1.604s0.354-1.05,0.452-1.47c0.291-0.061,0.543,0.025,0.758,0.255
					c0.213,0.229,0.354,0.524,0.422,0.885c0.068,0.359,0.059,0.76-0.029,1.2c-0.088,0.439-0.287,0.845-0.598,1.215
					s-0.748,0.685-1.312,0.944c-0.563,0.261-1.282,0.391-2.157,0.391L428.008,183.372z"/>
				<path fill="#039448" d="M434.125,197.352c0.855,0,1.623-0.27,2.303-0.81c0.68-0.579,1.186-1.249,1.516-2.009
					c0.35-0.8,0.516-1.58,0.496-2.341l1.604,1.11c-0.525,1.34-1.371,2.381-2.537,3.12c-1.166,0.779-2.459,1.169-3.877,1.169
					c-2.234-0.001-3.885-0.661-4.953-1.98c-1.088-1.32-1.398-3.061-0.932-5.221c0.428-2.18,1.449-3.949,3.061-5.31
					c1.574-1.319,3.439-1.979,5.596-1.979c1.051,0.001,1.914,0.241,2.594,0.722c0.66,0.5,1.146,1.14,1.457,1.92
					c0.311,0.8,0.514,1.72,0.611,2.76l-10.578,2.878c-0.078,0.92,0.027,1.84,0.32,2.76c0.328,0.9,0.775,1.66,1.34,2.281
					C432.727,197.042,433.387,197.352,434.125,197.352z M434.361,183.882c-1.244,0.34-2.205,1.17-2.885,2.489
					c-0.623,1.3-0.953,2.85-0.992,4.649l8.51-2.338c-0.195-1.74-0.709-3.05-1.545-3.93
					C436.654,183.873,435.623,183.583,434.361,183.882z M440.949,177.614c-0.391,0.46-0.865,0.94-1.43,1.439
					c-0.563,0.5-1.146,0.975-1.748,1.425s-1.189,0.85-1.764,1.199c-0.574,0.351-1.064,0.585-1.471,0.705
					c0.291-0.22,0.635-0.545,1.033-0.975c0.398-0.431,0.787-0.886,1.166-1.365s0.709-0.944,0.992-1.395
					c0.281-0.45,0.451-0.795,0.51-1.035L440.949,177.614z"/>
				<path fill="#039448" d="M469.502,194.689c-0.174,0.9-0.125,1.521,0.146,1.86c0.252,0.38,0.572,0.6,0.961,0.66
					c0.35,0.08,0.631,0.07,0.846-0.03c-0.137,0.08-0.271,0.146-0.408,0.195s-0.281,0.085-0.438,0.104
					c-0.154,0.02-0.295,0.035-0.422,0.045s-0.248,0.016-0.365,0.016c-1.32,0-2.234-0.222-2.738-0.661
					c-0.525-0.439-0.719-1.03-0.584-1.771l0.992-4.739c-0.039,0.08-0.078,0.164-0.115,0.255c-0.039,0.09-0.078,0.185-0.117,0.284
					c-0.117,0.261-0.248,0.54-0.395,0.841c-0.145,0.3-0.305,0.64-0.48,1.02c-0.195,0.38-0.398,0.75-0.613,1.11
					c-0.213,0.359-0.445,0.73-0.699,1.109c-0.252,0.381-0.52,0.726-0.801,1.035c-0.281,0.311-0.578,0.596-0.889,0.855
					c-0.621,0.52-1.303,0.778-2.039,0.778c-3.361,0-4.848-0.95-4.459-2.851c0.213-1.02,0.826-1.839,1.836-2.459
					c1.049-0.66,2.564-1.31,4.547-1.949c0.039-0.02,0.082-0.04,0.131-0.06s0.092-0.04,0.131-0.061
					c0.311-0.1,0.621-0.204,0.934-0.314c0.311-0.11,0.631-0.235,0.961-0.375c0.699-0.28,1.281-0.59,1.748-0.931
					c0.506-0.339,0.816-0.769,0.934-1.288l0.117-0.57c0.252-1.26,0.281-2.14,0.088-2.641c-0.234-0.479-0.721-0.721-1.457-0.721
					c-0.914,0-1.73,0.3-2.449,0.9c-0.699,0.58-1.291,1.29-1.777,2.13c-0.447,0.819-0.75,1.6-0.904,2.339
					c0-0.02-0.574-0.649-1.719-1.89l0.059-0.061c0.738-1.14,1.67-2.06,2.797-2.759c1.068-0.66,2.439-0.99,4.109-0.99
					c0.951,0.001,1.777,0.102,2.477,0.301c0.701,0.2,1.215,0.551,1.545,1.051c0.311,0.5,0.379,1.189,0.205,2.069L469.502,194.689z
					 M461.926,197.328c0.602,0.001,1.225-0.369,1.865-1.109c0.641-0.76,1.262-1.65,1.865-2.67c0.602-1.04,1.098-2.04,1.486-3
					c0.215-0.5,0.385-0.93,0.51-1.289c0.127-0.36,0.209-0.67,0.248-0.93c-0.447,0.519-1.088,0.969-1.924,1.349
					c-0.406,0.2-0.824,0.386-1.252,0.555c-0.428,0.171-0.865,0.325-1.313,0.465c-0.854,0.261-1.631,0.749-2.33,1.47
					c-0.662,0.7-1.09,1.54-1.283,2.52c-0.156,0.7-0.049,1.311,0.32,1.83C460.43,197.057,461.031,197.328,461.926,197.328z"/>
				<path fill="#039448" d="M486.201,196.222c0.059,0.3,0.166,0.53,0.32,0.689c0.137,0.161,0.34,0.281,0.613,0.36
					c0.232,0.08,0.379,0.12,0.438,0.12h-3.148c-0.447,0-0.787-0.16-1.02-0.48c-0.232-0.34-0.311-0.72-0.232-1.14l0.553-2.55
					l-0.059,0.03c-0.02,0.04-0.053,0.115-0.102,0.225c-0.049,0.11-0.111,0.245-0.189,0.405c-0.137,0.22-0.291,0.465-0.467,0.733
					c-0.174,0.271-0.379,0.546-0.611,0.825c-0.232,0.28-0.496,0.556-0.787,0.825s-0.611,0.516-0.961,0.735
					c-0.719,0.46-1.516,0.689-2.391,0.689c-0.758-0.001-1.467-0.091-2.127-0.271c-0.641-0.14-1.166-0.45-1.574-0.931
					c-0.389-0.459-0.494-1.119-0.32-1.979l1.838-8.82c0.078-0.42,0.088-0.78,0.029-1.08c-0.098-0.279-0.215-0.51-0.35-0.689
					c-0.137-0.14-0.301-0.26-0.496-0.36c-0.174-0.08-0.359-0.13-0.553-0.15l4.75,0.001l-2.246,10.859
					c-0.232,1.12-0.281,1.9-0.146,2.34c0.137,0.44,0.574,0.66,1.313,0.661c0.777,0,1.506-0.21,2.186-0.63s1.262-0.939,1.748-1.56
					c0.506-0.62,0.904-1.209,1.195-1.77c0.311-0.54,0.496-0.99,0.555-1.35l1.283-6.21c0.117-0.42,0.125-0.79,0.029-1.11
					c-0.059-0.319-0.176-0.55-0.35-0.69c-0.137-0.14-0.303-0.259-0.496-0.359c-0.174-0.08-0.369-0.14-0.582-0.181l6.645,0.001
					c-0.02,0-0.059,0-0.117,0s-0.137,0.011-0.232,0.03c-0.195,0.04-0.418,0.131-0.672,0.271c-0.291,0.16-0.543,0.38-0.758,0.66
					c-0.232,0.3-0.406,0.729-0.523,1.289l-1.955,9.479C486.133,195.623,486.123,195.982,486.201,196.222z"/>
				<path fill="#039448" d="M527.408,196.169c0.059,0.32,0.174,0.551,0.35,0.69c0.135,0.18,0.301,0.3,0.496,0.36
					c0.174,0.1,0.359,0.16,0.553,0.18h-1.895c-0.836,0-1.477-0.229-1.924-0.69c-0.426-0.439-0.582-0.979-0.465-1.619l1.779-8.551
					c0.232-1.159,0.281-1.949,0.145-2.37c-0.135-0.439-0.582-0.659-1.34-0.659c-0.951,0-1.816,0.238-2.594,0.719
					c-0.389,0.26-0.748,0.55-1.078,0.87s-0.631,0.68-0.902,1.08c-0.506,0.8-0.865,1.649-1.08,2.55l-1.313,6.359
					c-0.098,0.46-0.098,0.82,0,1.079c0.059,0.32,0.176,0.551,0.35,0.69c0.176,0.18,0.35,0.3,0.525,0.361
					c0.174,0.08,0.369,0.14,0.582,0.18l-2.244-0.001c-0.699,0-1.252-0.24-1.66-0.72c-0.428-0.48-0.584-1.01-0.467-1.59l1.779-8.551
					c0.234-1.159,0.281-1.949,0.146-2.37c-0.117-0.439-0.555-0.659-1.313-0.659c-0.893,0-1.67,0.19-2.33,0.568
					c-0.662,0.381-1.234,0.87-1.721,1.471c-0.484,0.62-0.863,1.229-1.137,1.83c-0.271,0.64-0.447,1.18-0.525,1.619l-1.283,6.091
					c-0.098,0.46-0.098,0.82,0,1.079c0.059,0.301,0.166,0.53,0.322,0.69c0.135,0.18,0.301,0.3,0.494,0.36
					c0.176,0.08,0.369,0.14,0.584,0.18l-6.615-0.001c0.193-0.02,0.396-0.08,0.611-0.18c0.213-0.061,0.438-0.181,0.67-0.36
					c0.232-0.14,0.438-0.37,0.611-0.69c0.195-0.3,0.33-0.659,0.408-1.079l1.955-9.36c0.078-0.42,0.088-0.8,0.029-1.14
					c-0.059-0.301-0.176-0.521-0.35-0.66c-0.137-0.14-0.301-0.26-0.496-0.36c-0.174-0.08-0.359-0.14-0.553-0.18l4.75,0.001
					l-0.816,4.05c0.098-0.399,0.379-0.96,0.846-1.68c0.426-0.641,1.039-1.25,1.836-1.83c0.775-0.539,1.719-0.81,2.826-0.81
					c0.271,0,0.535,0.011,0.787,0.03c0.252,0.021,0.514,0.05,0.787,0.09c0.543,0.101,1.02,0.25,1.428,0.45
					c0.797,0.521,1.107,1.291,0.932,2.311l-0.35,1.74c0.137-0.68,0.477-1.369,1.021-2.07c0.523-0.68,1.193-1.279,2.01-1.8
					c0.797-0.499,1.689-0.749,2.682-0.749c0.68,0,1.379,0.08,2.098,0.24c0.66,0.141,1.195,0.45,1.604,0.93
					c0.389,0.462,0.494,1.122,0.32,1.98l-1.838,8.82C527.359,195.51,527.35,195.87,527.408,196.169z"/>
				<path fill="#039448" d="M538.395,197.372c0.854,0,1.621-0.269,2.301-0.809c0.682-0.58,1.186-1.25,1.516-2.01
					c0.35-0.8,0.516-1.58,0.498-2.341l1.602,1.11c-0.525,1.34-1.371,2.381-2.535,3.12c-1.166,0.78-2.459,1.169-3.877,1.169
					c-2.234,0-3.885-0.661-4.953-1.98c-1.09-1.32-1.398-3.061-0.932-5.221c0.426-2.18,1.447-3.949,3.061-5.309
					c1.574-1.32,3.438-1.98,5.596-1.979c1.049,0,1.912,0.24,2.594,0.721c0.66,0.5,1.145,1.14,1.457,1.921
					c0.311,0.8,0.514,1.72,0.609,2.76l-10.578,2.878c-0.078,0.92,0.029,1.84,0.32,2.76c0.33,0.9,0.777,1.66,1.34,2.28
					C536.996,197.062,537.656,197.372,538.395,197.372z M538.629,183.902c-1.244,0.34-2.205,1.17-2.885,2.49
					c-0.623,1.3-0.953,2.85-0.992,4.649l8.51-2.339c-0.193-1.74-0.709-3.05-1.543-3.93
					C540.922,183.893,539.893,183.603,538.629,183.902z"/>
				<path fill="#039448" d="M549.992,197.405c-0.816-0.001-1.438-0.241-1.865-0.721c-0.408-0.48-0.553-1.05-0.436-1.71l1.895-9.15
					c0.098-0.5,0.107-0.88,0.029-1.14c-0.059-0.26-0.174-0.5-0.35-0.721c-0.174-0.159-0.359-0.289-0.553-0.39
					c-0.176-0.08-0.369-0.14-0.584-0.18l4.867,0.001l-2.391,11.64c-0.117,0.46-0.127,0.84-0.029,1.14
					c0.057,0.32,0.174,0.551,0.35,0.69c0.135,0.18,0.301,0.3,0.494,0.36c0.176,0.08,0.369,0.14,0.584,0.18H549.992z
					 M552.561,176.405c-0.078,0.341-0.072,0.675,0.016,1.005c0.086,0.33,0.232,0.62,0.436,0.87c0.203,0.251,0.447,0.45,0.729,0.601
					c0.281,0.149,0.588,0.225,0.918,0.225c-0.33,0-0.67,0.085-1.02,0.255s-0.676,0.385-0.977,0.645
					c-0.301,0.261-0.564,0.551-0.787,0.87c-0.223,0.32-0.363,0.63-0.422,0.931c0.059-0.301,0.043-0.61-0.045-0.931
					c-0.086-0.319-0.229-0.609-0.422-0.87c-0.195-0.26-0.438-0.475-0.729-0.645s-0.594-0.256-0.904-0.256
					c0.332,0,0.672-0.074,1.021-0.225c0.35-0.149,0.674-0.354,0.977-0.615c0.301-0.26,0.557-0.55,0.771-0.869
					S552.482,176.746,552.561,176.405z"/>
				<path fill="#039448" d="M558.443,196.175c0.059,0.32,0.174,0.551,0.35,0.69c0.135,0.18,0.301,0.3,0.496,0.36
					c0.174,0.08,0.367,0.14,0.582,0.18h-2.012c-0.814,0-1.438-0.24-1.865-0.72c-0.445-0.46-0.592-1.01-0.436-1.65l3.646-17.64
					c0.096-0.52,0.105-0.91,0.029-1.17c-0.098-0.279-0.215-0.51-0.35-0.689c-0.098-0.08-0.18-0.15-0.248-0.211
					s-0.15-0.109-0.248-0.15c-0.215-0.1-0.418-0.159-0.611-0.18l4.836,0.001l-4.141,20.069
					C558.355,195.506,558.346,195.875,558.443,196.175z"/>
				<path fill="#039448" d="M566.311,196.177c0.059,0.32,0.176,0.551,0.35,0.69c0.137,0.18,0.301,0.3,0.496,0.36
					c0.176,0.08,0.369,0.14,0.582,0.18h-2.01c-0.816-0.001-1.438-0.241-1.865-0.721c-0.447-0.46-0.594-1.01-0.438-1.65l3.646-17.639
					c0.098-0.52,0.107-0.91,0.029-1.17c-0.098-0.28-0.213-0.51-0.35-0.69c-0.098-0.079-0.18-0.149-0.248-0.21
					s-0.15-0.109-0.248-0.15c-0.213-0.1-0.418-0.16-0.611-0.18h4.838l-4.143,20.07C566.225,195.508,566.213,195.877,566.311,196.177
					z"/>
				<path fill="#039448" d="M577.326,197.379c0.855,0,1.623-0.27,2.303-0.81c0.68-0.58,1.186-1.249,1.516-2.009
					c0.35-0.8,0.516-1.58,0.496-2.341l1.602,1.11c-0.523,1.34-1.369,2.381-2.535,3.12c-1.166,0.779-2.457,1.169-3.875,1.169
					c-2.234-0.001-3.887-0.661-4.955-1.98c-1.088-1.32-1.398-3.061-0.932-5.221c0.428-2.18,1.449-3.949,3.061-5.31
					c1.574-1.319,3.439-1.979,5.596-1.979c1.049,0,1.914,0.241,2.594,0.722c0.66,0.5,1.146,1.14,1.457,1.92
					c0.311,0.8,0.514,1.72,0.611,2.76l-10.578,2.878c-0.078,0.92,0.027,1.84,0.318,2.76c0.33,0.9,0.777,1.66,1.342,2.28
					C575.928,197.07,576.588,197.379,577.326,197.379z M577.563,183.91c-1.244,0.34-2.205,1.169-2.887,2.489
					c-0.621,1.3-0.953,2.85-0.99,4.649l8.51-2.338c-0.195-1.74-0.709-3.05-1.545-3.931C579.854,183.9,578.824,183.61,577.563,183.91
					z"/>
				<path fill="#039448" d="M598.658,196.244c0.059,0.3,0.166,0.53,0.32,0.689c0.137,0.161,0.34,0.281,0.613,0.36
					c0.232,0.08,0.379,0.12,0.438,0.12h-3.148c-0.447,0-0.787-0.16-1.02-0.481c-0.232-0.34-0.311-0.72-0.232-1.14l0.553-2.549
					l-0.059,0.03c-0.02,0.04-0.053,0.114-0.102,0.224c-0.049,0.11-0.111,0.245-0.189,0.405c-0.137,0.22-0.291,0.465-0.467,0.734
					c-0.174,0.271-0.379,0.546-0.611,0.825c-0.232,0.28-0.496,0.556-0.787,0.825s-0.611,0.516-0.961,0.735
					c-0.719,0.46-1.516,0.689-2.391,0.688c-0.758,0-1.467-0.09-2.127-0.27c-0.641-0.14-1.166-0.45-1.574-0.931
					c-0.389-0.459-0.494-1.119-0.32-1.979l1.838-8.82c0.078-0.42,0.088-0.78,0.029-1.08c-0.098-0.279-0.215-0.51-0.35-0.689
					c-0.137-0.14-0.301-0.26-0.496-0.36c-0.174-0.08-0.359-0.13-0.553-0.15l4.75,0.001l-2.246,10.859
					c-0.232,1.12-0.281,1.9-0.146,2.34c0.137,0.44,0.574,0.66,1.313,0.66c0.777,0.001,1.506-0.209,2.186-0.629
					s1.262-0.939,1.748-1.56c0.506-0.62,0.904-1.21,1.195-1.771c0.311-0.539,0.496-0.989,0.555-1.349l1.283-6.21
					c0.117-0.42,0.125-0.79,0.029-1.11c-0.059-0.319-0.176-0.55-0.35-0.69c-0.137-0.14-0.303-0.259-0.496-0.359
					c-0.174-0.08-0.369-0.14-0.582-0.181l6.645,0.001c-0.02,0-0.059,0-0.117,0s-0.137,0.011-0.232,0.03
					c-0.195,0.04-0.418,0.131-0.672,0.271c-0.291,0.16-0.543,0.38-0.758,0.659c-0.232,0.3-0.406,0.729-0.523,1.289l-1.955,9.48
					C598.59,195.644,598.58,196.003,598.658,196.244z"/>
				<path fill="#039448" d="M613.99,183.136c1.086,0,1.844,0.251,2.271,0.75c0.447,0.501,0.66,1.092,0.643,1.771l-0.264,0.209
					c-0.098,0.08-0.193,0.155-0.291,0.225c-0.098,0.07-0.203,0.155-0.32,0.255c-0.117,0.101-0.238,0.19-0.365,0.271
					c-0.125,0.08-0.246,0.17-0.363,0.27c-0.137,0.101-0.252,0.186-0.35,0.255c-0.098,0.07-0.195,0.136-0.291,0.195
					c-0.137,0.141-0.225,0.21-0.264,0.21c0.234-0.36,0.398-0.829,0.496-1.41c0.059-0.56-0.01-1.06-0.203-1.5
					c-0.195-0.439-0.594-0.66-1.195-0.66c-0.973,0-1.865,0.271-2.682,0.81c-0.408,0.28-0.781,0.575-1.121,0.885
					c-0.34,0.311-0.646,0.655-0.918,1.035c-0.545,0.74-0.875,1.41-0.992,2.01l-1.342,6.48c-0.098,0.459-0.107,0.809-0.029,1.05
					c0.059,0.26,0.166,0.47,0.32,0.63c0.078,0.08,0.156,0.15,0.234,0.21c0.076,0.061,0.154,0.11,0.232,0.15
					c0.176,0.1,0.359,0.16,0.553,0.18l-6.469-0.001c0.193-0.02,0.398-0.08,0.611-0.18c0.195-0.08,0.398-0.2,0.613-0.36
					c0.213-0.14,0.418-0.36,0.611-0.66s0.33-0.66,0.408-1.08l1.955-9.45c0.096-0.499,0.105-0.869,0.029-1.109
					c-0.059-0.28-0.166-0.5-0.322-0.66c-0.076-0.08-0.154-0.15-0.232-0.21s-0.156-0.109-0.232-0.15
					c-0.215-0.079-0.398-0.13-0.555-0.149l4.691,0.001l-0.814,4.08v-0.03c0.039-0.04,0.092-0.115,0.16-0.225
					c0.066-0.11,0.15-0.245,0.248-0.405c0.291-0.439,0.699-0.95,1.223-1.53c0.506-0.56,1.137-1.06,1.895-1.499
					C612.289,183.357,613.096,183.136,613.99,183.136z"/>
				<path fill="#039448" d="M641.994,183.141c1.516,0.001,2.672,0.342,3.469,1.021c0.834,0.7,1.369,1.6,1.602,2.7
					c0.232,1.12,0.223,2.31-0.029,3.569c-0.156,0.641-0.35,1.256-0.584,1.846c-0.232,0.59-0.535,1.165-0.904,1.725
					c-0.699,1.1-1.611,1.99-2.738,2.67c-1.127,0.679-2.439,1.019-3.934,1.019c-1.127,0-1.963-0.421-2.508-1.261
					c-0.582-0.88-0.883-1.899-0.902-3.06l-1.691,8.13c-0.078,0.42-0.088,0.78-0.029,1.08s0.164,0.529,0.32,0.689
					c0.135,0.181,0.291,0.311,0.465,0.391c0.078,0.04,0.166,0.069,0.264,0.09c0.096,0.02,0.193,0.04,0.291,0.06l-6.412-0.001
					c0.039,0,0.084-0.005,0.131-0.015c0.049-0.011,0.123-0.025,0.219-0.045c0.156-0.021,0.369-0.12,0.643-0.3
					c0.213-0.141,0.438-0.36,0.67-0.66c0.234-0.3,0.389-0.69,0.467-1.17l3.326-15.899c0.174-0.8,0.115-1.359-0.176-1.68
					c-0.271-0.3-0.68-0.5-1.225-0.601l4.664,0.001l-0.613,3.029c-0.408,1.8-0.699,3.16-0.875,4.08
					c0.098-0.399,0.205-0.805,0.32-1.215c0.117-0.41,0.252-0.835,0.408-1.275c0.313-0.819,0.721-1.619,1.225-2.398
					c0.486-0.74,1.068-1.351,1.75-1.83C640.322,183.372,641.119,183.141,641.994,183.141z M638.816,197.362
					c1.359,0,2.447-0.561,3.264-1.681c0.834-1.099,1.506-2.849,2.012-5.249c0.467-2.38,0.555-4.14,0.264-5.279
					c-0.332-1.12-1.156-1.681-2.479-1.682c-1.029,0-1.932,0.391-2.709,1.17c-0.389,0.4-0.744,0.836-1.064,1.306
					s-0.607,0.965-0.859,1.484c-0.271,0.52-0.486,1.034-0.643,1.544c-0.154,0.511-0.281,0.995-0.379,1.455
					c-0.428,2.34-0.359,4.08,0.203,5.221C637.01,196.791,637.805,197.362,638.816,197.362z"/>
				<path fill="#039448" d="M660.063,183.145c1.086,0,1.844,0.251,2.271,0.75c0.447,0.5,0.66,1.092,0.643,1.771l-0.264,0.209
					c-0.098,0.08-0.193,0.155-0.291,0.225c-0.098,0.07-0.203,0.155-0.32,0.255c-0.117,0.101-0.238,0.19-0.365,0.271
					c-0.125,0.08-0.246,0.17-0.363,0.27c-0.137,0.101-0.252,0.186-0.35,0.255c-0.098,0.07-0.195,0.136-0.291,0.195
					c-0.137,0.141-0.225,0.21-0.264,0.21c0.234-0.36,0.398-0.829,0.496-1.41c0.059-0.56-0.01-1.06-0.203-1.5
					c-0.195-0.439-0.594-0.66-1.195-0.66c-0.973,0-1.865,0.27-2.682,0.81c-0.408,0.28-0.781,0.575-1.121,0.885
					c-0.34,0.311-0.646,0.655-0.918,1.035c-0.545,0.74-0.875,1.41-0.992,2.01l-1.342,6.479c-0.098,0.46-0.107,0.81-0.029,1.05
					c0.059,0.26,0.166,0.471,0.32,0.631c0.078,0.08,0.156,0.15,0.234,0.21c0.076,0.061,0.154,0.11,0.232,0.15
					c0.176,0.1,0.359,0.16,0.553,0.18l-6.469-0.002c0.193-0.019,0.398-0.079,0.611-0.179c0.195-0.08,0.398-0.2,0.613-0.36
					c0.213-0.14,0.418-0.36,0.611-0.66s0.33-0.66,0.408-1.08l1.955-9.45c0.096-0.499,0.105-0.869,0.029-1.109
					c-0.059-0.28-0.166-0.5-0.322-0.66c-0.076-0.08-0.154-0.15-0.232-0.21s-0.156-0.109-0.232-0.15
					c-0.215-0.079-0.398-0.13-0.555-0.149l4.691,0.001l-0.814,4.08v-0.03c0.039-0.04,0.092-0.115,0.16-0.225
					c0.066-0.11,0.15-0.245,0.248-0.405c0.291-0.439,0.699-0.95,1.223-1.53c0.506-0.56,1.137-1.06,1.895-1.5
					C658.361,183.366,659.168,183.145,660.063,183.145z"/>
				<path fill="#039448" d="M665.859,197.426c-0.816,0-1.439-0.24-1.865-0.72c-0.408-0.48-0.555-1.05-0.438-1.71l1.896-9.15
					c0.098-0.5,0.105-0.88,0.029-1.14c-0.059-0.26-0.176-0.5-0.35-0.721c-0.176-0.159-0.359-0.289-0.555-0.39
					c-0.174-0.08-0.369-0.14-0.582-0.18l4.867,0.001l-2.393,11.639c-0.117,0.46-0.127,0.84-0.029,1.14
					c0.059,0.32,0.176,0.551,0.35,0.69c0.137,0.18,0.301,0.3,0.496,0.36c0.174,0.08,0.369,0.14,0.582,0.18H665.859z
					 M668.428,176.427c-0.078,0.34-0.074,0.674,0.014,1.004c0.086,0.33,0.232,0.621,0.438,0.871c0.203,0.25,0.445,0.45,0.729,0.6
					c0.281,0.15,0.586,0.226,0.918,0.226c-0.332,0-0.672,0.085-1.021,0.255s-0.674,0.385-0.977,0.645
					c-0.301,0.261-0.563,0.55-0.785,0.869c-0.225,0.32-0.365,0.63-0.424,0.931c0.059-0.301,0.045-0.61-0.043-0.931
					c-0.088-0.319-0.229-0.609-0.422-0.87c-0.195-0.26-0.438-0.475-0.729-0.645c-0.293-0.17-0.594-0.255-0.904-0.255
					c0.33,0,0.67-0.075,1.02-0.225c0.35-0.15,0.676-0.355,0.977-0.615s0.559-0.55,0.773-0.869
					C668.203,177.097,668.35,176.767,668.428,176.427z"/>
				<path fill="#039448" d="M681.77,196.62c0.252,0.26,0.496,0.43,0.729,0.51c0.193,0.101,0.467,0.2,0.816,0.3h0.029l-2.127-0.03
					c-1.051,0-1.828-0.169-2.332-0.51c-0.525-0.34-0.855-0.711-0.99-1.111l-1.807-4.199l-4.314,4.229
					c-0.098,0.12-0.18,0.23-0.248,0.33c-0.068,0.101-0.121,0.2-0.16,0.3c-0.098,0.181-0.125,0.33-0.086,0.45
					c0,0.12,0.047,0.21,0.145,0.271c0.078,0.1,0.166,0.16,0.262,0.18c0.117,0.04,0.225,0.07,0.322,0.09h-3.701
					c0.523-0.14,0.99-0.319,1.398-0.54c0.428-0.199,0.854-0.51,1.281-0.93l4.898-4.799l-2.477-5.851
					c-0.273-0.561-0.594-0.98-0.963-1.261c-0.311-0.24-0.631-0.41-0.961-0.51l-0.32-0.091c-0.039,0-0.059-0.01-0.059-0.029h-0.059
					l2.594,0.03c0.895,0,1.564,0.141,2.012,0.421c0.408,0.28,0.689,0.6,0.844,0.96l1.748,4.05l3.965-3.869
					c0.193-0.18,0.33-0.38,0.408-0.6c0.059-0.141,0.059-0.29,0-0.45c-0.039-0.08-0.117-0.181-0.234-0.3
					c-0.057-0.04-0.115-0.08-0.174-0.12s-0.127-0.08-0.205-0.12l3.469,0.001l-0.291,0.06c-0.291,0.061-0.613,0.19-0.963,0.391
					c-0.193,0.1-0.398,0.225-0.611,0.375c-0.215,0.148-0.438,0.334-0.67,0.554l-4.518,4.47l2.738,6.36
					C681.293,196.049,681.498,196.379,681.77,196.62z"/>
			</g>
		</g>
	</g>
	<g>
		<path fill="#FFFFFF" d="M561.44,233.689v-7.897h3.113v7.891c0,1.028,0.826,1.715,1.709,1.715c0.875,0,1.727-0.697,1.727-1.715
			v-7.891h3.109v7.897c0,2.847-2.166,4.855-4.83,4.855C563.608,238.545,561.44,236.536,561.44,233.689"/>
		<path fill="#FFFFFF" d="M579.03,238.2l-3.109-5.389v5.389h-3.105v-12.408h4.418c2.512,0,4.313,1.81,4.313,4.033
			c0,1.546-0.879,2.839-2.016,3.393l3.117,4.982H579.03z M575.907,231.241l1.262,0.009c0.654,0.006,1.258-0.484,1.258-1.249
			c0-0.771-0.607-1.245-1.258-1.245h-1.262V231.241z"/>
		<g>
			<path fill="#FFFFFF" d="M512.897,225.804h4.721c2.574,0,4.721,1.932,4.721,4.362c0,2.401-2.1,4.417-4.721,4.417h-1.402v3.667
				h-3.318V225.804L512.897,225.804z M519.138,230.182c0-0.758-0.637-1.328-1.521-1.328h-1.4v2.68l1.4,0.007
				C518.511,231.548,519.138,230.947,519.138,230.182z"/>
			<path fill="#FFFFFF" d="M529.425,236.799h-4.668l-0.637,1.451h-3.627l5.807-12.601h1.572l5.814,12.601h-3.635L529.425,236.799z
				 M528.368,234.382l-1.277-2.948l-1.287,2.948H528.368z"/>
			<path fill="#FFFFFF" d="M541.597,238.25l-3.34-5.404v5.404h-3.318l-0.016-12.446h4.742c2.697,0,4.631,1.814,4.631,4.047
				c0,1.552-0.939,2.849-2.164,3.404l3.35,4.995H541.597L541.597,238.25z M538.239,231.271l1.357,0.008
				c0.705,0.008,1.348-0.486,1.348-1.251c0-0.772-0.65-1.251-1.348-1.251h-1.357V231.271z"/>
		</g>
		<g>
			<path fill="#FFFFFF" d="M560.175,234.414c0,1.961-1.545,3.786-3.877,3.786h-4.965v-12.41h3.826c2.105,0,3.648,1.516,3.648,3.229
				c0,1.276-0.793,2.192-1.27,2.192C558.78,231.21,560.175,232.54,560.175,234.414 M555.062,228.653h-0.754v1.948h0.736
				c0.67,0,1.178-0.356,1.178-0.992C556.222,229.007,555.729,228.653,555.062,228.653 M557.216,234.02
				c0-0.724-0.492-1.162-1.363-1.162l-1.545-0.009v2.354h1.52C556.536,235.205,557.216,234.834,557.216,234.02"/>
		</g>
		<path fill="#FFFFFF" d="M595.226,232.285c0,3.771-2.67,6.211-5.979,6.211c-3.693,0-6.486-2.941-6.486-6.48
			c0-3.542,2.801-6.521,6.412-6.521c1.479,0.021,3.188,0.69,4.146,1.639l-1.709,2.502c-0.646-0.645-1.582-1.061-2.438-1.061
			c-1.736,0-3.256,1.516-3.256,3.432c0,1.74,1.305,3.435,3.453,3.435c1.41,0,2.412-0.726,2.455-1.909h-2.662v-2.456h5.969
			C595.188,231.491,595.226,231.891,595.226,232.285"/>
		<polygon fill="#FFFFFF" points="599.507,228.854 599.507,230.586 603.202,230.586 603.202,233.333 599.507,233.333 
			599.507,235.113 603.997,235.113 603.997,238.2 596.452,238.2 596.452,225.792 603.997,225.792 603.997,228.854 		"/>
		<path fill="#FFFFFF" d="M611.929,238.2l-3.109-5.389v5.389h-3.088v-12.408h4.4c2.512,0,4.313,1.81,4.313,4.033
			c0,1.546-0.877,2.839-2.02,3.393l3.121,4.982H611.929z M608.804,231.241l1.266,0.009c0.654,0.006,1.256-0.484,1.256-1.249
			c0-0.771-0.607-1.245-1.256-1.245h-1.266V231.241z"/>
		<path fill="#FFFFFF" d="M630.548,234.415c0,1.963-1.543,3.787-3.873,3.787h-4.971v-12.41h3.828c2.105,0,3.65,1.52,3.65,3.229
			c0,1.275-0.791,2.192-1.27,2.192C629.155,231.212,630.548,232.542,630.548,234.415 M625.438,228.657h-0.758v1.946h0.736
			c0.672,0,1.178-0.354,1.178-0.991C626.595,229.011,626.103,228.657,625.438,228.657 M627.589,234.023
			c0-0.726-0.49-1.164-1.361-1.164l-1.547-0.006v2.354h1.521C626.911,235.207,627.589,234.838,627.589,234.023"/>
		<polygon fill="#FFFFFF" points="645.825,228.856 645.825,230.59 649.526,230.59 649.526,233.334 645.825,233.334 645.825,235.115 
			650.317,235.115 650.317,238.202 642.774,238.202 642.774,225.793 650.317,225.793 650.317,228.856 		"/>
		<polygon fill="#FFFFFF" points="660.712,228.872 657.925,228.872 657.925,238.202 654.829,238.202 654.829,228.872 
			652.036,228.872 652.036,225.793 660.712,225.793 		"/>
		<polygon fill="#FFFFFF" points="685.29,225.778 685.29,238.326 684.31,238.326 678.323,232.144 678.323,238.208 675.233,238.208 
			675.233,225.67 676.231,225.67 682.192,231.828 682.192,225.778 		"/>
		<path fill="#FFFFFF" d="M667.618,225.468c-3.613,0-6.387,2.826-6.387,6.551c0,3.696,2.762,6.506,6.379,6.506
			c3.623,0,6.396-2.81,6.396-6.506C674.007,228.294,671.233,225.468,667.618,225.468 M670.013,235.332h-4.789
			c-0.494,0-0.896-0.431-0.896-0.958c0-0.351,0.268-0.64,0.602-0.64h5.385c0.33,0,0.596,0.289,0.596,0.64
			C670.907,234.901,670.509,235.332,670.013,235.332 M664.339,232.819v-0.723c0-0.15,0.113-0.277,0.26-0.277h0.926l0.6,0.642
			l1.799-0.642h2.721c0.143,0,0.258,0.127,0.258,0.277v0.723c0,0.15-0.115,0.277-0.258,0.277h-6.045
			C664.452,233.098,664.339,232.97,664.339,232.819 M670.312,231.183h-5.383c-0.33,0-0.602-0.286-0.602-0.641
			c0-1.234,1.475-2.232,3.291-2.232s3.289,0.997,3.289,2.232C670.907,230.897,670.642,231.183,670.312,231.183"/>
		<path fill="#FFFFFF" d="M638.075,238.202l-3.109-5.389v5.389h-3.104v-12.408h4.414c2.516,0,4.314,1.81,4.314,4.032
			c0,1.549-0.877,2.843-2.018,3.393l3.119,4.983H638.075L638.075,238.202z M634.95,231.244l1.264,0.007
			c0.656,0.009,1.258-0.484,1.258-1.245c0-0.77-0.607-1.249-1.258-1.249h-1.264V231.244z"/>
	</g>
</g>
</svg>
