<svg xmlns="http://www.w3.org/2000/svg" viewBox="0 0 86.81 49.61"><defs><style>.cls-1{fill:#fff;}.cls-2{fill:#174897;}</style></defs><g id="Calque_2" data-name="Calque 2"><g id="Layer_1" data-name="Layer 1"><rect class="cls-1" width="86.81" height="49.61"/><path class="cls-2" d="M23.31,20.12a3.4,3.4,0,0,1-3.58,3.28H15.15V12.66h3.53a3.11,3.11,0,0,1,3.37,2.79c0,1.1-.74,1.9-1.18,1.9A2.7,2.7,0,0,1,23.31,20.12Zm-4.72-5h-.7v1.68h.68c.62,0,1.09-.31,1.09-.86S19.2,15.14,18.59,15.14Zm2,4.64c0-.63-.46-1-1.26-1H17.89v2H19.3C20,20.81,20.58,20.49,20.58,19.78Z"/><path class="cls-2" d="M24.48,19.49V12.66h2.87v6.83A1.52,1.52,0,0,0,28.93,21a1.55,1.55,0,0,0,1.59-1.48V12.66h2.87v6.83a4.25,4.25,0,0,1-4.46,4.21A4.24,4.24,0,0,1,24.48,19.49Z"/><path class="cls-2" d="M40.71,23.4l-2.87-4.67V23.4H35V12.66h4.08a3.68,3.68,0,0,1,4,3.49,3.24,3.24,0,0,1-1.86,2.94l2.88,4.31Zm-2.88-6H39a1.09,1.09,0,0,0,1.16-1.08A1.11,1.11,0,0,0,39,15.22H37.83Z"/><path class="cls-2" d="M55.66,18.28a5.27,5.27,0,0,1-5.52,5.37,5.76,5.76,0,0,1-6-5.61,5.78,5.78,0,0,1,5.92-5.64,6.25,6.25,0,0,1,3.83,1.42L52.32,16a3.45,3.45,0,0,0-2.25-.92A3,3,0,1,0,50.25,21c1.3,0,2.23-.63,2.27-1.65H50.06V17.23h5.51A7.7,7.7,0,0,1,55.66,18.28Z"/><path class="cls-2" d="M59.61,15.31v1.5H63v2.38H59.61v1.54h4.14V23.4h-7V12.66h7v2.65Z"/><path class="cls-2" d="M71.07,23.4,68.2,18.73V23.4H65.35V12.66h4.06a3.68,3.68,0,0,1,4,3.49,3.24,3.24,0,0,1-1.86,2.94l2.88,4.31Zm-2.88-6h1.16a1.09,1.09,0,0,0,1.16-1.08,1.11,1.11,0,0,0-1.16-1.08H68.19Z"/><path class="cls-2" d="M20.56,33.65A3.39,3.39,0,0,1,17,36.92H12.4V26.19h3.53A3.11,3.11,0,0,1,19.3,29c0,1.1-.73,1.9-1.17,1.9A2.69,2.69,0,0,1,20.56,33.65Zm-4.71-5h-.7v1.69h.68c.62,0,1.08-.31,1.08-.86S16.46,28.66,15.85,28.66Zm2,4.65c0-.63-.45-1-1.26-1H15.15v2h1.4C17.2,34.33,17.83,34,17.83,33.31Z"/><path class="cls-2" d="M34.66,28.84v1.5h3.41v2.37H34.66v1.54h4.15v2.67h-7V26.19h7v2.65Z"/><path class="cls-2" d="M48.4,28.85H45.83v8.07H43V28.85H40.39V26.19h8Z"/><path class="cls-2" d="M71.08,26.17V37h-.9l-5.53-5.35v5.25H61.8V26.08h.92l5.5,5.33V26.17Z"/><path class="cls-2" d="M54.77,25.91a5.65,5.65,0,1,0,5.9,5.67A5.67,5.67,0,0,0,54.77,25.91ZM57,34.44H52.56a.83.83,0,0,1-.82-.83.55.55,0,0,1,.55-.55h5a.55.55,0,0,1,.55.55A.83.83,0,0,1,57,34.44Zm-5.23-2.17v-.63A.24.24,0,0,1,52,31.4h.85l.55.55,1.66-.55h2.51a.24.24,0,0,1,.24.24v.63a.24.24,0,0,1-.24.24H52A.24.24,0,0,1,51.75,32.27Zm5.51-1.42h-5a.55.55,0,0,1-.55-.55c0-1.07,1.36-1.94,3-1.94s3,.87,3,1.94A.55.55,0,0,1,57.26,30.85Z"/><path class="cls-2" d="M27.51,36.92l-2.87-4.66v4.66H21.77V26.19h4.08a3.68,3.68,0,0,1,4,3.49A3.23,3.23,0,0,1,28,32.61l2.88,4.31Zm-2.88-6h1.16a1.08,1.08,0,1,0,0-2.16H24.63Z"/></g></g></svg>