<?xml version="1.0" encoding="utf-8"?>
<!DOCTYPE svg PUBLIC "-//W3C//DTD SVG 1.1//EN" "http://www.w3.org/Graphics/SVG/1.1/DTD/svg11.dtd">
<svg version="1.1" id="Layer_1" xmlns="http://www.w3.org/2000/svg" xmlns:xlink="http://www.w3.org/1999/xlink" x="0px" y="0px"
	 width="850.39px" height="283.465px" viewBox="0 0 850.39 283.465" enable-background="new 0 0 850.39 283.465"
	 xml:space="preserve">
<g>
	<defs>
		<polygon id="SVGID_1_" points="563.178,156.603 331.295,156.553 331.327,40.972 563.205,41.024 		"/>
	</defs>
	<clipPath id="SVGID_2_">
		<use xlink:href="#SVGID_1_"  overflow="visible"/>
	</clipPath>
	<g clip-path="url(#SVGID_2_)">
		<path fill="#3DA249" stroke="#FFFFFF" stroke-width="2" stroke-miterlimit="10" d="M381.103,104.036
			c0.443,4.327,1.783,15.129,4.363,18.19c0,0,0.514,2.008-1.854,2.139c0,0-5.791-14.559-6.833-21.041
			C377.998,102.247,380.374,102.03,381.103,104.036z"/>
		<path fill="#EE3F2E" stroke="#FFFFFF" stroke-width="2" stroke-miterlimit="10" d="M358,159.236
			c-6.884-17.773,3.293-33.881,20.897-40.69c17.604-6.813,35.973-1.758,42.852,16.002c6.876,17.764-2.729,35.34-20.335,42.164
			C383.812,183.52,364.875,176.995,358,159.236z"/>
		<path fill="#3DA249" stroke="#FFFFFF" stroke-width="2" stroke-miterlimit="10" d="M366.903,126.43
			c12.523-0.869,15.035-9.62,15.035-9.62s-3.535-8.312-16.227-7.441c-8.626,0.604-15.028,9.627-15.028,9.627
			S358.273,127.037,366.903,126.43z"/>
	</g>
</g>
<g>
	<defs>
		<polygon id="SVGID_3_" points="563.178,156.603 331.295,156.553 331.327,40.972 563.205,41.024 		"/>
	</defs>
	<clipPath id="SVGID_4_">
		<use xlink:href="#SVGID_3_"  overflow="visible"/>
	</clipPath>
	<g clip-path="url(#SVGID_4_)">
		<path fill="#3DA249" d="M381.103,104.036c0.443,4.327,1.783,15.129,4.363,18.19c0,0,0.514,2.008-1.854,2.139
			c0,0-5.791-14.559-6.833-21.041C377.998,102.247,380.374,102.03,381.103,104.036z"/>
		<path fill="#EE3F2E" d="M358,159.236c-6.884-17.773,3.293-33.881,20.897-40.69c17.604-6.813,35.973-1.758,42.852,16.002
			c6.876,17.764-2.729,35.34-20.335,42.164C383.812,183.52,364.875,176.995,358,159.236z"/>
		<path fill="#3DA249" d="M366.903,126.43c12.523-0.869,15.035-9.62,15.035-9.62s-3.535-8.312-16.227-7.441
			c-8.626,0.604-15.028,9.627-15.028,9.627S358.273,127.037,366.903,126.43z"/>
	</g>
</g>
<g>
	<defs>
		<polygon id="SVGID_5_" points="563.178,156.603 331.295,156.553 331.327,40.972 563.205,41.024 		"/>
	</defs>
	<clipPath id="SVGID_6_">
		<use xlink:href="#SVGID_5_"  overflow="visible"/>
	</clipPath>
	<g clip-path="url(#SVGID_6_)">
		<path fill="#3DA249" d="M479.426,103.641c0,0,3.037-4.216,2.145-14.139c-0.912-9.928-13.74-15.707-13.74-15.707
			s-5.496-17.997-19.346-19.162c-13.838-1.176-21.918,15.654-21.918,15.654s-13.524,3.529-15.88,13.162
			c-2.354,9.636,0.036,14.299,0.036,14.299s-12.061,5.315-8.204,19.543c2.461,9.059,9.688,12.314,9.688,12.314
			s-3.391,8.527,0.475,16.018c3.855,7.483,11.716,6.951,11.716,6.951s-3.582,3.052-0.945,12.792
			c2.636,9.723,15.757,14.871,15.757,14.871s13.699-2.792,17.73-11.938c4.029-9.164,0.941-12.815,0.941-12.815
			s7.676,1.895,12.58-4.833c4.91-6.741,2.814-15.76,2.814-15.76s10.279-2.467,12.637-12.059
			C489.297,109.035,479.426,103.641,479.426,103.641z"/>
		<g>
			<g>
				<path fill="#FFFFFF" d="M447.102,54.574c0.455,0,0.916,0.02,1.383,0.059c13.848,1.165,19.346,19.162,19.346,19.162
					s12.828,5.778,13.74,15.707c0.895,9.923-2.145,14.139-2.145,14.139s9.871,5.394,6.486,19.191
					c-2.355,9.592-12.637,12.059-12.637,12.059s2.096,9.019-2.814,15.76c-3.139,4.303-7.408,5.079-10.078,5.079
					c-1.504,0-2.502-0.246-2.502-0.246s3.088,3.651-0.941,12.815c-4.031,9.146-17.73,11.938-17.73,11.938
					s-13.121-5.147-15.757-14.871c-2.637-9.74,0.945-12.792,0.945-12.792s-0.122,0.008-0.343,0.008
					c-1.553,0-7.998-0.408-11.374-6.959c-3.864-7.491-0.475-16.018-0.475-16.018s-7.228-3.255-9.688-12.314
					c-3.855-14.229,8.204-19.543,8.204-19.543s-2.39-4.663-0.036-14.299c2.354-9.632,15.879-13.162,15.879-13.162
					S434.109,54.574,447.102,54.574 M447.102,53.574c-12.422,0-19.896,13.287-21.232,15.871c-2.45,0.723-13.905,4.567-16.154,13.767
					c-1.848,7.567-0.858,12.215-0.246,14.07c-2.797,1.612-11.325,7.687-7.916,20.271c2.085,7.674,7.378,11.362,9.426,12.536
					c-0.773,2.419-2.533,9.506,0.813,15.992c2.938,5.699,8.104,7.079,10.784,7.404c-0.941,1.924-1.839,5.677-0.089,12.142
					c2.735,10.093,15.801,15.323,16.355,15.54c0.117,0.046,0.242,0.069,0.365,0.069c0.066,0,0.135-0.007,0.199-0.02
					c0.58-0.118,14.256-3.005,18.447-12.515c2.668-6.069,2.344-9.929,1.703-11.996c0.256,0.015,0.531,0.023,0.824,0.023
					c2.57,0,7.404-0.713,10.887-5.49c4.236-5.813,3.566-13.083,3.158-15.643c2.684-0.875,10.381-4.077,12.457-12.525
					c2.918-11.897-3.697-17.971-6.129-19.745c0.883-1.767,2.506-6.192,1.811-13.915c-0.869-9.484-11.631-15.22-13.916-16.336
					c-0.963-2.856-6.771-18.319-20.082-19.439C448.08,53.595,447.588,53.574,447.102,53.574L447.102,53.574z"/>
			</g>
		</g>
		<path fill="#FFFFFF" d="M457.24,114.228c9.559-4.033-6.605-1.112-11.508-0.749c0.459-8.3,0.756-14.369,0.912-17.104
			c0.014-0.279,0.02-0.547,0.045-0.828c1.475-0.451,4.096-1.522,7.697-3.919c6.482-4.338-4.15-0.693-7.496-0.147
			c0.879-18.398-0.033-18.501-0.033-18.501s-0.91-0.05-2.74,18.15c-3.328-1.318-12.752-6.353-6.979-0.978
			c2.898,2.723,5.156,4.183,6.592,4.942c-0.033,0.339-0.059,0.681-0.1,1.038c-0.248,2.713-0.779,8.734-1.545,16.947
			c-4.922-1.354-19.883-6.725-11.027-1.104c4.832,3.062,8.5,4.733,10.625,5.541c-0.545,5.96-6.355,73.289-6.338,76.231
			c0.035,8.188,1.93,8.913,1.93,8.913s1.977-0.397,3.221-8.475c0.438-2.867,4.645-70.231,4.986-76.222
			C447.598,117.595,451.627,116.589,457.24,114.228z"/>
		<path fill="#FFFFFF" d="M443.863,138.904c0.016-0.299-3.617-0.656-3.639-0.4c-4.93-1.359-19.889-6.729-11.027-1.12
			c4.828,3.068,8.496,4.738,10.625,5.548c-0.025,0.312,3.777,0.719,3.783,0.455c2.125-0.373,6.146-1.37,11.764-3.727
			C464.936,135.626,448.77,138.546,443.863,138.904z"/>
	</g>
</g>
<g>
	<defs>
		<polygon id="SVGID_7_" points="563.178,156.603 331.295,156.553 331.327,40.972 563.205,41.024 		"/>
	</defs>
	<clipPath id="SVGID_8_">
		<use xlink:href="#SVGID_7_"  overflow="visible"/>
	</clipPath>
	<g clip-path="url(#SVGID_8_)">
		<path fill="#FFFFFF" d="M519.246,50.47c3.691,0.968,7.371,1.994,11.055,3.104c-1.498,9.129-3.115,14.248-6.971,23.671
			c5.254-8.792,7.705-13.645,10.688-22.538c2.895,0.905,5.785,1.833,8.682,2.795c-3.451,9.097-6.191,14.035-11.98,22.987
			c6.352-8.705,9.439-13.534,13.463-22.485c2.096,0.698,4.178,1.396,6.271,2.111c-4.627,8.091-13.32,20.182-19.336,27.152
			c1.928,2.121,3.346,4.769,4.227,7.789c1.734,5.936-0.939,11.219-4.254,16.996c-4.057,7.065-6.467,14.495-10.924,21.397
			c-3.906,6.047-9.129,10.927-13.057,16.951c-4.668,7.129-10.672,13.11-16.43,18.986c-0.797,0.808-1.574,1.617-2.363,2.437
			c-1,1.043-2.016,2.064-3.01,3.091c-3.41,3.502-6.859,6.875-10.701,9.648c-5.586,4.033-11.281,7.586-17.076,10.69
			c-0.68,0.372-1.354,0.718-2.041,1.078c-4.52,2.323-9.104,4.393-13.754,6.147c-1.836,0.693-7.275,2.146-11.559,2.146
			c-4.039,0-7.054-1.291-5.056-5.726c1.528-3.397,5.454-6.058,8.116-8.395c4.467-3.921,9.027-7.823,13.029-12.323
			c1.021-1.149,1.992-2.331,2.945-3.549c0.23-0.29,0.445-0.595,0.684-0.902c2.461-3.209,4.77-6.563,7.119-9.845
			c3.703-5.195,7.982-9.736,11.545-15.009c3.08-4.547,6.02-9.176,8.758-13.885c0.592-1.034,1.15-2.067,1.727-3.097
			c2.428-4.371,4.676-8.807,6.586-13.343c2.215-5.25,5.822-9.353,8.084-14.445c2.01-4.497,2.352-9.766,5.121-13.906
			c3.504-5.221,10.041-8.062,16.553-8.488C516.625,75.902,519.455,63.302,519.246,50.47 M519.246,49.47
			c-0.223,0-0.439,0.074-0.617,0.213c-0.246,0.193-0.389,0.49-0.383,0.803c0.197,12.184-2.42,24.391-3.678,30.257l-0.006,0.031
			c-7.098,0.656-13.25,3.938-16.561,8.869c-1.732,2.589-2.557,5.567-3.354,8.446c-0.523,1.891-1.063,3.846-1.852,5.608
			c-1.063,2.392-2.41,4.528-3.836,6.791c-1.514,2.399-3.078,4.88-4.258,7.674c-1.723,4.094-3.861,8.427-6.537,13.246
			c-0.209,0.374-0.418,0.751-0.627,1.129c-0.357,0.651-0.719,1.304-1.094,1.957c-2.598,4.466-5.531,9.118-8.717,13.82
			c-1.908,2.824-4.074,5.498-6.17,8.083c-1.795,2.213-3.648,4.502-5.363,6.906c-0.615,0.86-1.229,1.726-1.842,2.593
			c-1.697,2.394-3.451,4.87-5.256,7.224c-0.104,0.134-0.205,0.271-0.305,0.406c-0.121,0.164-0.242,0.325-0.365,0.481
			c-1.039,1.324-1.988,2.469-2.912,3.508c-3.625,4.076-7.789,7.722-11.816,11.249l-1.125,0.987
			c-0.545,0.477-1.143,0.968-1.773,1.487c-2.479,2.038-5.29,4.347-6.596,7.249c-0.907,2.016-0.959,3.673-0.149,4.924
			c0.949,1.468,3.007,2.212,6.116,2.212c4.533,0,10.08-1.518,11.914-2.21c4.508-1.702,9.17-3.786,13.855-6.193l0.51-0.266
			c0.52-0.271,1.035-0.54,1.555-0.823c5.869-3.146,11.652-6.766,17.182-10.758c3.707-2.676,7.012-5.838,10.834-9.761
			c0.432-0.448,0.867-0.892,1.303-1.337c0.57-0.583,1.145-1.168,1.711-1.76l0.145-0.149c0.736-0.766,1.465-1.521,2.211-2.277
			l0.951-0.971c5.477-5.58,11.137-11.35,15.602-18.169c1.914-2.936,4.197-5.662,6.404-8.298c2.287-2.731,4.65-5.555,6.656-8.659
			c2.525-3.912,4.424-8.033,6.26-12.019c1.436-3.117,2.922-6.34,4.689-9.423c3.459-6.028,6.172-11.525,4.348-17.774
			c-0.846-2.896-2.145-5.418-3.867-7.512c6.215-7.324,14.559-19.084,18.885-26.653c0.148-0.259,0.174-0.57,0.068-0.849
			c-0.105-0.279-0.33-0.497-0.613-0.593c-2.094-0.716-4.18-1.415-6.277-2.114c-0.104-0.035-0.211-0.051-0.314-0.051
			c-0.193,0-0.381,0.056-0.541,0.159c-0.012-0.03-0.023-0.061-0.037-0.09c-0.117-0.246-0.33-0.434-0.588-0.521
			c-2.771-0.92-5.615-1.836-8.699-2.8c-0.1-0.031-0.199-0.045-0.299-0.046c-0.418,0-0.809,0.265-0.947,0.683
			c-1.449,4.321-2.793,7.708-4.348,10.979c1.02-3.471,1.814-7.064,2.564-11.631c0.082-0.496-0.217-0.975-0.697-1.12
			c-3.531-1.065-7.16-2.083-11.09-3.114C519.416,49.481,519.33,49.47,519.246,49.47L519.246,49.47z"/>
	</g>
</g>
<g>
	<defs>
		<polygon id="SVGID_9_" points="563.178,156.603 331.295,156.553 331.327,40.972 563.205,41.024 		"/>
	</defs>
	<clipPath id="SVGID_10_">
		<use xlink:href="#SVGID_9_"  overflow="visible"/>
	</clipPath>
	<g clip-path="url(#SVGID_10_)">
		<g>
			<path fill="#84C245" d="M544.182,58.004c-4.023,8.951-7.113,13.78-13.465,22.485c5.791-8.952,8.531-13.89,11.982-22.987
				c-2.896-0.962-5.787-1.89-8.682-2.795c-2.982,8.894-5.434,13.746-10.689,22.538c3.855-9.423,5.475-14.542,6.973-23.671
				c-3.684-1.11-7.363-2.136-11.057-3.104c0.293,16.971-4.781,33.569-4.402,34.556c0.803,2.064,4.98,4.578,7.377,3.506
				c0.463,1.852,1.414,3.481,2.662,4.17c2.158,1.185,18.555-20.328,25.568-32.587C548.357,59.4,546.275,58.702,544.182,58.004z"/>
			<g>
				<g>
					<defs>
						<path id="SVGID_11_" d="M507.107,150.401c-4.668,7.129-10.672,13.11-16.43,18.986c-5.275,5.377-10.227,10.968-16.074,15.177
							c-10.584,7.631-21.537,13.628-32.871,17.916c-3.566,1.347-20.731,5.56-16.613-3.58c1.527-3.397,5.453-6.058,8.115-8.395
							c4.469-3.921,9.027-7.823,13.031-12.323c3.947-4.454,7.285-9.46,10.746-14.296c3.703-5.195,7.986-9.733,11.547-15.009
							c6.584-9.748,12.625-19.777,17.068-30.324c2.215-5.25,5.822-9.353,8.084-14.445c2.01-4.497,2.352-9.766,5.121-13.906
							c5.01-7.448,16.24-10.2,24.727-7.687c5.979,1.77,9.99,6.379,11.781,12.542c1.734,5.936-0.938,11.219-4.252,16.996
							c-4.057,7.065-6.469,14.495-10.926,21.397C516.258,139.497,511.035,144.376,507.107,150.401z"/>
					</defs>
					<defs>
						<path id="SVGID_12_" d="M507.107,150.401c-4.668,7.129-10.672,13.11-16.43,18.986c-5.275,5.377-10.227,10.968-16.074,15.177
							c-10.584,7.631-21.537,13.628-32.871,17.916c-3.566,1.347-20.731,5.56-16.613-3.58c1.527-3.397,5.453-6.058,8.115-8.395
							c4.469-3.921,9.027-7.823,13.031-12.323c3.947-4.454,7.285-9.46,10.746-14.296c3.703-5.195,7.986-9.733,11.547-15.009
							c6.584-9.748,12.625-19.777,17.068-30.324c2.215-5.25,5.822-9.353,8.084-14.445c2.01-4.497,2.352-9.766,5.121-13.906
							c5.01-7.448,16.24-10.2,24.727-7.687c5.979,1.77,9.99,6.379,11.781,12.542c1.734,5.936-0.938,11.219-4.252,16.996
							c-4.057,7.065-6.469,14.495-10.926,21.397C516.258,139.497,511.035,144.376,507.107,150.401z"/>
					</defs>
					<defs>
						<path id="SVGID_13_" d="M507.107,150.401c-4.668,7.129-10.672,13.11-16.43,18.986c-5.275,5.377-10.227,10.968-16.074,15.177
							c-10.584,7.631-21.537,13.628-32.871,17.916c-3.566,1.347-20.731,5.56-16.613-3.58c1.527-3.397,5.453-6.058,8.115-8.395
							c4.469-3.921,9.027-7.823,13.031-12.323c3.947-4.454,7.285-9.46,10.746-14.296c3.703-5.195,7.986-9.733,11.547-15.009
							c6.584-9.748,12.625-19.777,17.068-30.324c2.215-5.25,5.822-9.353,8.084-14.445c2.01-4.497,2.352-9.766,5.121-13.906
							c5.01-7.448,16.24-10.2,24.727-7.687c5.979,1.77,9.99,6.379,11.781,12.542c1.734,5.936-0.938,11.219-4.252,16.996
							c-4.057,7.065-6.469,14.495-10.926,21.397C516.258,139.497,511.035,144.376,507.107,150.401z"/>
					</defs>
					<defs>
						<path id="SVGID_14_" d="M507.107,150.401c-4.668,7.129-10.672,13.11-16.43,18.986c-5.275,5.377-10.227,10.968-16.074,15.177
							c-10.584,7.631-21.537,13.628-32.871,17.916c-3.566,1.347-20.731,5.56-16.613-3.58c1.527-3.397,5.453-6.058,8.115-8.395
							c4.469-3.921,9.027-7.823,13.031-12.323c3.947-4.454,7.285-9.46,10.746-14.296c3.703-5.195,7.986-9.733,11.547-15.009
							c6.584-9.748,12.625-19.777,17.068-30.324c2.215-5.25,5.822-9.353,8.084-14.445c2.01-4.497,2.352-9.766,5.121-13.906
							c5.01-7.448,16.24-10.2,24.727-7.687c5.979,1.77,9.99,6.379,11.781,12.542c1.734,5.936-0.938,11.219-4.252,16.996
							c-4.057,7.065-6.469,14.495-10.926,21.397C516.258,139.497,511.035,144.376,507.107,150.401z"/>
					</defs>
					<defs>
						<path id="SVGID_15_" d="M507.107,150.401c-4.668,7.129-10.672,13.11-16.43,18.986c-5.275,5.377-10.227,10.968-16.074,15.177
							c-10.584,7.631-21.537,13.628-32.871,17.916c-3.566,1.347-20.731,5.56-16.613-3.58c1.527-3.397,5.453-6.058,8.115-8.395
							c4.469-3.921,9.027-7.823,13.031-12.323c3.947-4.454,7.285-9.46,10.746-14.296c3.703-5.195,7.986-9.733,11.547-15.009
							c6.584-9.748,12.625-19.777,17.068-30.324c2.215-5.25,5.822-9.353,8.084-14.445c2.01-4.497,2.352-9.766,5.121-13.906
							c5.01-7.448,16.24-10.2,24.727-7.687c5.979,1.77,9.99,6.379,11.781,12.542c1.734,5.936-0.938,11.219-4.252,16.996
							c-4.057,7.065-6.469,14.495-10.926,21.397C516.258,139.497,511.035,144.376,507.107,150.401z"/>
					</defs>
					<defs>
						<path id="SVGID_16_" d="M507.107,150.401c-4.668,7.129-10.672,13.11-16.43,18.986c-5.275,5.377-10.227,10.968-16.074,15.177
							c-10.584,7.631-21.537,13.628-32.871,17.916c-3.566,1.347-20.731,5.56-16.613-3.58c1.527-3.397,5.453-6.058,8.115-8.395
							c4.469-3.921,9.027-7.823,13.031-12.323c3.947-4.454,7.285-9.46,10.746-14.296c3.703-5.195,7.986-9.733,11.547-15.009
							c6.584-9.748,12.625-19.777,17.068-30.324c2.215-5.25,5.822-9.353,8.084-14.445c2.01-4.497,2.352-9.766,5.121-13.906
							c5.01-7.448,16.24-10.2,24.727-7.687c5.979,1.77,9.99,6.379,11.781,12.542c1.734,5.936-0.938,11.219-4.252,16.996
							c-4.057,7.065-6.469,14.495-10.926,21.397C516.258,139.497,511.035,144.376,507.107,150.401z"/>
					</defs>
					<defs>
						<path id="SVGID_17_" d="M507.107,150.401c-4.668,7.129-10.672,13.11-16.43,18.986c-5.275,5.377-10.227,10.968-16.074,15.177
							c-10.584,7.631-21.537,13.628-32.871,17.916c-3.566,1.347-20.731,5.56-16.613-3.58c1.527-3.397,5.453-6.058,8.115-8.395
							c4.469-3.921,9.027-7.823,13.031-12.323c3.947-4.454,7.285-9.46,10.746-14.296c3.703-5.195,7.986-9.733,11.547-15.009
							c6.584-9.748,12.625-19.777,17.068-30.324c2.215-5.25,5.822-9.353,8.084-14.445c2.01-4.497,2.352-9.766,5.121-13.906
							c5.01-7.448,16.24-10.2,24.727-7.687c5.979,1.77,9.99,6.379,11.781,12.542c1.734,5.936-0.938,11.219-4.252,16.996
							c-4.057,7.065-6.469,14.495-10.926,21.397C516.258,139.497,511.035,144.376,507.107,150.401z"/>
					</defs>
					<clipPath id="SVGID_18_">
						<use xlink:href="#SVGID_11_"  overflow="visible"/>
					</clipPath>
					<clipPath id="SVGID_19_" clip-path="url(#SVGID_18_)">
						<use xlink:href="#SVGID_12_"  overflow="visible"/>
					</clipPath>
					<clipPath id="SVGID_20_" clip-path="url(#SVGID_19_)">
						<use xlink:href="#SVGID_13_"  overflow="visible"/>
					</clipPath>
					<clipPath id="SVGID_21_" clip-path="url(#SVGID_20_)">
						<use xlink:href="#SVGID_14_"  overflow="visible"/>
					</clipPath>
					<clipPath id="SVGID_22_" clip-path="url(#SVGID_21_)">
						<use xlink:href="#SVGID_15_"  overflow="visible"/>
					</clipPath>
					<clipPath id="SVGID_23_" clip-path="url(#SVGID_22_)">
						<use xlink:href="#SVGID_16_"  overflow="visible"/>
					</clipPath>
					<clipPath id="SVGID_24_" clip-path="url(#SVGID_23_)">
						<use xlink:href="#SVGID_17_"  overflow="visible"/>
					</clipPath>
					<path clip-path="url(#SVGID_24_)" fill="#F26D26" d="M507.107,150.401c-4.668,7.129-10.672,13.11-16.43,18.986
						c-5.275,5.377-10.227,10.968-16.074,15.177c-10.584,7.631-21.537,13.628-32.871,17.916c-3.566,1.347-20.731,5.56-16.613-3.58
						c1.527-3.397,5.453-6.058,8.115-8.395c4.469-3.921,9.027-7.823,13.031-12.323c3.947-4.454,7.285-9.46,10.746-14.296
						c3.703-5.195,7.986-9.733,11.547-15.009c6.584-9.748,12.625-19.777,17.068-30.324c2.215-5.25,5.822-9.353,8.084-14.445
						c2.01-4.497,2.352-9.766,5.121-13.906c5.01-7.448,16.24-10.2,24.727-7.687c5.979,1.77,9.99,6.379,11.781,12.542
						c1.734,5.936-0.938,11.219-4.252,16.996c-4.057,7.065-6.469,14.495-10.926,21.397
						C516.258,139.497,511.035,144.376,507.107,150.401z"/>
					<path clip-path="url(#SVGID_24_)" fill="#FFFFFF" d="M497.125,113.153c4.959,1.415,7.734,1.948,13.127,4.407
						c9.033,4.12,11.861,7.541,11.861,7.541s-7.18-0.376-14.389-4.148C500.523,117.192,497.125,113.153,497.125,113.153z"/>
					<path clip-path="url(#SVGID_24_)" fill="#FFFFFF" d="M449.414,185.776c2.27,2.038,3.621,3.025,5.713,5.797
						c3.504,4.625,3.873,7.328,3.873,7.328s-3.805-2.009-6.496-5.959C449.799,188.985,449.414,185.776,449.414,185.776z"/>
					<path clip-path="url(#SVGID_24_)" fill="#FFFFFF" d="M494.889,142.313c-4.734-3.315-8.008-6.673-12.035-8.623
						c-6.709-3.246-12.27-5.547-12.27-5.547s2.344,3.441,7.346,7.355C485.744,141.628,494.889,142.313,494.889,142.313z"/>
					<path clip-path="url(#SVGID_24_)" fill="#FFFFFF" d="M522.574,101.242c0,0-8.236-4.607-12.033-5.495
						c-2.414-0.567-9.064-0.982-9.064-0.982s3.49,2.62,6.777,3.853C515.5,101.353,522.574,101.242,522.574,101.242z"/>
					<path clip-path="url(#SVGID_24_)" fill="#FFFFFF" d="M469.887,161.282c3.545,4.654,6.703,8.583,12.311,11.848
						c5.602,3.274,13.658,7.556,13.658,7.556s-5.785-8.77-13.576-13.659C474.5,162.127,469.887,161.282,469.887,161.282z"/>
					<path clip-path="url(#SVGID_24_)" fill="#FFFFFF" d="M448.301,172.906c1.197,2.342,2.279,4.336,4.461,6.25
						c2.176,1.907,5.268,4.563,5.268,4.563s-1.787-4.41-4.76-7.274C450.303,173.587,448.301,172.906,448.301,172.906z"/>
				</g>
			</g>
		</g>
	</g>
</g>
<g>
	<g>
		<path fill="#FFFFFF" d="M561.44,233.689v-7.897h3.113v7.891c0,1.028,0.826,1.715,1.709,1.715c0.875,0,1.727-0.697,1.727-1.715
			v-7.891h3.109v7.897c0,2.847-2.166,4.855-4.83,4.855C563.608,238.546,561.44,236.536,561.44,233.689"/>
		<path fill="#FFFFFF" d="M579.03,238.2l-3.109-5.389v5.389h-3.105v-12.408h4.418c2.512,0,4.313,1.81,4.313,4.033
			c0,1.546-0.879,2.839-2.016,3.393l3.117,4.982H579.03z M575.907,231.241l1.262,0.009c0.654,0.006,1.258-0.484,1.258-1.249
			c0-0.771-0.607-1.245-1.258-1.245h-1.262V231.241z"/>
		<g>
			<path fill="#FFFFFF" d="M512.897,225.805h4.721c2.574,0,4.721,1.932,4.721,4.362c0,2.401-2.1,4.417-4.721,4.417h-1.402v3.667
				h-3.318V225.805L512.897,225.805z M519.138,230.183c0-0.758-0.637-1.328-1.521-1.328h-1.4v2.68l1.4,0.007
				C518.511,231.549,519.138,230.947,519.138,230.183z"/>
			<path fill="#FFFFFF" d="M529.425,236.8h-4.668l-0.637,1.451h-3.627l5.807-12.601h1.572l5.814,12.601h-3.635L529.425,236.8z
				 M528.368,234.383l-1.277-2.948l-1.287,2.948H528.368z"/>
			<path fill="#FFFFFF" d="M541.597,238.251l-3.34-5.404v5.404h-3.318l-0.016-12.446h4.742c2.697,0,4.631,1.814,4.631,4.047
				c0,1.552-0.939,2.849-2.164,3.404l3.35,4.995H541.597L541.597,238.251z M538.239,231.271l1.357,0.008
				c0.705,0.008,1.348-0.486,1.348-1.251c0-0.772-0.65-1.251-1.348-1.251h-1.357V231.271z"/>
		</g>
		<g>
			<path fill="#FFFFFF" d="M560.175,234.414c0,1.961-1.545,3.786-3.877,3.786h-4.965v-12.41h3.826c2.105,0,3.648,1.516,3.648,3.229
				c0,1.276-0.793,2.192-1.27,2.192C558.78,231.211,560.175,232.54,560.175,234.414 M555.062,228.653h-0.754v1.948h0.736
				c0.67,0,1.178-0.356,1.178-0.992C556.222,229.008,555.729,228.653,555.062,228.653 M557.216,234.021
				c0-0.724-0.492-1.162-1.363-1.162l-1.545-0.009v2.354h1.52C556.536,235.205,557.216,234.835,557.216,234.021"/>
		</g>
		<path fill="#FFFFFF" d="M595.226,232.285c0,3.771-2.67,6.211-5.979,6.211c-3.693,0-6.486-2.941-6.486-6.48
			c0-3.542,2.801-6.521,6.412-6.521c1.479,0.021,3.188,0.69,4.146,1.639l-1.709,2.502c-0.646-0.645-1.582-1.061-2.438-1.061
			c-1.736,0-3.256,1.516-3.256,3.432c0,1.74,1.305,3.435,3.453,3.435c1.41,0,2.412-0.726,2.455-1.909h-2.662v-2.456h5.969
			C595.188,231.491,595.226,231.892,595.226,232.285"/>
		<polygon fill="#FFFFFF" points="599.507,228.854 599.507,230.587 603.202,230.587 603.202,233.333 599.507,233.333 
			599.507,235.113 603.997,235.113 603.997,238.2 596.452,238.2 596.452,225.792 603.997,225.792 603.997,228.854 		"/>
		<path fill="#FFFFFF" d="M611.929,238.2l-3.109-5.389v5.389h-3.088v-12.408h4.4c2.512,0,4.313,1.81,4.313,4.033
			c0,1.546-0.877,2.839-2.02,3.393l3.121,4.982H611.929z M608.804,231.241l1.266,0.009c0.654,0.006,1.256-0.484,1.256-1.249
			c0-0.771-0.607-1.245-1.256-1.245h-1.266V231.241z"/>
		<path fill="#FFFFFF" d="M630.548,234.415c0,1.963-1.543,3.787-3.873,3.787h-4.971v-12.41h3.828c2.105,0,3.65,1.52,3.65,3.229
			c0,1.275-0.791,2.192-1.27,2.192C629.155,231.213,630.548,232.542,630.548,234.415 M625.438,228.657h-0.758v1.946h0.736
			c0.672,0,1.178-0.354,1.178-0.991C626.595,229.012,626.103,228.657,625.438,228.657 M627.589,234.023
			c0-0.726-0.49-1.164-1.361-1.164l-1.547-0.006v2.354h1.521C626.911,235.207,627.589,234.839,627.589,234.023"/>
		<polygon fill="#FFFFFF" points="645.825,228.856 645.825,230.591 649.526,230.591 649.526,233.335 645.825,233.335 
			645.825,235.115 650.317,235.115 650.317,238.202 642.774,238.202 642.774,225.794 650.317,225.794 650.317,228.856 		"/>
		<polygon fill="#FFFFFF" points="660.712,228.872 657.925,228.872 657.925,238.202 654.829,238.202 654.829,228.872 
			652.036,228.872 652.036,225.794 660.712,225.794 		"/>
		<polygon fill="#FFFFFF" points="685.29,225.778 685.29,238.326 684.31,238.326 678.323,232.145 678.323,238.209 675.233,238.209 
			675.233,225.671 676.231,225.671 682.192,231.828 682.192,225.778 		"/>
		<path fill="#FFFFFF" d="M667.618,225.469c-3.613,0-6.387,2.826-6.387,6.551c0,3.696,2.762,6.506,6.379,6.506
			c3.623,0,6.396-2.81,6.396-6.506C674.007,228.295,671.233,225.469,667.618,225.469 M670.013,235.332h-4.789
			c-0.494,0-0.896-0.431-0.896-0.958c0-0.351,0.268-0.64,0.602-0.64h5.385c0.33,0,0.596,0.289,0.596,0.64
			C670.907,234.901,670.509,235.332,670.013,235.332 M664.339,232.819v-0.723c0-0.15,0.113-0.277,0.26-0.277h0.926l0.6,0.642
			l1.799-0.642h2.721c0.143,0,0.258,0.127,0.258,0.277v0.723c0,0.15-0.115,0.277-0.258,0.277h-6.045
			C664.452,233.099,664.339,232.971,664.339,232.819 M670.312,231.184h-5.383c-0.33,0-0.602-0.286-0.602-0.641
			c0-1.234,1.475-2.232,3.291-2.232s3.289,0.997,3.289,2.232C670.907,230.897,670.642,231.184,670.312,231.184"/>
		<path fill="#FFFFFF" d="M638.075,238.202l-3.109-5.389v5.389h-3.104v-12.408h4.414c2.516,0,4.314,1.81,4.314,4.032
			c0,1.549-0.877,2.843-2.018,3.393l3.119,4.983H638.075L638.075,238.202z M634.95,231.244l1.264,0.007
			c0.656,0.009,1.258-0.484,1.258-1.245c0-0.77-0.607-1.249-1.258-1.249h-1.264V231.244z"/>
	</g>
	<g>
		<polygon id="XMLID_1_" fill="#FFFFFF" points="796.85,44.92 90.055,45.369 83.035,78.04 112.286,81.62 81.403,85.644 
			76.782,107.146 105.621,112.661 74.252,118.926 69.197,142.479 90.961,149.33 67.597,149.913 62.173,175.178 125.716,184.75 
			60.246,184.151 53.54,215.363 760.34,214.919 767.621,180.998 736.406,186.575 769.162,173.827 773.875,151.891 745.422,145.598 
			776.309,140.549 781.465,116.563 761.977,113.566 782.965,109.563 788.486,83.86 732.648,79.802 790.318,75.322 		"/>
		<g>
			<path fill="#1E74BA" d="M170.932,143.697c-2.169,4.208-6.341,5.497-11.264,5.497l-12.933-25.768v32.725
				c-3.921,2.748-8.51,4.809-13.183,4.809v-59.178c2.419-0.688,4.922-1.031,7.426-1.031c5.089,0,8.093,1.546,10.096,4.552
				l13.85,27.743l13.85-27.743c2.002-3.006,5.006-4.552,10.096-4.552c2.169,0,4.338,0.343,6.424,1.031v54.369
				c-4.255,2.748-9.345,4.809-14.434,4.809v-37.533L170.932,143.697z"/>
			<path fill="#1E74BA" d="M240.771,156.237c-5.256,3.692-14.101,5.666-20.358,5.666c-9.011,0-18.439-4.549-18.439-14.169
				c0-9.019,7.76-13.743,15.77-13.743c3.587,0,7.092,0.859,10.262,2.491v-3.092c0-5.153-3.504-7.988-8.427-7.988
				c-4.005,0-8.01,1.718-10.68,5.84c-2.586-2.061-4.088-6.012-3.671-9.19c3.838-3.951,10.012-4.981,15.436-4.981
				c10.596,0,20.108,5.153,20.108,17.092V156.237z M228.006,141.636c-2.086-0.945-4.422-1.203-6.591-1.203
				c-3.588,0-7.008,1.976-7.008,6.528c0,4.466,3.337,6.614,6.925,6.614c2.336,0,4.672-0.773,6.675-1.804V141.636z"/>
			<path fill="#1E74BA" d="M249.118,122.997c4.922-3.521,12.766-5.926,18.773-5.926c4.338,0,11.597,1.288,11.597,7.043
				c0,3.865-2.92,7.043-6.424,7.902c0-3.607-1.752-6.013-4.589-6.013c-2.336,0-4.506,0.773-6.508,2.147v29.632
				c-3.922,2.49-8.26,3.177-12.849,3.177V122.997z"/>
			<path fill="#1E74BA" d="M321.709,148.937c0,9.018-8.427,12.881-16.687,12.881c-13.016,0-21.443-9.703-21.443-22.5
				c0-12.884,9.428-22.246,22.778-22.246c6.007,0,12.182,1.288,14.852,7.043v0.43c0,3.693-1.752,6.785-5.34,8.503
				c-1.001-4.638-3.838-7.129-8.26-7.129c-7.259,0-11.097,6.442-11.097,13.313c0,7.558,4.922,13.657,12.682,13.657
				c4.923,0,9.512-2.233,12.348-5.497C321.625,147.906,321.625,148.593,321.709,148.937z"/>
			<path fill="#1E74BA" d="M328.303,102.469c3.754-2.92,8.343-3.35,12.849-3.35v22.074c3.838-2.491,8.093-4.123,12.265-4.123
				c9.261,0,15.185,6.785,15.185,16.835v23.62c-3.587,2.231-7.092,3.434-12.765,3.434v-26.711c0-4.724-2.336-8.074-7.176-8.074
				c-2.837,0-5.34,1.203-7.509,2.92v28.773c-2.42,2.404-8.093,3.091-12.849,3.091V102.469z"/>
			<path fill="#1E74BA" d="M415.244,150.397c-0.333,8.159-9.511,11.42-16.854,11.42c-13.851,0-23.112-9.789-23.112-22.586
				c0-12.025,8.344-22.16,21.526-22.16c12.349,0,20.191,8.933,20.191,20.185c0,2.491-1.335,4.81-4.672,4.81h-20.525
				c0-4.037,2.085-6.442,4.839-6.958h8.844c-0.167-4.981-2.753-9.19-8.01-9.19c-6.508,0-9.345,6.614-9.345,12.712
				c0,8.332,4.505,14.516,13.433,14.516c4.672,0,9.929-1.632,13.183-4.982C415.161,148.937,415.244,150.397,415.244,150.397z
				 M398.724,111.746c-1.502,1.031-3.254,1.804-4.923,1.804c-1.752,0-3.587-0.688-4.922-1.632l9.929-13.485
				c2.503-0.172,8.594,2.147,10.513,5.325L398.724,111.746z"/>
			<path fill="#01A44E" d="M454.127,146.704l-4.756,13.913c-5.089,0.516-9.512-0.258-13.934-3.262l20.692-52.652
				c4.255-3.607,9.762-3.865,14.935-3.865l23.111,60.123c-11.848,0.857-15.436-1.545-17.188-6.784l-2.753-7.472H454.127z
				 M471.064,137.083l-6.925-19.841l-7.259,20.958c1.501-0.601,3.254-1.117,4.839-1.117H471.064z"/>
			<path fill="#01A44E" d="M552.918,157.096c-3.838,2.747-9.763,3.95-14.352,3.95v-6.097c-3.587,4.808-9.678,6.868-15.602,6.868
				c-16.354,0-26.532-14.856-26.532-31.262c0-18.896,13.266-30.921,32.039-30.921c8.093,0,17.271,2.319,21.025,9.963l-0.084,1.031
				c-0.167,3.865-3.17,7.301-6.842,9.104c-1.501-6.27-7.008-8.933-13.683-8.933c-11.598,0-17.938,8.761-17.938,19.841
				c0,10.565,5.84,20.013,16.103,20.013c4.089,0,8.427-1.46,11.514-4.724v-8.847h-14.101c0.418-3.607,1.669-6.786,4.423-9.62h24.029
				V157.096z"/>
			<path fill="#01A44E" d="M577.535,146.704l-4.756,13.913c-5.089,0.516-9.512-0.258-13.934-3.262l20.692-52.652
				c4.255-3.607,9.762-3.865,14.935-3.865l23.111,60.123c-11.848,0.857-15.436-1.545-17.188-6.784l-2.753-7.472H577.535z
				 M594.473,137.083l-6.925-19.841l-7.259,20.958c1.501-0.601,3.254-1.117,4.839-1.117H594.473z"/>
			<path fill="#01A44E" d="M631.271,111.746h-18.939c0.5-4.123,1.835-8.074,4.922-10.908h47.475
				c-0.584,4.123-1.835,8.074-4.922,10.908h-14.101v44.406c-4.256,2.748-9.429,4.809-14.435,4.809V111.746z"/>
			<path fill="#01A44E" d="M677.999,146.704l-4.756,13.913c-5.089,0.516-9.512-0.258-13.934-3.262l20.692-52.652
				c4.255-3.607,9.762-3.865,14.935-3.865l23.111,60.123c-11.848,0.857-15.436-1.545-17.188-6.784l-2.753-7.472H677.999z
				 M694.937,137.083l-6.925-19.841l-7.259,20.958c1.502-0.601,3.254-1.117,4.839-1.117H694.937z"/>
		</g>
	</g>
</g>
</svg>
