<svg xmlns="http://www.w3.org/2000/svg" viewBox="0 0 43.4 43.4"><defs><style>.cls-1{fill:#134a97;}.cls-2{fill:#fff;}</style></defs><g id="Calque_2" data-name="Calque 2"><rect class="cls-1" width="43.4" height="43.4"/><path class="cls-2" d="M11.65,15.69a1.7,1.7,0,0,1-1.79,1.64H7.57V12H9.34A1.55,1.55,0,0,1,11,13.35c0,.56-.36,1-.58,1A1.35,1.35,0,0,1,11.65,15.69ZM9.3,13.2H9V14h.34c.3,0,.54-.15.54-.43S9.6,13.2,9.3,13.2Zm1,2.32c0-.31-.23-.5-.63-.5H9v1h.7C10,16,10.29,15.87,10.29,15.52Z"/><path class="cls-2" d="M12.24,15.38V12h1.43v3.41a.77.77,0,0,0,.79.75.78.78,0,0,0,.8-.75V12h1.43v3.42a2.12,2.12,0,0,1-2.22,2.1A2.12,2.12,0,0,1,12.24,15.38Z"/><path class="cls-2" d="M20.35,17.33,18.92,15v2.33H17.49V12h2a1.84,1.84,0,0,1,2,1.74,1.61,1.61,0,0,1-.93,1.47L22,17.33Zm-1.44-3h.59a.54.54,0,1,0,0-1.08h-.59Z"/><path class="cls-2" d="M27.83,14.77a2.63,2.63,0,0,1-2.76,2.69,2.82,2.82,0,1,1,0-5.63,3.11,3.11,0,0,1,1.92.71l-.79,1.08A1.73,1.73,0,0,0,25,13.16a1.49,1.49,0,1,0,.1,3c.65,0,1.11-.31,1.13-.82H25V14.25h2.75A3.15,3.15,0,0,1,27.83,14.77Z"/><path class="cls-2" d="M29.8,13.28V14h1.71v1.19H29.8V16h2.07v1.34H28.39V12h3.48v1.32Z"/><path class="cls-2" d="M35.54,17.33,34.1,15v2.33H32.67V12h2a1.83,1.83,0,0,1,2,1.74,1.62,1.62,0,0,1-.92,1.47l1.43,2.16Zm-1.45-3h.59a.54.54,0,1,0,0-1.08h-.59Z"/><path class="cls-2" d="M10.28,22.45a1.7,1.7,0,0,1-1.79,1.64H6.2V18.72H8a1.55,1.55,0,0,1,1.68,1.4c0,.55-.36.95-.58.95A1.34,1.34,0,0,1,10.28,22.45ZM7.92,20H7.57v.84h.34c.31,0,.55-.15.55-.43S8.23,20,7.92,20Zm1,2.32c0-.31-.23-.5-.63-.5H7.57v1h.71C8.6,22.8,8.92,22.64,8.92,22.28Z"/><path class="cls-2" d="M17.33,20.05v.75H19V22H17.33v.77H19.4v1.33H15.92V18.72H19.4v1.33Z"/><path class="cls-2" d="M24.2,20.05H22.91v4H21.49v-4H20.2V18.72h4Z"/><path class="cls-2" d="M35.54,18.72v5.43h-.45l-2.76-2.68V24.1H30.9V18.67h.46l2.75,2.66V18.72Z"/><path class="cls-2" d="M27.39,18.58a2.83,2.83,0,1,0,2.95,2.84A2.85,2.85,0,0,0,27.39,18.58Zm1.1,4.27H26.28a.41.41,0,0,1-.41-.41.27.27,0,0,1,.27-.28h2.49a.28.28,0,0,1,.28.28A.42.42,0,0,1,28.49,22.85Zm-2.62-1.09v-.31a.12.12,0,0,1,.12-.12h.43l.28.28.83-.28h1.25a.12.12,0,0,1,.12.12v.31a.12.12,0,0,1-.12.12H26A.12.12,0,0,1,25.87,21.76Zm2.76-.71H26.14a.27.27,0,0,1-.27-.27c0-.54.68-1,1.52-1s1.52.43,1.52,1A.28.28,0,0,1,28.63,21.05Z"/><path class="cls-2" d="M13.75,24.09l-1.43-2.33v2.33H10.89V18.72h2a1.84,1.84,0,0,1,2,1.75A1.61,1.61,0,0,1,14,21.94l1.44,2.15Zm-1.44-3h.59a.54.54,0,1,0,0-1.07h-.59Z"/><path class="cls-2" d="M8.53,28.09h-1V25.81h.92a.62.62,0,0,1,.7.64.53.53,0,0,1-.28.47.52.52,0,0,1,.31.51A.63.63,0,0,1,8.53,28.09ZM8.45,26.2H8v.53h.43a.27.27,0,1,0,0-.53Zm0,.93H8v.56h.46a.27.27,0,0,0,.3-.28A.27.27,0,0,0,8.48,27.13Z"/><path class="cls-2" d="M10.47,28.1a.79.79,0,0,1-.84-.8V25.81h.44v1.48a.38.38,0,0,0,.4.42.38.38,0,0,0,.39-.42V25.81h.45V27.3A.79.79,0,0,1,10.47,28.1Z"/><path class="cls-2" d="M13,28.09l-.45-.91h-.32v.91h-.44V25.81h.89a.69.69,0,0,1,.74.69.62.62,0,0,1-.42.6l.51,1Zm-.35-1.89h-.42v.61h.42a.31.31,0,1,0,0-.61Z"/><path class="cls-2" d="M15.27,27.85a.87.87,0,0,1-.64.25.84.84,0,0,1-.62-.24c-.23-.24-.22-.52-.22-.91s0-.68.22-.91a.84.84,0,0,1,.62-.25.82.82,0,0,1,.86.73H15a.39.39,0,0,0-.41-.34.38.38,0,0,0-.29.13c-.08.09-.11.2-.11.64s0,.54.11.64a.42.42,0,0,0,.6,0,.41.41,0,0,0,.11-.3v-.09h-.42v-.37h.86v.33A.92.92,0,0,1,15.27,27.85Z"/><path class="cls-2" d="M15.93,28.09V25.81h1.5v.39H16.37v.54h.9v.39h-.9v.56h1.06v.4Z"/><path class="cls-2" d="M19.06,28.09l-.45-.91h-.32v.91h-.44V25.81h.89a.69.69,0,0,1,.74.69.62.62,0,0,1-.42.6l.51,1Zm-.35-1.89h-.42v.61h.42a.31.31,0,1,0,0-.61Z"/><path class="cls-2" d="M22,28.09l-.14-.41H21l-.14.41H20.4l.83-2.28h.35l.83,2.28Zm-.53-1.61-.29.83h.57Z"/><path class="cls-2" d="M23.89,28.09l-.44-.91h-.32v.91h-.45V25.81h.89a.68.68,0,0,1,.74.69.61.61,0,0,1-.41.6l.51,1Zm-.35-1.89h-.41v.61h.41a.31.31,0,1,0,0-.61Z"/><path class="cls-2" d="M25.63,26.2v1.89h-.45V26.2h-.59v-.39h1.64v.39Z"/><path class="cls-2" d="M26.57,28.09V25.81H27v2.28Z"/><path class="cls-2" d="M28.16,28.1a1,1,0,0,1-.83-.3l.29-.28a.74.74,0,0,0,.55.19c.26,0,.4-.1.4-.28a.27.27,0,0,0-.07-.2.42.42,0,0,0-.2-.08l-.28,0a.78.78,0,0,1-.44-.19.61.61,0,0,1-.16-.45.7.7,0,0,1,.79-.69,1,1,0,0,1,.74.26l-.28.28a.64.64,0,0,0-.47-.16c-.24,0-.35.14-.35.29a.27.27,0,0,0,.06.17.51.51,0,0,0,.21.09l.27,0a.78.78,0,0,1,.44.18.65.65,0,0,1,.18.48C29,27.86,28.64,28.1,28.16,28.1Z"/><path class="cls-2" d="M30.71,28.09l-.14-.41h-.81l-.14.41h-.46L30,25.81h.35l.83,2.28Zm-.54-1.61-.28.83h.56Z"/><path class="cls-2" d="M32.78,28.09l-.9-1.4v1.4h-.44V25.81h.39l.91,1.39V25.81h.44v2.28Z"/><path class="cls-2" d="M35,28.09l-.13-.41h-.81l-.14.41h-.46l.83-2.28h.35l.83,2.28Zm-.53-1.61-.29.83h.57Z"/><path class="cls-2" d="M35.73,28.09V25.81h.44v1.88h1v.4Z"/><path class="cls-2" d="M12.91,31.56V29.72l-.46.41v-.45l.46-.4h.42v2.28Z"/><path class="cls-2" d="M14.71,31.57A.65.65,0,0,1,14,30.9v-1a.7.7,0,0,1,1.39,0v1A.65.65,0,0,1,14.71,31.57ZM15,29.94a.28.28,0,1,0-.55,0v.95a.28.28,0,1,0,.55,0Z"/><path class="cls-2" d="M16.44,31.57a.66.66,0,0,1-.7-.67v-1a.66.66,0,0,1,.7-.68.65.65,0,0,1,.69.68v1A.65.65,0,0,1,16.44,31.57Zm.27-1.63a.28.28,0,1,0-.55,0v.95a.28.28,0,1,0,.55,0Z"/><path class="cls-2" d="M17.92,30.45a.42.42,0,0,1-.46-.44V29.7a.46.46,0,0,1,.92,0V30A.42.42,0,0,1,17.92,30.45Zm.16-.74c0-.12-.06-.18-.16-.18s-.16.06-.16.18V30c0,.12.06.18.16.18s.16-.06.16-.18Zm.19,1.85H18L19,29.28h.32Zm1.1,0a.42.42,0,0,1-.46-.43v-.32a.42.42,0,0,1,.46-.44.43.43,0,0,1,.47.44v.32A.43.43,0,0,1,19.37,31.57Zm.17-.74c0-.12-.06-.18-.17-.18s-.16.06-.16.18v.29c0,.12.06.19.16.19s.17-.07.17-.19Z"/><path class="cls-2" d="M22.6,31.56V30.23l-.43.86h-.3l-.44-.86v1.33H21V29.28h.44l.6,1.23.59-1.23h.44v2.28Z"/><path class="cls-2" d="M24.86,31.56l-.13-.41h-.81l-.14.41h-.47l.83-2.28h.35l.83,2.28ZM24.33,30l-.29.83h.57Z"/><path class="cls-2" d="M25.59,31.56V29.28H26v2.28Z"/><path class="cls-2" d="M27.18,31.57a1,1,0,0,1-.83-.3l.29-.28a.74.74,0,0,0,.55.19c.26,0,.4-.1.4-.28a.27.27,0,0,0-.07-.2.42.42,0,0,0-.2-.08l-.28,0a.78.78,0,0,1-.44-.19.61.61,0,0,1-.16-.45.7.7,0,0,1,.79-.69,1,1,0,0,1,.74.26l-.28.28a.64.64,0,0,0-.47-.16c-.24,0-.35.14-.35.29a.27.27,0,0,0,.06.17.51.51,0,0,0,.21.09l.27,0a.78.78,0,0,1,.44.18.65.65,0,0,1,.18.48C28,31.32,27.66,31.57,27.18,31.57Z"/><path class="cls-2" d="M29.81,31.32a.88.88,0,0,1-1.23,0,1.14,1.14,0,0,1-.23-.9c0-.4,0-.68.23-.91a.88.88,0,0,1,1.23,0c.23.23.23.51.23.91A1.14,1.14,0,0,1,29.81,31.32Zm-.33-1.54a.35.35,0,0,0-.29-.13.34.34,0,0,0-.28.13c-.09.09-.11.2-.11.64s0,.54.11.64a.37.37,0,0,0,.28.12.37.37,0,0,0,.29-.12c.09-.1.11-.21.11-.64S29.57,29.87,29.48,29.78Z"/><path class="cls-2" d="M31.82,31.56l-.9-1.4v1.4h-.44V29.28h.39l.91,1.39V29.28h.44v2.28Z"/></g></svg>