<svg xmlns="http://www.w3.org/2000/svg" xmlns:xlink="http://www.w3.org/1999/xlink" width="346" height="71" viewBox="0 0 346 71" class="sc-7ade999-7 dyDdcI"><defs><path id="8__a" d="M0 70.238h344.35V0H0z"></path></defs><g fill="none" fill-rule="evenodd" transform="translate(.967)"><path fill="#FFF" d="M41.33 66.276v3.543c-5.19.84-7.553-.978-7.553-6.34v-6.898c0-3.73-1.715-5.78-4.772-5.78-3.615 0-6.024 2.797-6.024 6.246v12.772h-4.309V56.767c0-3.73-1.621-5.967-4.818-5.967-3.568 0-5.977 2.471-5.977 6.293v12.726H3.52V53.83c0-2.47-1.066-3.076-3.52-2.75v-3.728c4.03-.653 6.532.186 7.366 3.402 1.853-2.61 4.726-3.823 7.691-3.823 3.105 0 5.468 1.492 6.811 4.103 1.854-2.611 4.402-4.103 8.109-4.103 4.957 0 8.154 3.636 8.154 9.37v7.179c0 2.516 1.02 3.076 3.197 2.796m22.606-7.784c0-4.801-3.29-7.692-7.645-7.692-4.31 0-7.6 2.89-7.6 7.692 0 4.894 3.198 7.877 7.6 7.877 4.402 0 7.645-2.936 7.645-7.877m-19.645 0c0-6.992 5.142-11.561 12-11.561 6.81 0 12.046 4.569 12.046 11.56 0 7.04-5.327 11.747-12.093 11.747-6.81 0-11.953-4.755-11.953-11.746m54.391 7.784v3.543c-5.143.84-7.506-.978-7.506-6.76v-6.525c0-3.59-2.178-5.734-5.56-5.734-3.753 0-6.349 2.983-6.349 6.993v12.026h-4.354V53.83c0-2.47-1.066-3.076-3.521-2.75v-3.728c4.123-.653 6.625.186 7.366 3.543 2.178-2.798 5.143-3.964 8.016-3.964 5.19 0 8.757 3.73 8.757 9.37v7.179c0 2.516 1.019 3.076 3.15 2.796"></path><mask id="8__b" fill="#fff"><use xlink:href="#8__a"></use></mask><path fill="#FFF" d="M102.706 58.399h15.337v-3.776h-15.337zm60.787 7.877v3.543c-5.19.84-7.552-.978-7.552-6.34v-6.898c0-3.73-1.715-5.78-4.772-5.78-3.615 0-6.024 2.797-6.024 6.246v12.772h-4.31V56.767c0-3.73-1.62-5.967-4.817-5.967-3.568 0-5.977 2.471-5.977 6.293v12.726h-4.356V53.83c0-2.47-1.065-3.076-3.52-2.75v-3.728c4.03-.653 6.532.186 7.366 3.402 1.853-2.61 4.726-3.823 7.691-3.823 3.105 0 5.468 1.492 6.811 4.103 1.853-2.611 4.402-4.103 8.109-4.103 4.957 0 8.154 3.636 8.154 9.37v7.179c0 2.516 1.02 3.076 3.197 2.796m21.354-7.831v-6.992c-1.715-.465-3.151-.653-5.42-.653-5.33 0-8.48 2.844-8.48 8.11 0 4.662 2.548 7.46 6.81 7.46 4.45 0 7.09-3.124 7.09-7.925m7.83 7.645v3.729c-3.012.606-6.626.047-7.506-3.589-1.76 2.564-4.68 4.008-8.015 4.008-6.487 0-10.657-4.195-10.657-11.28 0-7.738 5.374-12.027 12.927-12.027 3.799 0 6.764.7 9.776 1.912v14.17c0 2.564.695 3.45 3.475 3.077m21.68-17.621-1.575 3.776c-1.391-.839-2.689-1.21-4.356-1.21-2.966 0-5.7 2.096-5.7 5.826v12.957h-4.354V53.83c0-2.47-1.066-3.076-3.522-2.75v-3.729c4.031-.653 6.533.186 7.367 3.403 1.436-2.517 4.124-3.823 6.626-3.823 2.038 0 3.707.513 5.514 1.538m1.295 10.069c0-6.946 5.096-11.607 11.767-11.607 5.376 0 9.638 3.124 10.843 7.925h-4.124c-1.112-2.657-3.521-4.056-6.719-4.056-4.076 0-7.274 2.983-7.274 7.738 0 4.801 3.198 7.831 7.321 7.831 3.243 0 5.606-1.491 6.672-4.38h4.216c-1.204 5.453-5.513 8.249-10.935 8.249-6.67 0-11.767-4.847-11.767-11.7m51.611 7.738v3.543c-5.42.606-7.506-.978-7.506-6.76v-6.478c0-3.683-2.225-5.827-5.514-5.827-3.892 0-6.44 2.983-6.44 6.992v12.073h-4.355v-32.63h4.355v13.1c1.806-2.005 4.263-3.358 7.506-3.358 5.281 0 8.803 3.73 8.803 9.37v7.179c0 2.516 1.02 3.076 3.15 2.796m16.352-22.84h-3.66v-.233l5.19-7.366 3.845 1.772v.186l-5.375 5.64zm-8.85 14.03c1.946.14 3.754.28 5.329.28 4.632 0 7.459-.885 7.459-3.683 0-2.423-2.177-3.635-5.189-3.635-4.541 0-7.182 3.03-7.598 7.039zm15.43 7.411.88 3.45c-3.105 1.492-5.745 1.911-8.618 1.911-7.6 0-12.186-4.66-12.186-11.654 0-7.876 6.115-11.653 12.14-11.653 5.42 0 9.359 2.518 9.359 6.993 0 5.267-4.402 6.991-12.187 6.991-1.39 0-2.964-.092-4.633-.185.788 3.868 3.846 5.686 7.877 5.686 2.687 0 4.865-.373 7.367-1.539zm5.972 2.611c0-1.771 1.345-2.797 3.058-2.797 1.669 0 3.012 1.026 3.012 2.797 0 1.679-1.343 2.75-3.012 2.75-1.713 0-3.058-1.071-3.058-2.75m18.347-21.768v1.632h7.785v3.635h-7.785v18.832h-4.355V50.987h-4.772v-3.635h4.772v-1.679c0-5.92 2.78-8.904 7.785-8.904 1.853 0 3.66.42 5.467 1.12l-1.02 3.45c-1.204-.467-2.316-.7-3.475-.7-3.058 0-4.402 1.398-4.402 5.08m29.837 2.75-1.576 3.776c-1.39-.839-2.687-1.21-4.355-1.21-2.966 0-5.699 2.096-5.699 5.826v12.957h-4.356V53.83c0-2.47-1.064-3.076-3.52-2.75v-3.729c4.03-.653 6.533.186 7.366 3.403 1.436-2.517 4.124-3.823 6.627-3.823 2.038 0 3.706.513 5.513 1.538M235.854 0c-.96 0-1.792.684-1.963 1.634-.836 4.64-5.17 8.186-10.375 8.186-5.07 0-9.313-3.365-10.302-7.829C212.953.814 211.88 0 210.68 0c-1.198 0-2.271.814-2.532 1.991-.989 4.464-5.232 7.83-10.303 7.83-5.07 0-9.314-3.366-10.302-7.83C187.283.814 186.209 0 185.01 0c-1.198 0-2.272.814-2.533 1.991-.988 4.464-5.233 7.83-10.302 7.83-5.07 0-9.315-3.366-10.303-7.83C161.612.814 160.54 0 159.34 0s-2.273.814-2.533 1.991c-.989 4.464-5.234 7.83-10.303 7.83-5.07 0-9.314-3.366-10.303-7.83C135.941.814 134.868 0 133.668 0c-1.199 0-2.272.814-2.532 1.991-.989 4.464-5.233 7.83-10.302 7.83-5.205 0-9.54-3.547-10.376-8.187A1.993 1.993 0 0 0 108.494 0c-1.238 0-2.197 1.123-1.977 2.349 1.173 6.522 7.147 11.501 14.317 11.501 5.557 0 10.393-2.994 12.834-7.377 2.442 4.383 7.278 7.377 12.836 7.377 5.558 0 10.393-2.994 12.836-7.377 2.441 4.383 7.277 7.377 12.835 7.377 5.558 0 10.395-2.994 12.835-7.377 2.442 4.383 7.278 7.377 12.835 7.377 5.558 0 10.395-2.994 12.835-7.377 2.442 4.383 7.28 7.377 12.836 7.377 7.17 0 13.143-4.979 14.317-11.501.22-1.226-.74-2.349-1.979-2.349" mask="url(#8__b)"></path></g></svg>