<svg xmlns="http://www.w3.org/2000/svg" viewBox="0 0 31 15.35"><defs><style>.cls-1{fill:#fff;}</style></defs><g id="Calque_2" data-name="Calque 2"><g id="Layer_1" data-name="Layer 1"><path class="cls-1" d="M5.45,3.86A1.7,1.7,0,0,1,3.66,5.5H1.37V.13H3.14A1.55,1.55,0,0,1,4.82,1.52c0,.56-.36,1-.58,1A1.35,1.35,0,0,1,5.45,3.86ZM3.09,1.37H2.74v.84h.34c.31,0,.55-.15.55-.43S3.4,1.37,3.09,1.37Zm1,2.32c0-.31-.23-.5-.63-.5H2.74v1h.71C3.77,4.2,4.09,4,4.09,3.69Z"/><path class="cls-1" d="M6,3.55V.13H7.47V3.54a.77.77,0,0,0,.79.75.79.79,0,0,0,.8-.75V.13h1.43V3.55a2.12,2.12,0,0,1-2.22,2.1A2.12,2.12,0,0,1,6,3.55Z"/><path class="cls-1" d="M14.15,5.5,12.72,3.17V5.5H11.29V.13h2a1.84,1.84,0,0,1,2,1.74,1.61,1.61,0,0,1-.93,1.47L15.82,5.5Zm-1.44-3h.58A.55.55,0,0,0,13.87,2a.55.55,0,0,0-.58-.54h-.58Z"/><path class="cls-1" d="M21.63,2.94a2.64,2.64,0,0,1-2.76,2.69,2.89,2.89,0,0,1-3-2.81,2.89,2.89,0,0,1,3-2.82,3.13,3.13,0,0,1,1.92.71L20,1.79a1.73,1.73,0,0,0-1.13-.46,1.51,1.51,0,0,0-1.5,1.49,1.51,1.51,0,0,0,1.6,1.48c.65,0,1.11-.31,1.13-.82H18.83V2.41h2.75A3.27,3.27,0,0,1,21.63,2.94Z"/><path class="cls-1" d="M23.6,1.45V2.2h1.71V3.39H23.6v.77h2.07V5.5H22.19V.13h3.48V1.45Z"/><path class="cls-1" d="M29.33,5.5,27.9,3.17V5.5H26.47V.13h2a1.84,1.84,0,0,1,2,1.74,1.61,1.61,0,0,1-.93,1.47L31,5.5Zm-1.44-3h.59A.55.55,0,0,0,29.06,2a.55.55,0,0,0-.58-.54h-.59Z"/><path class="cls-1" d="M4.08,10.62a1.7,1.7,0,0,1-1.79,1.64H0V6.89H1.77a1.55,1.55,0,0,1,1.68,1.4c0,.55-.37,1-.59,1A1.34,1.34,0,0,1,4.08,10.62ZM1.72,8.13H1.37V9h.34c.31,0,.54-.15.54-.43S2,8.13,1.72,8.13Zm1,2.32c0-.31-.22-.5-.62-.5H1.37v1h.71C2.4,11,2.71,10.81,2.71,10.45Z"/><path class="cls-1" d="M11.13,8.22V9h1.71v1.19H11.13v.77H13.2v1.33H9.72V6.89H13.2V8.22Z"/><path class="cls-1" d="M18,8.22H16.71v4H15.28v-4H14V6.89h4Z"/><path class="cls-1" d="M29.34,6.89v5.42h-.45L26.13,9.64v2.62H24.7V6.84h.46L27.91,9.5V6.89Z"/><path class="cls-1" d="M21.19,6.75a2.83,2.83,0,1,0,0,5.65,2.83,2.83,0,1,0,0-5.65ZM22.29,11H20.08a.41.41,0,0,1-.41-.41.27.27,0,0,1,.27-.28h2.49a.28.28,0,0,1,.28.28A.42.42,0,0,1,22.29,11ZM19.67,9.93V9.62a.12.12,0,0,1,.12-.12h.43l.28.28.82-.28h1.26a.12.12,0,0,1,.12.12v.31a.12.12,0,0,1-.12.12H19.79A.12.12,0,0,1,19.67,9.93Zm2.76-.71H19.94A.27.27,0,0,1,19.67,9c0-.54.68-1,1.52-1s1.52.43,1.52,1A.28.28,0,0,1,22.43,9.22Z"/><path class="cls-1" d="M7.55,12.26,6.12,9.93v2.33H4.69V6.89h2a1.85,1.85,0,0,1,2,1.75,1.61,1.61,0,0,1-.93,1.47l1.44,2.15Zm-1.44-3h.58a.54.54,0,0,0,.58-.54.55.55,0,0,0-.58-.54H6.11Z"/><path class="cls-1" d="M5.79,15.34H5.13V13.75h.64a.43.43,0,0,1,.49.45.39.39,0,0,1-.2.33.35.35,0,0,1,.22.35A.44.44,0,0,1,5.79,15.34Zm0-1.31h-.3v.36h.3c.13,0,.21-.07.21-.18S5.87,14,5.74,14Zm0,.64H5.44v.39h.32A.19.19,0,0,0,6,14.87.19.19,0,0,0,5.76,14.67Z"/><path class="cls-1" d="M7.16,15.35a.55.55,0,0,1-.59-.55V13.75h.31v1a.28.28,0,1,0,.56,0v-1h.3V14.8A.55.55,0,0,1,7.16,15.35Z"/><path class="cls-1" d="M8.93,15.34l-.31-.63H8.4v.63H8.09V13.75h.62a.48.48,0,0,1,.52.49.42.42,0,0,1-.29.41l.35.69ZM8.69,14H8.4v.42h.29a.21.21,0,0,0,.23-.21A.21.21,0,0,0,8.69,14Z"/><path class="cls-1" d="M10.53,15.17a.57.57,0,0,1-.45.18.6.6,0,0,1-.43-.17c-.16-.16-.15-.36-.15-.63s0-.48.15-.64a.58.58,0,0,1,.43-.17.57.57,0,0,1,.6.51h-.31a.28.28,0,0,0-.29-.24.29.29,0,0,0-.2.09c-.06.07-.07.14-.07.45s0,.38.07.44a.25.25,0,0,0,.2.09A.3.3,0,0,0,10.3,15a.31.31,0,0,0,.07-.21v-.06h-.29v-.26h.6v.23A.62.62,0,0,1,10.53,15.17Z"/><path class="cls-1" d="M11,15.34V13.75h1.05V14h-.74v.37h.63v.28h-.63v.38h.74v.28Z"/><path class="cls-1" d="M13.19,15.34l-.31-.63h-.22v.63h-.31V13.75H13a.48.48,0,0,1,.52.49.42.42,0,0,1-.29.41l.35.69ZM13,14h-.29v.42H13a.21.21,0,0,0,.23-.21A.21.21,0,0,0,13,14Z"/><path class="cls-1" d="M14.47,15.34h-.66V13.75h.64a.43.43,0,0,1,.49.45.39.39,0,0,1-.2.33.35.35,0,0,1,.22.35A.44.44,0,0,1,14.47,15.34ZM14.42,14h-.3v.36h.3c.14,0,.21-.07.21-.18S14.56,14,14.42,14Zm0,.64h-.32v.39h.32a.19.19,0,0,0,.21-.19A.19.19,0,0,0,14.44,14.67Z"/><path class="cls-1" d="M16.12,15.34l-.31-.63h-.22v.63h-.31V13.75h.62a.48.48,0,0,1,.52.49.42.42,0,0,1-.29.41l.35.69ZM15.88,14h-.29v.42h.29a.21.21,0,0,0,.23-.21A.21.21,0,0,0,15.88,14Z"/><path class="cls-1" d="M16.74,15.34V13.75h1.05V14h-.74v.37h.63v.28h-.63v.38h.74v.28Z"/><path class="cls-1" d="M18.7,14v1.31h-.31V14H18v-.28h1.14V14Z"/><path class="cls-1" d="M20.28,15.18a.56.56,0,0,1-.42.17.6.6,0,0,1-.44-.17c-.16-.16-.15-.36-.15-.63s0-.48.15-.64a.6.6,0,0,1,.44-.17.56.56,0,0,1,.42.17c.17.16.16.36.16.64S20.45,15,20.28,15.18Zm-.23-1.08a.25.25,0,0,0-.19-.09.29.29,0,0,0-.21.09c-.06.07-.07.14-.07.45s0,.38.07.44a.29.29,0,0,0,.21.09.25.25,0,0,0,.19-.09c.06-.06.08-.14.08-.44S20.11,14.17,20.05,14.1Z"/><path class="cls-1" d="M21.7,15.34l-.63-1v1h-.31V13.75H21l.63,1v-1H22v1.59Z"/><path class="cls-1" d="M22.31,15.34V15h.34v.33Z"/><path class="cls-1" d="M23.52,15.35a.58.58,0,0,1-.43-.17.8.8,0,0,1-.16-.63c0-.28,0-.48.16-.64a.58.58,0,0,1,.43-.17.56.56,0,0,1,.58.5h-.31a.28.28,0,0,0-.27-.23.23.23,0,0,0-.2.09c-.06.06-.08.14-.08.45s0,.38.08.44a.23.23,0,0,0,.2.09.28.28,0,0,0,.27-.23h.31A.56.56,0,0,1,23.52,15.35Z"/><path class="cls-1" d="M25.33,15.18a.63.63,0,0,1-.86,0,.8.8,0,0,1-.16-.63c0-.28,0-.48.16-.64a.63.63,0,0,1,.86,0c.16.16.16.36.16.64A.8.8,0,0,1,25.33,15.18ZM25.1,14.1a.25.25,0,0,0-.2-.09.29.29,0,0,0-.2.09c-.06.07-.07.14-.07.45s0,.38.07.44a.29.29,0,0,0,.2.09.25.25,0,0,0,.2-.09c.06-.06.08-.14.08-.44S25.16,14.17,25.1,14.1Z"/><path class="cls-1" d="M26.94,15.34v-.93l-.31.61h-.21l-.3-.61v.93h-.31V13.75h.3l.42.86.41-.86h.31v1.59Z"/><rect class="cls-1" x="1.37" y="14.14" width="2.55" height="0.8"/><rect class="cls-1" x="28.45" y="14.14" width="2.55" height="0.8"/></g></g></svg>