<svg xmlns="http://www.w3.org/2000/svg" viewBox="0 0 31 19.74"><defs><style>.cls-1{fill:#134a97;}</style></defs><g id="Calque_2" data-name="Calque 2"><path class="cls-1" d="M5.45,3.86A1.7,1.7,0,0,1,3.66,5.5H1.37V.13H3.14A1.55,1.55,0,0,1,4.82,1.52c0,.56-.36,1-.58,1A1.35,1.35,0,0,1,5.45,3.86ZM3.09,1.37H2.74v.84h.34c.31,0,.55-.15.55-.43S3.4,1.37,3.09,1.37Zm1,2.32c0-.31-.23-.5-.63-.5H2.74v1h.71C3.77,4.2,4.09,4,4.09,3.69Z"/><path class="cls-1" d="M6,3.55V.13H7.47V3.54a.77.77,0,0,0,.79.75.79.79,0,0,0,.8-.75V.13h1.43V3.55a2.12,2.12,0,0,1-2.22,2.1A2.12,2.12,0,0,1,6,3.55Z"/><path class="cls-1" d="M14.15,5.5,12.72,3.17V5.5H11.29V.13h2a1.84,1.84,0,0,1,2,1.74,1.61,1.61,0,0,1-.93,1.47L15.82,5.5Zm-1.44-3h.58A.55.55,0,0,0,13.87,2a.55.55,0,0,0-.58-.54h-.58Z"/><path class="cls-1" d="M21.63,2.94a2.64,2.64,0,0,1-2.76,2.69,2.89,2.89,0,0,1-3-2.81,2.89,2.89,0,0,1,3-2.82,3.13,3.13,0,0,1,1.92.71L20,1.79a1.73,1.73,0,0,0-1.13-.46,1.51,1.51,0,0,0-1.5,1.49,1.51,1.51,0,0,0,1.6,1.48c.65,0,1.11-.31,1.13-.82H18.83V2.41h2.75A3.27,3.27,0,0,1,21.63,2.94Z"/><path class="cls-1" d="M23.6,1.45V2.2h1.71V3.39H23.6v.77h2.07V5.5H22.19V.13h3.48V1.45Z"/><path class="cls-1" d="M29.33,5.5,27.9,3.17V5.5H26.47V.13h2a1.84,1.84,0,0,1,2,1.74,1.61,1.61,0,0,1-.93,1.47L31,5.5Zm-1.44-3h.59A.55.55,0,0,0,29.06,2a.55.55,0,0,0-.58-.54h-.59Z"/><path class="cls-1" d="M4.08,10.62a1.7,1.7,0,0,1-1.79,1.64H0V6.89H1.77a1.55,1.55,0,0,1,1.68,1.4c0,.55-.37,1-.59,1A1.34,1.34,0,0,1,4.08,10.62ZM1.72,8.13H1.37V9h.34c.31,0,.54-.15.54-.43S2,8.13,1.72,8.13Zm1,2.32c0-.31-.22-.5-.62-.5H1.37v1h.71C2.4,11,2.71,10.81,2.71,10.45Z"/><path class="cls-1" d="M11.13,8.22V9h1.71v1.19H11.13v.77H13.2v1.33H9.72V6.89H13.2V8.22Z"/><path class="cls-1" d="M18,8.22H16.71v4H15.28v-4H14V6.89h4Z"/><path class="cls-1" d="M29.34,6.89v5.42h-.45L26.13,9.64v2.62H24.7V6.84h.46L27.91,9.5V6.89Z"/><path class="cls-1" d="M21.19,6.75a2.83,2.83,0,1,0,0,5.65,2.83,2.83,0,1,0,0-5.65ZM22.29,11H20.08a.41.41,0,0,1-.41-.41.27.27,0,0,1,.27-.28h2.49a.28.28,0,0,1,.28.28A.42.42,0,0,1,22.29,11ZM19.67,9.93V9.62a.12.12,0,0,1,.12-.12h.43l.28.28.82-.28h1.26a.12.12,0,0,1,.12.12v.31a.12.12,0,0,1-.12.12H19.79A.12.12,0,0,1,19.67,9.93Zm2.76-.71H19.94A.27.27,0,0,1,19.67,9c0-.54.68-1,1.52-1s1.52.43,1.52,1A.28.28,0,0,1,22.43,9.22Z"/><path class="cls-1" d="M7.55,12.26,6.12,9.93v2.33H4.69V6.89h2a1.85,1.85,0,0,1,2,1.75,1.61,1.61,0,0,1-.93,1.47l1.44,2.15Zm-1.44-3h.58a.54.54,0,0,0,.58-.54.55.55,0,0,0-.58-.54H6.11Z"/><path class="cls-1" d="M2.33,16.26h-1V14h.92a.62.62,0,0,1,.7.64.53.53,0,0,1-.28.47A.51.51,0,0,1,3,15.6.63.63,0,0,1,2.33,16.26Zm-.08-1.89H1.82v.53h.43a.27.27,0,1,0,0-.53Zm0,.93H1.82v.56h.46a.27.27,0,0,0,.3-.28A.27.27,0,0,0,2.28,15.3Z"/><path class="cls-1" d="M4.27,16.27a.79.79,0,0,1-.84-.8V14h.44v1.48a.38.38,0,0,0,.4.42.38.38,0,0,0,.39-.42V14h.45v1.49A.79.79,0,0,1,4.27,16.27Z"/><path class="cls-1" d="M6.8,16.26l-.45-.91H6v.91H5.59V14h.89a.69.69,0,0,1,.74.69.62.62,0,0,1-.42.6l.51,1Zm-.35-1.89H6V15h.42a.29.29,0,0,0,.32-.3A.29.29,0,0,0,6.45,14.37Z"/><path class="cls-1" d="M9.07,16a.87.87,0,0,1-.64.25A.85.85,0,0,1,7.81,16c-.23-.23-.22-.51-.22-.9s0-.68.22-.91A.84.84,0,0,1,8.43,14a.82.82,0,0,1,.86.73H8.84a.39.39,0,0,0-.41-.34.38.38,0,0,0-.29.13c-.08.09-.11.2-.11.64s0,.54.11.64a.42.42,0,0,0,.6,0,.41.41,0,0,0,.11-.3v-.09H8.43V15h.86v.33A.92.92,0,0,1,9.07,16Z"/><path class="cls-1" d="M9.72,16.26V14h1.51v.39H10.17v.54h.9v.39h-.9v.56h1.06v.4Z"/><path class="cls-1" d="M12.86,16.26l-.45-.91h-.32v.91h-.44V14h.89a.69.69,0,0,1,.74.69.62.62,0,0,1-.42.6l.51,1Zm-.35-1.89h-.42V15h.42a.29.29,0,0,0,.32-.3A.29.29,0,0,0,12.51,14.37Z"/><path class="cls-1" d="M15.75,16.26l-.14-.41H14.8l-.13.41H14.2L15,14h.35l.83,2.28Zm-.53-1.61-.29.83h.57Z"/><path class="cls-1" d="M17.69,16.26l-.45-.91h-.32v.91h-.44V14h.89a.68.68,0,0,1,.74.69.61.61,0,0,1-.41.6l.5,1Zm-.35-1.89h-.42V15h.42a.3.3,0,0,0,.33-.3A.3.3,0,0,0,17.34,14.37Z"/><path class="cls-1" d="M19.43,14.37v1.89H19V14.37h-.59V14H20v.39Z"/><path class="cls-1" d="M20.37,16.26V14h.45v2.28Z"/><path class="cls-1" d="M22,16.27a1,1,0,0,1-.83-.3l.29-.28a.74.74,0,0,0,.55.19c.26,0,.4-.1.4-.28a.27.27,0,0,0-.07-.2.42.42,0,0,0-.2-.08l-.28,0a.78.78,0,0,1-.44-.19.61.61,0,0,1-.16-.45A.7.7,0,0,1,22,14a1,1,0,0,1,.74.26l-.28.28a.64.64,0,0,0-.47-.16c-.24,0-.35.14-.35.29a.22.22,0,0,0,.06.17.51.51,0,0,0,.21.09l.27,0a.78.78,0,0,1,.44.18.63.63,0,0,1,.17.48C22.8,16,22.44,16.27,22,16.27Z"/><path class="cls-1" d="M24.51,16.26l-.14-.41h-.81l-.14.41H23L23.79,14h.35L25,16.26ZM24,14.65l-.28.83h.56Z"/><path class="cls-1" d="M26.58,16.26l-.9-1.4v1.4h-.44V14h.39l.91,1.39V14H27v2.28Z"/><path class="cls-1" d="M28.79,16.26l-.13-.41h-.81l-.14.41h-.46L28.08,14h.35l.83,2.28Zm-.53-1.61-.29.83h.57Z"/><path class="cls-1" d="M29.52,16.26V14H30v1.88h1v.4Z"/><path class="cls-1" d="M6.71,19.73V17.89l-.46.41v-.45l.46-.4h.42v2.28Z"/><path class="cls-1" d="M8.51,19.74a.65.65,0,0,1-.69-.67v-1a.7.7,0,0,1,1.39,0v1A.65.65,0,0,1,8.51,19.74Zm.28-1.63a.28.28,0,1,0-.55,0v.95a.28.28,0,1,0,.55,0Z"/><path class="cls-1" d="M10.24,19.74a.66.66,0,0,1-.7-.67v-1a.66.66,0,0,1,.7-.68.65.65,0,0,1,.69.68v1A.65.65,0,0,1,10.24,19.74Zm.27-1.63a.28.28,0,1,0-.55,0v.95a.28.28,0,1,0,.55,0Z"/><path class="cls-1" d="M11.72,18.62a.42.42,0,0,1-.46-.44v-.31a.46.46,0,0,1,.92,0v.31A.42.42,0,0,1,11.72,18.62Zm.16-.74c0-.12-.06-.18-.16-.18s-.16.06-.16.18v.29c0,.12.06.18.16.18s.16-.06.16-.18Zm.19,1.85h-.32l1.07-2.28h.33Zm1.1,0a.42.42,0,0,1-.46-.43V19a.42.42,0,0,1,.46-.44.43.43,0,0,1,.47.44v.32A.43.43,0,0,1,13.17,19.74Zm.17-.74c0-.12-.06-.18-.17-.18S13,18.88,13,19v.29c0,.12.06.19.16.19s.17-.07.17-.19Z"/><path class="cls-1" d="M16.4,19.73V18.4l-.43.86h-.3l-.44-.86v1.33h-.45V17.45h.44l.6,1.23.59-1.23h.44v2.28Z"/><path class="cls-1" d="M18.66,19.73l-.13-.41h-.81l-.14.41h-.47l.83-2.28h.35l.83,2.28Zm-.53-1.61-.29.83h.57Z"/><path class="cls-1" d="M19.39,19.73V17.45h.45v2.28Z"/><path class="cls-1" d="M21,19.74a1,1,0,0,1-.83-.3l.29-.28a.74.74,0,0,0,.55.19c.26,0,.4-.1.4-.28a.27.27,0,0,0-.07-.2.42.42,0,0,0-.2-.08l-.28,0a.78.78,0,0,1-.44-.19.61.61,0,0,1-.16-.45.7.7,0,0,1,.79-.69,1,1,0,0,1,.74.26l-.29.28a.61.61,0,0,0-.46-.16c-.24,0-.35.14-.35.29a.22.22,0,0,0,.06.17.4.4,0,0,0,.21.08l.27,0a.78.78,0,0,1,.44.18.63.63,0,0,1,.17.48C21.82,19.49,21.46,19.74,21,19.74Z"/><path class="cls-1" d="M23.61,19.49a.84.84,0,0,1-.62.25.81.81,0,0,1-.61-.25,1.14,1.14,0,0,1-.23-.9c0-.4,0-.68.23-.91a.81.81,0,0,1,.61-.25.84.84,0,0,1,.62.25c.23.23.23.51.23.91A1.14,1.14,0,0,1,23.61,19.49ZM23.28,18a.36.36,0,0,0-.29-.13.34.34,0,0,0-.28.13c-.09.09-.11.2-.11.64s0,.54.11.64a.37.37,0,0,0,.28.12.39.39,0,0,0,.29-.12c.09-.1.11-.21.11-.64S23.37,18,23.28,18Z"/><path class="cls-1" d="M25.62,19.73l-.9-1.4v1.4h-.44V17.45h.39l.91,1.39V17.45H26v2.28Z"/></g></svg>